<svg xmlns="http://www.w3.org/2000/svg" xmlns:xlink="http://www.w3.org/1999/xlink" version="1.0" x="0" y="0" width="2400" height="381.5529273478707" viewBox="119.57800666809082 116.98389045715332 100.84399429321289 16.032217178344727" preserveAspectRatio="xMidYMid meet" color-interpolation-filters="sRGB"><g><defs><linearGradient id="92" x1="0%" y1="0%" x2="100%" y2="0%"><stop offset="0%" stop-color="#fa71cd"></stop> <stop offset="100%" stop-color="#9b59b6"></stop></linearGradient><linearGradient id="93" x1="0%" y1="0%" x2="100%" y2="0%"><stop offset="0%" stop-color="#f9d423"></stop> <stop offset="100%" stop-color="#f83600"></stop></linearGradient><linearGradient id="94" x1="0%" y1="0%" x2="100%" y2="0%"><stop offset="0%" stop-color="#0064d2"></stop> <stop offset="100%" stop-color="#1cb0f6"></stop></linearGradient><linearGradient id="95" x1="0%" y1="0%" x2="100%" y2="0%"><stop offset="0%" stop-color="#f00978"></stop> <stop offset="100%" stop-color="#3f51b1"></stop></linearGradient><linearGradient id="96" x1="0%" y1="0%" x2="100%" y2="0%"><stop offset="0%" stop-color="#7873f5"></stop> <stop offset="100%" stop-color="#ec77ab"></stop></linearGradient><linearGradient id="97" x1="0%" y1="0%" x2="100%" y2="0%"><stop offset="0%" stop-color="#f9d423"></stop> <stop offset="100%" stop-color="#e14fad"></stop></linearGradient><linearGradient id="98" x1="0%" y1="0%" x2="100%" y2="0%"><stop offset="0%" stop-color="#009efd"></stop> <stop offset="100%" stop-color="#2af598"></stop></linearGradient><linearGradient id="99" x1="0%" y1="0%" x2="100%" y2="0%"><stop offset="0%" stop-color="#ffcc00"></stop> <stop offset="100%" stop-color="#00b140"></stop></linearGradient><linearGradient id="100" x1="0%" y1="0%" x2="100%" y2="0%"><stop offset="0%" stop-color="#d51007"></stop> <stop offset="100%" stop-color="#ff8177"></stop></linearGradient><linearGradient id="102" x1="0%" y1="0%" x2="100%" y2="0%"><stop offset="0%" stop-color="#a2b6df"></stop> <stop offset="100%" stop-color="#0c3483"></stop></linearGradient><linearGradient id="103" x1="0%" y1="0%" x2="100%" y2="0%"><stop offset="0%" stop-color="#7ac5d8"></stop> <stop offset="100%" stop-color="#eea2a2"></stop></linearGradient><linearGradient id="104" x1="0%" y1="0%" x2="100%" y2="0%"><stop offset="0%" stop-color="#00ecbc"></stop> <stop offset="100%" stop-color="#007adf"></stop></linearGradient><linearGradient id="105" x1="0%" y1="0%" x2="100%" y2="0%"><stop offset="0%" stop-color="#b88746"></stop> <stop offset="100%" stop-color="#fdf5a6"></stop></linearGradient></defs><g fill="#0866FF" class="icon-text-wrapper icon-svg-group iconsvg" transform="translate(120.56666946411133,117.97255802154541)"><g class="iconsvg-imagesvg" transform="translate(0,0)"><g><rect fill="#0866FF" fill-opacity="0" stroke-width="2" x="0" y="0" width="17.99999999999997" height="13.502362913509844" class="image-rect"></rect> <svg x="0" y="0" width="17.99999999999997" height="13.502362913509844" filtersec="colorsb6233285915" class="image-svg-svg primary" style="overflow: visible;"><svg xmlns="http://www.w3.org/2000/svg" viewBox="-2.384185791015625e-7 0 131.739990234375 98.82231140136719"><path d="M13.58 27.4v68c0 3.37 0 3.37-3.31 3.38-2.68 0-5.36-.06-8 0C.56 98.83 0 98.19 0 96.5c.07-6.88 0-13.77 0-20.66V0c1.28.79 2.1 1.21 2.83 1.76q30.4 22.82 60.77 45.69c1.65 1.25 2.72 1.3 4.39 0q26.77-20.19 53.6-40.27c2.59-1.94 5.18-3.89 7.79-5.81.54-.4 1.16-.7 2.22-1.33 0 5.52.06 10.51-.07 15.49 0 .68-.91 1.48-1.58 2q-31 23.4-62.1 46.76c-1.52 1.15-2.53 1.09-4 0q-23.57-17.85-47.2-35.53c-.76-.57-1.55-1.1-2.32-1.65z" fill="#171e60"></path><path d="M26.82 53.17c1.22.75 2 1.15 2.64 1.65 11.34 8.5 22.69 17 34 25.55 1.77 1.36 2.92 1.48 4.79.07q30.38-23 60.89-45.88c.62-.47 1.3-.84 2.37-1.53.07 1.33.17 2.17.17 3 0 19.92 0 39.85.06 59.78 0 2.38-.74 3.12-3 3a69.22 69.22 0 0 0-8 0c-2.2.12-2.51-1-2.5-2.81V62.95c0-.86-.09-1.72-.16-3.15-1 .68-1.67 1-2.26 1.5Q91.84 79.21 68 97.2c-1.68 1.28-2.72 1.2-4.35 0Q46.35 84 28.91 71a4.64 4.64 0 0 1-2.13-4.26c.13-4.33.04-8.67.04-13.57z" fill="#0866FF"></path></svg></svg> </g></g> <g transform="translate(19,4.240283966064453)"><g fill-rule="" class="tp-name iconsvg-namesvg" transform="translate(0,0)"><g transform="scale(0.6199999999999997)"><g><path d="M12.74-7.44L12.74-3.69Q12.74-3.13 12.55-2.49 12.35-1.84 11.91-1.29 11.48-0.74 10.77-0.37 10.07 0 9.06 0L9.06 0 4.23 0Q3.67 0 3.03-0.2 2.39-0.39 1.84-0.83 1.29-1.27 0.92-1.97 0.55-2.68 0.55-3.69L0.55-3.69Q0.55-4.24 0.74-4.89 0.94-5.54 1.37-6.09 1.81-6.64 2.52-7.01 3.22-7.38 4.23-7.38L4.23-7.38 9.06-7.38 9.06-4.83 4.23-4.83Q3.69-4.83 3.39-4.49 3.09-4.16 3.09-3.66L3.09-3.66Q3.09-3.14 3.43-2.85 3.78-2.55 4.25-2.55L4.25-2.55 9.06-2.55Q9.6-2.55 9.9-2.88 10.2-3.21 10.2-3.71L10.2-3.71 10.2-7.44Q10.2-7.97 9.88-8.28 9.55-8.58 9.06-8.58L9.06-8.58 3.18-8.58 3.18-11.13 9.06-11.13Q9.61-11.13 10.26-10.93 10.9-10.74 11.45-10.3 12-9.86 12.37-9.16 12.74-8.45 12.74-7.44L12.74-7.44ZM24.77-11.13L24.77-8.45 18.74-8.45Q18.2-8.45 17.92-8.18 17.64-7.91 17.64-7.38L17.64-7.38 17.64 0 14.97 0 14.97-7.38Q14.97-8.07 15.14-8.62 15.32-9.16 15.61-9.58 15.9-9.99 16.28-10.29 16.66-10.58 17.08-10.77 17.5-10.95 17.93-11.04 18.35-11.13 18.72-11.13L18.72-11.13 24.77-11.13ZM33.3-6.07L39.6 0 35.74 0 30.34-5.21Q29.89-5.62 29.92-6.24L29.92-6.24Q29.94-6.53 30.07-6.78 30.2-7.03 30.43-7.21L30.43-7.21 35.32-11.15 39.6-11.15 33.3-6.07ZM29.24-15.83L29.24 0 26.57 0 26.57-15.83 29.24-15.83ZM52.71-7.44L52.71-7.44Q52.71-6.89 52.52-6.24 52.32-5.6 51.88-5.05 51.45-4.5 50.74-4.13 50.04-3.76 49.03-3.76L49.03-3.76 44.2-3.76 44.2-6.3 49.03-6.3Q49.57-6.3 49.87-6.63 50.17-6.97 50.17-7.46L50.17-7.46Q50.17-7.99 49.84-8.29 49.5-8.58 49.03-8.58L49.03-8.58 44.2-8.58Q43.65-8.58 43.36-8.25 43.06-7.92 43.06-7.42L43.06-7.42 43.06-3.69Q43.06-3.15 43.39-2.85 43.73-2.55 44.22-2.55L44.22-2.55 49.03-2.55 49.03 0 44.2 0Q43.64 0 43-0.2 42.36-0.39 41.81-0.83 41.26-1.27 40.89-1.97 40.51-2.68 40.51-3.69L40.51-3.69 40.51-7.44Q40.51-8 40.71-8.64 40.91-9.28 41.34-9.84 41.78-10.39 42.49-10.76 43.19-11.13 44.2-11.13L44.2-11.13 49.03-11.13Q49.58-11.13 50.23-10.93 50.87-10.74 51.42-10.3 51.97-9.86 52.34-9.16 52.71-8.45 52.71-7.44ZM64.63-11.13L64.63-8.45 59.96-8.45 59.96 0 57.25 0 57.25-8.45 53.77-8.45 53.77-11.13 57.25-11.13 57.25-14.76 59.96-14.76 59.96-11.13 64.63-11.13ZM77.15-3.76L77.15-3.76Q77.15-3.07 76.97-2.52 76.8-1.97 76.51-1.55 76.22-1.13 75.84-0.84 75.46-0.55 75.04-0.36 74.63-0.17 74.2-0.09 73.77 0 73.39 0L73.39 0 66.15 0 66.15-2.68 73.37-2.68Q73.92-2.68 74.19-2.95 74.47-3.23 74.47-3.76L74.47-3.76Q74.42-4.83 73.39-4.83L73.39-4.83 69.24-4.83Q68.36-4.83 67.74-5.14 67.12-5.45 66.74-5.91 66.35-6.37 66.18-6.91 66.01-7.44 66.01-7.91L66.01-7.91Q66.01-8.8 66.33-9.41 66.65-10.03 67.13-10.41 67.62-10.79 68.18-10.96 68.75-11.13 69.24-11.13L69.24-11.13 75.82-11.13 75.82-8.45 69.26-8.45Q69.06-8.45 68.94-8.4 68.82-8.36 68.76-8.28 68.71-8.2 68.7-8.12 68.69-8.03 68.69-7.95L68.69-7.95Q68.7-7.78 68.75-7.69 68.8-7.6 68.88-7.56 68.96-7.51 69.05-7.51 69.15-7.5 69.24-7.5L69.24-7.5 73.39-7.5Q74.42-7.5 75.14-7.13 75.86-6.76 76.3-6.2 76.75-5.64 76.95-4.98 77.15-4.32 77.15-3.76Z" transform="translate(-0.550000011920929, 15.829999923706055)"></path></g> <g fill="#171e60" transform="translate(79.5999984741211,0)"><g transform="scale(1)"><path d="M16.04-13.41L16.04 0 13.36 0 13.36-3.62 3.95-3.62 3.95 0 1.28 0 1.28-7.38Q1.28-9 1.83-10.36 2.39-11.71 3.38-12.69 4.36-13.67 5.71-14.22 7.06-14.76 8.66-14.76L8.66-14.76 14.69-14.76Q14.97-14.76 15.21-14.66 15.46-14.55 15.65-14.37 15.83-14.18 15.93-13.94 16.04-13.69 16.04-13.41L16.04-13.41ZM3.95-7.38L3.95-6.3 13.36-6.3 13.36-12.08 8.66-12.08Q8.53-12.08 8.14-12.05 7.74-12.01 7.22-11.87 6.7-11.72 6.12-11.43 5.55-11.13 5.06-10.6 4.58-10.08 4.27-9.29 3.95-8.5 3.95-7.38L3.95-7.38ZM29.56-2.68L29.56 0 22.31 0Q21.75 0 21.09-0.2 20.43-0.39 19.87-0.84 19.31-1.29 18.93-2 18.56-2.72 18.56-3.76L18.56-3.76 18.56-7.38Q18.56-7.76 18.65-8.18 18.73-8.61 18.92-9.02 19.1-9.44 19.4-9.82 19.69-10.2 20.11-10.49 20.52-10.78 21.07-10.95 21.62-11.13 22.31-11.13L22.31-11.13 29.56-11.13 29.56-8.45 22.31-8.45Q21.78-8.45 21.51-8.18 21.24-7.92 21.24-7.36L21.24-7.36 21.24-3.76Q21.24-3.23 21.51-2.95 21.79-2.68 22.33-2.68L22.33-2.68 29.56-2.68ZM41.89-11.13L41.89-8.45 37.22-8.45 37.22 0 34.51 0 34.51-8.45 31.03-8.45 31.03-11.13 34.51-11.13 34.51-14.76 37.22-14.76 37.22-11.13 41.89-11.13Z" transform="translate(-1.2799999713897705, 15.829999923706055)"></path></g></g></g></g> <g fill-rule="" class="tp-slogan iconsvg-slogansvg" fill="#0866FF" transform="translate(74.66469860076904,-3.1854000091552734)"> <g transform="scale(1, 1)"><g transform="scale(0.8799999999999999)"><path d="M6.55-5.23L6.55-5.23Q6.55-4.62 6.32-4.08Q6.09-3.54 5.69-3.14Q5.29-2.74 4.74-2.51Q4.20-2.28 3.59-2.28L3.59-2.28Q2.98-2.28 2.44-2.51Q1.90-2.74 1.50-3.14Q1.10-3.54 0.87-4.08Q0.64-4.62 0.64-5.23L0.64-5.23Q0.64-5.85 0.87-6.39Q1.10-6.93 1.50-7.33Q1.90-7.73 2.44-7.97Q2.98-8.20 3.59-8.20L3.59-8.20Q4.20-8.20 4.74-7.97Q5.29-7.73 5.69-7.33Q6.09-6.93 6.32-6.39Q6.55-5.85 6.55-5.23ZM1.10-5.23L1.10-5.23Q1.10-4.71 1.29-4.26Q1.49-3.81 1.83-3.47Q2.16-3.13 2.62-2.94Q3.07-2.75 3.59-2.75L3.59-2.75Q4.11-2.75 4.56-2.94Q5.02-3.13 5.36-3.47Q5.70-3.81 5.89-4.26Q6.08-4.71 6.08-5.23L6.08-5.23Q6.08-5.75 5.89-6.21Q5.70-6.66 5.36-7.00Q5.02-7.34 4.56-7.54Q4.11-7.73 3.59-7.73L3.59-7.73Q3.07-7.73 2.62-7.54Q2.16-7.34 1.83-7.00Q1.49-6.66 1.29-6.21Q1.10-5.75 1.10-5.23ZM3.54-4.96L2.96-4.96L2.96-3.55L2.43-3.55L2.43-6.96L3.62-6.96Q4.25-6.96 4.58-6.71Q4.92-6.46 4.92-5.98L4.92-5.98Q4.92-5.63 4.76-5.40Q4.59-5.17 4.28-5.05L4.28-5.05L5.17-3.55L4.59-3.55L3.80-4.97Q3.77-4.96 3.73-4.96L3.73-4.96Q3.70-4.96 3.65-4.96Q3.60-4.96 3.54-4.96L3.54-4.96ZM4.35-5.98L4.35-5.98Q4.35-6.25 4.17-6.42Q3.98-6.59 3.57-6.59L3.57-6.59L2.96-6.59L2.96-5.33L3.57-5.33Q3.97-5.33 4.16-5.51Q4.35-5.70 4.35-5.98Z" transform="translate(-0.638671875, 8.197265625)"></path></g></g></g></g></g><defs v-gra="od"></defs></g></svg>