<?xml version="1.0" encoding="UTF-8"?>
<svg version="1.1" xmlns="http://www.w3.org/2000/svg" width="3000" height="3000">
<path d="M0 0 C990 0 1980 0 3000 0 C3000 990 3000 1980 3000 3000 C2010 3000 1020 3000 0 3000 C0 2010 0 1020 0 0 Z " fill="#F7F7F7" transform="translate(0,0)"/>
<path d="M0 0 C58.74 0 117.48 0 178 0 C178 60.72 178 121.44 178 184 C119.26 184 60.52 184 0 184 C0 123.28 0 62.56 0 0 Z " fill="#FFFFFF" transform="translate(2626,2437)"/>
<path d="M0 0 C58.74 0 117.48 0 178 0 C178 60.72 178 121.44 178 184 C119.26 184 60.52 184 0 184 C0 123.28 0 62.56 0 0 Z " fill="#FFFFFF" transform="translate(2252,2437)"/>
<path d="M0 0 C58.74 0 117.48 0 178 0 C178 60.72 178 121.44 178 184 C119.26 184 60.52 184 0 184 C0 123.28 0 62.56 0 0 Z " fill="#FEFEFE" transform="translate(10,2437)"/>
<path d="M0 0 C58.74 0 117.48 0 178 0 C178 60.72 178 121.44 178 184 C119.26 184 60.52 184 0 184 C0 123.28 0 62.56 0 0 Z " fill="#FEFEFE" transform="translate(2626,2244)"/>
<path d="M0 0 C58.74 0 117.48 0 178 0 C178 60.72 178 121.44 178 184 C119.26 184 60.52 184 0 184 C0 123.28 0 62.56 0 0 Z " fill="#FEFEFE" transform="translate(2439,2244)"/>
<path d="M0 0 C58.74 0 117.48 0 178 0 C178 60.72 178 121.44 178 184 C119.26 184 60.52 184 0 184 C0 123.28 0 62.56 0 0 Z " fill="#FEFEFE" transform="translate(2252,2244)"/>
<path d="M0 0 C58.74 0 117.48 0 178 0 C178 60.72 178 121.44 178 184 C119.26 184 60.52 184 0 184 C0 123.28 0 62.56 0 0 Z " fill="#FEFEFE" transform="translate(757,2244)"/>
<path d="M0 0 C58.74 0 117.48 0 178 0 C178 60.72 178 121.44 178 184 C119.26 184 60.52 184 0 184 C0 123.28 0 62.56 0 0 Z " fill="#FEFEFE" transform="translate(384,2244)"/>
<path d="M0 0 C58.74 0 117.48 0 178 0 C178 60.72 178 121.44 178 184 C119.26 184 60.52 184 0 184 C0 123.28 0 62.56 0 0 Z " fill="#FEFEFE" transform="translate(197,2244)"/>
<path d="M0 0 C58.74 0 117.48 0 178 0 C178 60.72 178 121.44 178 184 C119.26 184 60.52 184 0 184 C0 123.28 0 62.56 0 0 Z " fill="#FEFEFE" transform="translate(10,2244)"/>
<path d="M0 0 C58.74 0 117.48 0 178 0 C178 60.72 178 121.44 178 184 C119.26 184 60.52 184 0 184 C0 123.28 0 62.56 0 0 Z " fill="#FEFEFE" transform="translate(2626,2051)"/>
<path d="M0 0 C58.74 0 117.48 0 178 0 C178 60.72 178 121.44 178 184 C119.26 184 60.52 184 0 184 C0 123.28 0 62.56 0 0 Z " fill="#FEFEFE" transform="translate(2439,2051)"/>
<path d="M0 0 C58.74 0 117.48 0 178 0 C178 60.72 178 121.44 178 184 C119.26 184 60.52 184 0 184 C0 123.28 0 62.56 0 0 Z " fill="#FEFEFE" transform="translate(2252,2051)"/>
<path d="M0 0 C58.74 0 117.48 0 178 0 C178 60.72 178 121.44 178 184 C119.26 184 60.52 184 0 184 C0 123.28 0 62.56 0 0 Z " fill="#FEFEFE" transform="translate(1692,2051)"/>
<path d="M0 0 C58.74 0 117.48 0 178 0 C178 60.72 178 121.44 178 184 C119.26 184 60.52 184 0 184 C0 123.28 0 62.56 0 0 Z " fill="#FEFEFE" transform="translate(384,2051)"/>
<path d="M0 0 C58.74 0 117.48 0 178 0 C178 60.72 178 121.44 178 184 C119.26 184 60.52 184 0 184 C0 123.28 0 62.56 0 0 Z " fill="#FEFEFE" transform="translate(197,2051)"/>
<path d="M0 0 C58.74 0 117.48 0 178 0 C178 60.72 178 121.44 178 184 C119.26 184 60.52 184 0 184 C0 123.28 0 62.56 0 0 Z " fill="#FEFEFE" transform="translate(10,2051)"/>
<path d="M0 0 C58.74 0 117.48 0 178 0 C178 60.72 178 121.44 178 184 C119.26 184 60.52 184 0 184 C0 123.28 0 62.56 0 0 Z " fill="#FEFEFE" transform="translate(2813,1858)"/>
<path d="M0 0 C58.74 0 117.48 0 178 0 C178 60.72 178 121.44 178 184 C119.26 184 60.52 184 0 184 C0 123.28 0 62.56 0 0 Z " fill="#FFFFFF" transform="translate(2626,1858)"/>
<path d="M0 0 C58.74 0 117.48 0 178 0 C178 60.72 178 121.44 178 184 C119.26 184 60.52 184 0 184 C0 123.28 0 62.56 0 0 Z " fill="#FEFEFE" transform="translate(2439,1858)"/>
<path d="M0 0 C58.74 0 117.48 0 178 0 C178 60.72 178 121.44 178 184 C119.26 184 60.52 184 0 184 C0 123.28 0 62.56 0 0 Z " fill="#FFFFFF" transform="translate(2252,1858)"/>
<path d="M0 0 C58.74 0 117.48 0 178 0 C178 60.72 178 121.44 178 184 C119.26 184 60.52 184 0 184 C0 123.28 0 62.56 0 0 Z " fill="#FEFEFE" transform="translate(384,1858)"/>
<path d="M0 0 C58.74 0 117.48 0 178 0 C178 60.72 178 121.44 178 184 C119.26 184 60.52 184 0 184 C0 123.28 0 62.56 0 0 Z " fill="#FEFEFE" transform="translate(197,1858)"/>
<path d="M0 0 C58.74 0 117.48 0 178 0 C178 60.72 178 121.44 178 184 C119.26 184 60.52 184 0 184 C0 123.28 0 62.56 0 0 Z " fill="#FEFEFE" transform="translate(10,1858)"/>
<path d="M0 0 C58.74 0 117.48 0 178 0 C178 60.72 178 121.44 178 184 C119.26 184 60.52 184 0 184 C0 123.28 0 62.56 0 0 Z " fill="#FEFEFE" transform="translate(2626,1665)"/>
<path d="M0 0 C58.74 0 117.48 0 178 0 C178 60.72 178 121.44 178 184 C119.26 184 60.52 184 0 184 C0 123.28 0 62.56 0 0 Z " fill="#FEFEFE" transform="translate(2252,1665)"/>
<path d="M0 0 C58.74 0 117.48 0 178 0 C178 60.72 178 121.44 178 184 C119.26 184 60.52 184 0 184 C0 123.28 0 62.56 0 0 Z " fill="#FEFEFE" transform="translate(384,1665)"/>
<path d="M0 0 C58.74 0 117.48 0 178 0 C178 60.72 178 121.44 178 184 C119.26 184 60.52 184 0 184 C0 123.28 0 62.56 0 0 Z " fill="#FEFEFE" transform="translate(10,1665)"/>
<path d="M0 0 C58.74 0 117.48 0 178 0 C178 60.72 178 121.44 178 184 C119.26 184 60.52 184 0 184 C0 123.28 0 62.56 0 0 Z " fill="#FEFEFE" transform="translate(2626,1472)"/>
<path d="M0 0 C58.74 0 117.48 0 178 0 C178 60.72 178 121.44 178 184 C119.26 184 60.52 184 0 184 C0 123.28 0 62.56 0 0 Z " fill="#FEFEFE" transform="translate(2252,1472)"/>
<path d="M0 0 C58.74 0 117.48 0 178 0 C178 60.72 178 121.44 178 184 C119.26 184 60.52 184 0 184 C0 123.28 0 62.56 0 0 Z " fill="#FEFEFE" transform="translate(384,1472)"/>
<path d="M0 0 C58.74 0 117.48 0 178 0 C178 60.72 178 121.44 178 184 C119.26 184 60.52 184 0 184 C0 123.28 0 62.56 0 0 Z " fill="#FEFEFE" transform="translate(10,1472)"/>
<path d="M0 0 C58.74 0 117.48 0 178 0 C178 60.72 178 121.44 178 184 C119.26 184 60.52 184 0 184 C0 123.28 0 62.56 0 0 Z " fill="#FEFEFE" transform="translate(2626,1279)"/>
<path d="M0 0 C58.74 0 117.48 0 178 0 C178 60.72 178 121.44 178 184 C119.26 184 60.52 184 0 184 C0 123.28 0 62.56 0 0 Z " fill="#FEFEFE" transform="translate(384,1279)"/>
<path d="M0 0 C58.74 0 117.48 0 178 0 C178 60.72 178 121.44 178 184 C119.26 184 60.52 184 0 184 C0 123.28 0 62.56 0 0 Z " fill="#FEFEFE" transform="translate(10,1279)"/>
<path d="M0 0 C58.74 0 117.48 0 178 0 C178 60.72 178 121.44 178 184 C119.26 184 60.52 184 0 184 C0 123.28 0 62.56 0 0 Z " fill="#FEFEFE" transform="translate(2439,508)"/>
<path d="M0 0 C58.74 0 117.48 0 178 0 C178 60.72 178 121.44 178 184 C119.26 184 60.52 184 0 184 C0 123.28 0 62.56 0 0 Z " fill="#FEFEFE" transform="translate(2252,508)"/>
<path d="M0 0 C58.74 0 117.48 0 178 0 C178 60.72 178 121.44 178 184 C119.26 184 60.52 184 0 184 C0 123.28 0 62.56 0 0 Z " fill="#FEFEFE" transform="translate(1505,508)"/>
<path d="M0 0 C58.74 0 117.48 0 178 0 C178 60.72 178 121.44 178 184 C119.26 184 60.52 184 0 184 C0 123.28 0 62.56 0 0 Z " fill="#FEFEFE" transform="translate(1318,508)"/>
<path d="M0 0 C58.74 0 117.48 0 178 0 C178 60.72 178 121.44 178 184 C119.26 184 60.52 184 0 184 C0 123.28 0 62.56 0 0 Z " fill="#FEFEFE" transform="translate(1131,508)"/>
<path d="M0 0 C58.74 0 117.48 0 178 0 C178 60.72 178 121.44 178 184 C119.26 184 60.52 184 0 184 C0 123.28 0 62.56 0 0 Z " fill="#FEFEFE" transform="translate(944,508)"/>
<path d="M0 0 C58.74 0 117.48 0 178 0 C178 60.72 178 121.44 178 184 C119.26 184 60.52 184 0 184 C0 123.28 0 62.56 0 0 Z " fill="#FEFEFE" transform="translate(757,508)"/>
<path d="M0 0 C58.74 0 117.48 0 178 0 C178 60.72 178 121.44 178 184 C119.26 184 60.52 184 0 184 C0 123.28 0 62.56 0 0 Z " fill="#FEFEFE" transform="translate(10,508)"/>
<path d="M0 0 C58.74 0 117.48 0 178 0 C178 60.72 178 121.44 178 184 C119.26 184 60.52 184 0 184 C0 123.28 0 62.56 0 0 Z " fill="#FEFEFE" transform="translate(2439,315)"/>
<path d="M0 0 C58.74 0 117.48 0 178 0 C178.04030303 45.8514186 178.04030303 45.8514186 178.04882812 65.00195312 C178.05477172 78.24748113 178.06177505 91.4930028 178.07543945 104.73852539 C178.08538454 114.38331054 178.09185301 124.02809057 178.09408849 133.67288071 C178.0953959 138.78306561 178.09848364 143.89323585 178.10573006 149.00341606 C178.1124875 153.80742559 178.11461753 158.61141433 178.11310768 163.41542816 C178.11338413 165.18398463 178.11539088 166.95254175 178.11920547 168.72109413 C178.12413843 171.12487473 178.12299978 173.52857557 178.12025452 175.93235779 C178.12462378 176.99605383 178.12462378 176.99605383 178.12908131 178.08123869 C178.11412121 182.88587879 178.11412121 182.88587879 177 184 C174.72176255 184.09709071 172.44044577 184.12186604 170.16014099 184.12025452 C169.43825089 184.12111053 168.71636078 184.12196655 167.97259521 184.12284851 C165.5278482 184.12451356 163.08316856 184.11896418 160.63842773 184.11352539 C158.86612735 184.1132193 157.09382685 184.11335214 155.32152653 184.11389065 C150.5583476 184.1141172 145.7951936 184.10830475 141.03202057 184.10128021 C136.56891294 184.09560194 132.1058115 184.095318 127.6427002 184.09460449 C114.57429681 184.08934889 101.50589809 184.07538785 88.4375 184.0625 C44.6609375 184.0315625 44.6609375 184.0315625 0 184 C0 123.28 0 62.56 0 0 Z " fill="#FEFEFE" transform="translate(2813,2437)"/>
<path d="M0 0 C58.74 0 117.48 0 178 0 C178 60.72 178 121.44 178 184 C119.26 184 60.52 184 0 184 C0 123.28 0 62.56 0 0 Z " fill="#FEFEFE" transform="translate(2813,2051)"/>
<path d="M0 0 C29.184375 -0.020625 58.36875 -0.04125 88.4375 -0.0625 C97.66904053 -0.071604 106.90058105 -0.08070801 116.41186523 -0.09008789 C127.6427002 -0.09460449 127.6427002 -0.09460449 132.89222717 -0.09544373 C136.57635596 -0.09637932 140.26047049 -0.10014236 143.94459534 -0.10557556 C148.63469548 -0.11240141 153.3247747 -0.11449736 158.01487935 -0.11307228 C159.74191121 -0.11337055 161.46894376 -0.11537303 163.19597137 -0.11921513 C165.51738829 -0.12414225 167.83872243 -0.12300726 170.16014099 -0.12025452 C172.1166466 -0.12163721 172.1166466 -0.12163721 174.11267757 -0.12304783 C177 0 177 0 178 1 C178.09763971 3.36547519 178.12997288 5.70170935 178.12025452 8.06764221 C178.12153615 9.18985897 178.12153615 9.18985897 178.12284368 10.33474678 C178.12450073 12.86063947 178.11897348 15.38646686 178.11352539 17.91235352 C178.11324354 19.71543374 178.11340121 21.51851408 178.1139679 23.32159424 C178.11425596 28.23254539 178.10835784 33.14347234 178.10139394 38.05441785 C178.09516184 43.18072212 178.09455672 48.30702688 178.09336853 53.43333435 C178.09025479 63.14790626 178.08204083 72.86246697 178.07201904 82.57703394 C178.05877437 95.69926022 178.05335834 108.82148954 178.04751682 121.94372082 C178.03810096 142.6291556 178.01818233 163.31456676 178 184 C119.26 184 60.52 184 0 184 C0 123.28 0 62.56 0 0 Z " fill="#FEFEFE" transform="translate(2813,1472)"/>
<path d="M0 0 C58.74 0 117.48 0 178 0 C178 60.72 178 121.44 178 184 C119.26 184 60.52 184 0 184 C0 123.28 0 62.56 0 0 Z " fill="#FEFEFE" transform="translate(2813,1279)"/>
<path d="M0 0 C58.74 0 117.48 0 178 0 C178.04030303 45.8514186 178.04030303 45.8514186 178.04882812 65.00195312 C178.05477172 78.24748113 178.06177505 91.4930028 178.07543945 104.73852539 C178.08538454 114.38331054 178.09185301 124.02809057 178.09408849 133.67288071 C178.0953959 138.78306561 178.09848364 143.89323585 178.10573006 149.00341606 C178.1124875 153.80742559 178.11461753 158.61141433 178.11310768 163.41542816 C178.11338413 165.18398463 178.11539088 166.95254175 178.11920547 168.72109413 C178.12413843 171.12487473 178.12299978 173.52857557 178.12025452 175.93235779 C178.12462378 176.99605383 178.12462378 176.99605383 178.12908131 178.08123869 C178.11412121 182.88587879 178.11412121 182.88587879 177 184 C174.72176255 184.09709071 172.44044577 184.12186604 170.16014099 184.12025452 C169.43825089 184.12111053 168.71636078 184.12196655 167.97259521 184.12284851 C165.5278482 184.12451356 163.08316856 184.11896418 160.63842773 184.11352539 C158.86612735 184.1132193 157.09382685 184.11335214 155.32152653 184.11389065 C150.5583476 184.1141172 145.7951936 184.10830475 141.03202057 184.10128021 C136.56891294 184.09560194 132.1058115 184.095318 127.6427002 184.09460449 C114.57429681 184.08934889 101.50589809 184.07538785 88.4375 184.0625 C44.6609375 184.0315625 44.6609375 184.0315625 0 184 C0 123.28 0 62.56 0 0 Z " fill="#FEFEFE" transform="translate(2813,2630)"/>
<path d="M0 0 C1.95650561 0.00138269 1.95650561 0.00138269 3.95253658 0.00279331 C4.67442669 0.00193729 5.3963168 0.00108128 6.14008236 0.00019932 C8.58482937 -0.00146573 11.02950901 0.00408365 13.47424984 0.00952244 C15.24655022 0.00982853 17.01885072 0.00969569 18.79115105 0.00915718 C23.55432997 0.00893063 28.31748398 0.01474308 33.08065701 0.02176762 C37.54376463 0.02744589 42.00686607 0.02772983 46.46997738 0.02844334 C59.53838077 0.03369894 72.60677948 0.04765997 85.67517757 0.06054783 C129.45174007 0.09148533 129.45174007 0.09148533 174.11267757 0.12304783 C174.11267757 60.84304783 174.11267757 121.56304783 174.11267757 184.12304783 C144.92830257 184.14367283 115.74392757 184.16429783 85.67517757 184.18554783 C76.44363705 184.19465183 67.21209652 184.20375584 57.70081234 184.21313572 C46.46997738 184.21765232 46.46997738 184.21765232 41.2204504 184.21849155 C37.53632162 184.21942714 33.85220709 184.22319019 30.16808224 184.22862339 C25.47798209 184.23544923 20.78790288 184.23754519 16.09779823 184.2361201 C14.37076637 184.23641838 12.64373382 184.23842086 10.9167062 184.24226296 C8.59528929 184.24719008 6.27395515 184.24605509 3.95253658 184.24330235 C2.64819951 184.24422414 1.34386244 184.24514593 0 184.24609566 C-2.88732243 184.12304783 -2.88732243 184.12304783 -3.88732243 183.12304783 C-3.98716617 180.77247575 -4.02175007 178.45123256 -4.01430607 176.10009861 C-4.01586606 175.35674322 -4.01742605 174.61338783 -4.01903331 173.84750652 C-4.02304606 171.33777141 -4.01985262 168.82809598 -4.01671696 166.31836033 C-4.01807088 164.52675433 -4.01985076 162.73514862 -4.02202702 160.94354343 C-4.02660246 156.06351895 -4.02481133 151.18351551 -4.02164793 146.30349064 C-4.0191249 141.20834895 -4.02146171 136.11320912 -4.0230341 131.01806736 C-4.02485596 122.45995858 -4.02244904 113.90185842 -4.01769352 105.34375095 C-4.01225087 95.43433345 -4.01401351 85.52493652 -4.01951993 75.61551952 C-4.02405058 67.12383249 -4.02470184 58.63215168 -4.02208126 50.14046383 C-4.02051822 45.06159598 -4.02032544 39.98273782 -4.02361774 34.90387058 C-4.02649577 30.13021215 -4.02452204 25.35658038 -4.01872349 20.58292484 C-4.01739552 18.82565702 -4.01779063 17.06838698 -4.01998615 15.31112003 C-4.02269622 12.9227149 -4.01931832 10.53439657 -4.01430607 8.14599705 C-4.01653679 7.44143942 -4.01876751 6.73688179 -4.02106583 6.01097393 C-3.99709348 0.17034248 -3.99709348 0.17034248 0 0 Z " fill="#FEFEFE" transform="translate(2068.8873224258423,2629.8769521713257)"/>
<path d="M0 0 C1.95650561 0.00138269 1.95650561 0.00138269 3.95253658 0.00279331 C4.67442669 0.00193729 5.3963168 0.00108128 6.14008236 0.00019932 C8.58482937 -0.00146573 11.02950901 0.00408365 13.47424984 0.00952244 C15.24655022 0.00982853 17.01885072 0.00969569 18.79115105 0.00915718 C23.55432997 0.00893063 28.31748398 0.01474308 33.08065701 0.02176762 C37.54376463 0.02744589 42.00686607 0.02772983 46.46997738 0.02844334 C59.53838077 0.03369894 72.60677948 0.04765997 85.67517757 0.06054783 C129.45174007 0.09148533 129.45174007 0.09148533 174.11267757 0.12304783 C174.11267757 60.84304783 174.11267757 121.56304783 174.11267757 184.12304783 C144.92830257 184.14367283 115.74392757 184.16429783 85.67517757 184.18554783 C76.44363705 184.19465183 67.21209652 184.20375584 57.70081234 184.21313572 C46.46997738 184.21765232 46.46997738 184.21765232 41.2204504 184.21849155 C37.53632162 184.21942714 33.85220709 184.22319019 30.16808224 184.22862339 C25.47798209 184.23544923 20.78790288 184.23754519 16.09779823 184.2361201 C14.37076637 184.23641838 12.64373382 184.23842086 10.9167062 184.24226296 C8.59528929 184.24719008 6.27395515 184.24605509 3.95253658 184.24330235 C2.64819951 184.24422414 1.34386244 184.24514593 0 184.24609566 C-2.88732243 184.12304783 -2.88732243 184.12304783 -3.88732243 183.12304783 C-3.98716617 180.77247575 -4.02175007 178.45123256 -4.01430607 176.10009861 C-4.01586606 175.35674322 -4.01742605 174.61338783 -4.01903331 173.84750652 C-4.02304606 171.33777141 -4.01985262 168.82809598 -4.01671696 166.31836033 C-4.01807088 164.52675433 -4.01985076 162.73514862 -4.02202702 160.94354343 C-4.02660246 156.06351895 -4.02481133 151.18351551 -4.02164793 146.30349064 C-4.0191249 141.20834895 -4.02146171 136.11320912 -4.0230341 131.01806736 C-4.02485596 122.45995858 -4.02244904 113.90185842 -4.01769352 105.34375095 C-4.01225087 95.43433345 -4.01401351 85.52493652 -4.01951993 75.61551952 C-4.02405058 67.12383249 -4.02470184 58.63215168 -4.02208126 50.14046383 C-4.02051822 45.06159598 -4.02032544 39.98273782 -4.02361774 34.90387058 C-4.02649577 30.13021215 -4.02452204 25.35658038 -4.01872349 20.58292484 C-4.01739552 18.82565702 -4.01779063 17.06838698 -4.01998615 15.31112003 C-4.02269622 12.9227149 -4.01931832 10.53439657 -4.01430607 8.14599705 C-4.01653679 7.44143942 -4.01876751 6.73688179 -4.02106583 6.01097393 C-3.99709348 0.17034248 -3.99709348 0.17034248 0 0 Z " fill="#FEFEFE" transform="translate(2068.8873224258423,2436.8769521713257)"/>
<path d="M0 0 C58.74 0 117.48 0 178 0 C178.04030303 45.8514186 178.04030303 45.8514186 178.04882812 65.00195312 C178.05477172 78.24748113 178.06177505 91.4930028 178.07543945 104.73852539 C178.08538454 114.38331054 178.09185301 124.02809057 178.09408849 133.67288071 C178.0953959 138.78306561 178.09848364 143.89323585 178.10573006 149.00341606 C178.1124875 153.80742559 178.11461753 158.61141433 178.11310768 163.41542816 C178.11338413 165.18398463 178.11539088 166.95254175 178.11920547 168.72109413 C178.12413843 171.12487473 178.12299978 173.52857557 178.12025452 175.93235779 C178.12462378 176.99605383 178.12462378 176.99605383 178.12908131 178.08123869 C178.11412121 182.88587879 178.11412121 182.88587879 177 184 C174.72176255 184.09709071 172.44044577 184.12186604 170.16014099 184.12025452 C169.43825089 184.12111053 168.71636078 184.12196655 167.97259521 184.12284851 C165.5278482 184.12451356 163.08316856 184.11896418 160.63842773 184.11352539 C158.86612735 184.1132193 157.09382685 184.11335214 155.32152653 184.11389065 C150.5583476 184.1141172 145.7951936 184.10830475 141.03202057 184.10128021 C136.56891294 184.09560194 132.1058115 184.095318 127.6427002 184.09460449 C114.57429681 184.08934889 101.50589809 184.07538785 88.4375 184.0625 C44.6609375 184.0315625 44.6609375 184.0315625 0 184 C0 123.28 0 62.56 0 0 Z " fill="#FEFEFE" transform="translate(2813,2244)"/>
<path d="M0 0 C58.41 0 116.82 0 177 0 C177.97592397 3.90369586 178.13707 7.33861971 178.12025452 11.31451416 C178.12153615 12.42219985 178.12153615 12.42219985 178.12284368 13.55226302 C178.12449116 16.02737969 178.11898907 18.50242863 178.11352539 20.97753906 C178.11324334 22.75150552 178.11340161 24.52547209 178.1139679 26.29943848 C178.11425515 31.11723998 178.10836995 35.93501666 178.10139394 40.75281239 C178.09514853 45.78700955 178.09455566 50.82120727 178.09336853 55.85540771 C178.09025873 65.3892584 178.08205005 74.92309763 178.07201904 84.45694327 C178.05875861 97.33941487 178.05335516 110.2218896 178.04751682 123.1043663 C178.03810994 143.40291945 178.01818867 163.70144843 178 184 C119.26 184 60.52 184 0 184 C0 123.28 0 62.56 0 0 Z " fill="#FEFEFE" transform="translate(2813,1665)"/>
<path d="M0 0 C58.74 0 117.48 0 178 0 C178 60.72 178 121.44 178 184 C149.3725 184.020625 120.745 184.04125 91.25 184.0625 C82.20239258 184.071604 73.15478516 184.08070801 63.83300781 184.09008789 C52.80615234 184.09460449 52.80615234 184.09460449 47.64813232 184.09544373 C44.03663522 184.09637741 40.42515274 184.10013301 36.81365967 184.10557556 C32.21059162 184.11242082 27.60754492 184.1144937 23.00447226 184.11307228 C21.31288963 184.11336963 19.62130629 184.1153607 17.92972803 184.11921513 C15.6487018 184.12417228 13.36775901 184.12299602 11.08673096 184.12025452 C9.8072823 184.12117631 8.52783363 184.1220981 7.2096138 184.12304783 C4 184 4 184 0 183 C0 122.61 0 62.22 0 0 Z " fill="#FEFEFE" transform="translate(2065,2051)"/>
<path d="M0 0 C58.74 0 117.48 0 178 0 C178 60.72 178 121.44 178 184 C135.8940625 184.0309375 135.8940625 184.0309375 92.9375 184.0625 C79.64198853 184.07615601 79.64198853 184.07615601 66.07788086 184.09008789 C55.25500488 184.09460449 55.25500488 184.09460449 50.18849182 184.09544373 C46.6496264 184.09637544 43.11077597 184.10012325 39.57191467 184.10557556 C35.05587872 184.1124411 30.53986454 184.11448993 26.02382386 184.11307228 C24.36769048 184.11336866 22.71155632 184.11534775 21.05542743 184.11921513 C18.81479189 184.12420379 16.57424046 184.12298448 14.33360291 184.12025452 C12.45176253 184.12163721 12.45176253 184.12163721 10.53190517 184.12304783 C7 184 7 184 0 183 C0 122.61 0 62.22 0 0 Z " fill="#FEFEFE" transform="translate(944,894)"/>
<path d="M0 0 C1.96756712 0.00138269 1.96756712 0.00138269 3.97488308 0.00279331 C5.0664732 0.00151167 5.0664732 0.00151167 6.18011564 0.00020415 C8.63691133 -0.00145281 11.09363987 0.00407421 13.55042934 0.00952244 C15.30424911 0.00980429 17.058069 0.00964662 18.81188869 0.00907993 C23.58854689 0.00879188 28.3651802 0.01468988 33.14183259 0.02165389 C38.12800074 0.02788611 43.1141694 0.02849112 48.10034084 0.0296793 C57.54929315 0.032793 66.99823394 0.04100692 76.44718117 0.05102879 C87.20153264 0.06218871 97.95588466 0.06770007 108.71024048 0.07272422 C130.83918682 0.0831895 152.96812279 0.1007897 175.0970602 0.12304783 C175.14979051 47.48023311 175.19286182 94.83127206 174.5970602 142.18554783 C174.4320602 156.02492283 174.2670602 169.86429783 174.0970602 184.12304783 C115.6870602 184.12304783 57.2770602 184.12304783 -2.9029398 184.12304783 C-3.0679398 160.23929783 -3.2329398 136.35554783 -3.4029398 111.74804783 C-3.45514683 104.27873631 -3.50735386 96.80942478 -3.56114292 89.11377048 C-3.62461948 79.80932713 -3.62461948 79.80932713 -3.65428257 75.41806126 C-3.67455314 72.42871787 -3.69545119 69.43937968 -3.71678257 66.45004368 C-3.785658 56.76393138 -3.84626074 47.07782358 -3.89203358 37.39157295 C-3.89950506 35.83748338 -3.90732202 34.28339545 -3.91543293 32.72930908 C-3.94056875 27.89900547 -3.96034604 23.06873506 -3.97232819 18.23838019 C-3.97682314 16.71600749 -3.98301058 15.19363877 -3.99095345 13.67128015 C-4.00146533 11.57936758 -4.00571739 9.48753556 -4.00828648 7.39560032 C-4.012131 6.20500696 -4.01597553 5.0144136 -4.01993656 3.78774166 C-3.85640809 0.06325136 -3.75414516 0.15912814 0 0 Z " fill="#FEFEFE" transform="translate(573.9029397964478,892.8769521713257)"/>
<path d="M0 0 C17.304375 -0.020625 34.60875 -0.04125 52.4375 -0.0625 C60.39895142 -0.07615601 60.39895142 -0.07615601 68.52124023 -0.09008789 C105.03614147 -0.11069262 141.47647049 0.43809955 178 1 C178 61.39 178 121.78 178 184 C119.26 184 60.52 184 0 184 C0 123.28 0 62.56 0 0 Z " fill="#FEFEFE" transform="translate(757,893)"/>
<path d="M0 0 C58.41 0 116.82 0 177 0 C177.165 15.88125 177.33 31.7625 177.5 48.125 C177.55220703 52.94883301 177.60441406 57.77266602 177.65820312 62.74267578 C178.05765659 103.16831782 178 143.56471807 178 184 C118.93 184 59.86 184 -1 184 C-0.67 123.28 -0.34 62.56 0 0 Z " fill="#FEFEFE" transform="translate(571,508)"/>
<path d="M0 0 C0 61.05 0 122.1 0 185 C-58.74 184.67 -117.48 184.34 -178 184 C-178 123.61 -178 63.22 -178 1 C-134.2234375 0.7525 -134.2234375 0.7525 -89.5625 0.5 C-80.33095947 0.44779297 -71.09941895 0.39558594 -61.58813477 0.34179688 C-50.3572998 0.27832031 -50.3572998 0.27832031 -45.10777283 0.24865723 C-41.42365003 0.22783769 -37.73952732 0.20700217 -34.05540466 0.18615723 C-29.36531013 0.15962095 -24.67521545 0.1331114 -19.98512065 0.10662174 C-18.25808992 0.09686282 -16.53105925 0.08709427 -14.80402863 0.07731533 C-12.4826389 0.0641723 -10.16124898 0.05106351 -7.83985901 0.03796387 C-6.53552194 0.03058952 -5.23118486 0.02321518 -3.88732243 0.01561737 C-1 0 -1 0 0 0 Z " fill="#FEFEFE" transform="translate(188,700)"/>
<path d="M0 0 C0 60.72 0 121.44 0 184 C-58.74 184 -117.48 184 -178 184 C-178 123.61 -178 63.22 -178 1 C-134.2234375 0.7525 -134.2234375 0.7525 -89.5625 0.5 C-80.33095947 0.44779297 -71.09941895 0.39558594 -61.58813477 0.34179688 C-50.3572998 0.27832031 -50.3572998 0.27832031 -45.10777283 0.24865723 C-41.42365003 0.22783769 -37.73952732 0.20700217 -34.05540466 0.18615723 C-29.36531013 0.15962095 -24.67521545 0.1331114 -19.98512065 0.10662174 C-18.25808992 0.09686282 -16.53105925 0.08709427 -14.80402863 0.07731533 C-12.4826389 0.0641723 -10.16124898 0.05106351 -7.83985901 0.03796387 C-6.53552194 0.03058952 -5.23118486 0.02321518 -3.88732243 0.01561737 C-1 0 -1 0 0 0 Z " fill="#FEFEFE" transform="translate(188,893)"/>
<path d="M0 0 C58.74 0 117.48 0 178 0 C178 60.39 178 120.78 178 183 C119.26 183 60.52 183 0 183 C0 122.61 0 62.22 0 0 Z " fill="#FEFEFE" transform="translate(10,1087)"/>
<path d="M0 0 C58.74 0 117.48 0 178 0 C178 60.39 178 120.78 178 183 C119.26 183 60.52 183 0 183 C0 122.61 0 62.22 0 0 Z " fill="#FEFEFE" transform="translate(1692,701)"/>
<path d="M0 0 C58.74 0 117.48 0 178 0 C178 60.39 178 120.78 178 183 C119.26 183 60.52 183 0 183 C0 122.61 0 62.22 0 0 Z " fill="#FEFEFE" transform="translate(1505,701)"/>
<path d="M0 0 C58.74 0 117.48 0 178 0 C178 60.39 178 120.78 178 183 C119.26 183 60.52 183 0 183 C0 122.61 0 62.22 0 0 Z " fill="#FEFEFE" transform="translate(944,701)"/>
<path d="M0 0 C58.41 0 116.82 0 177 0 C177 60.72 177 121.44 177 184 C118.59 184 60.18 184 0 184 C0 123.28 0 62.56 0 0 Z " fill="#FEFEFE" transform="translate(571,2630)"/>
<path d="M0 0 C58.41 0 116.82 0 177 0 C177 60.72 177 121.44 177 184 C118.59 184 60.18 184 0 184 C0 123.28 0 62.56 0 0 Z " fill="#FEFEFE" transform="translate(571,2437)"/>
<path d="M0 0 C58.41 0 116.82 0 177 0 C177 60.72 177 121.44 177 184 C118.59 184 60.18 184 0 184 C0 123.28 0 62.56 0 0 Z " fill="#FEFEFE" transform="translate(571,2244)"/>
<path d="M0 0 C58.41 0 116.82 0 177 0 C177 60.72 177 121.44 177 184 C118.59 184 60.18 184 0 184 C0 123.28 0 62.56 0 0 Z " fill="#FEFEFE" transform="translate(571,1472)"/>
<path d="M0 0 C1.30341528 0.00184359 2.60683056 0.00368717 3.94974327 0.00558662 C5.0364897 0.00302335 5.0364897 0.00302335 6.1451906 0.00040829 C8.58513522 -0.00289923 11.0248079 0.00813764 13.4647274 0.01904488 C15.20884253 0.01960872 16.95295813 0.01929296 18.69707298 0.01815987 C23.44271225 0.0175843 28.18825112 0.02937154 32.93386698 0.04330778 C37.88932891 0.05578122 42.84479296 0.05698296 47.80026817 0.0593586 C57.18899678 0.06558335 66.577679 0.08200759 75.96638715 0.10205758 C88.64993281 0.12855785 101.33349108 0.13938118 114.01705742 0.15106201 C134.00794963 0.16988751 153.99874394 0.20972655 173.98962975 0.24609566 C173.98962975 53.04609566 173.98962975 105.84609566 173.98962975 160.24609566 C168.04962975 162.72109566 168.04962975 162.72109566 161.98962975 165.24609566 C153.6393265 170.58481413 153.01524773 175.19485968 147.98962975 185.24609566 C97.82962975 185.24609566 47.66962975 185.24609566 -4.01037025 185.24609566 C-4.34175076 139.4349801 -4.34175076 139.4349801 -4.46349525 120.29297066 C-4.54777649 107.05626897 -4.63418396 93.81960457 -4.73400307 80.58300972 C-4.80667913 70.94448179 -4.87235058 61.30593633 -4.92951429 51.66730344 C-4.96004566 46.56095112 -4.99414978 41.45467768 -5.03663445 36.34840965 C-5.07647309 31.5468899 -5.1069795 26.74540325 -5.13018417 21.94377518 C-5.14039282 20.17722851 -5.15407434 18.41069814 -5.17140579 16.644207 C-5.19447835 14.24074765 -5.20529496 11.83754292 -5.21291542 9.43399239 C-5.22263205 8.72777453 -5.23234868 8.02155668 -5.24235976 7.29393828 C-5.23872475 2.61848634 -5.16619913 0.42233316 0 0 Z " fill="#FEFEFE" transform="translate(1696.0103702545166,313.75390434265137)"/>
<path d="M0 0 C1.96756712 0.00138269 1.96756712 0.00138269 3.97488308 0.00279331 C5.0664732 0.00151167 5.0664732 0.00151167 6.18011564 0.00020415 C8.63691133 -0.00145281 11.09363987 0.00407421 13.55042934 0.00952244 C15.30424911 0.00980429 17.058069 0.00964662 18.81188869 0.00907993 C23.58854689 0.00879188 28.3651802 0.01468988 33.14183259 0.02165389 C38.12800074 0.02788611 43.1141694 0.02849112 48.10034084 0.0296793 C57.54929315 0.032793 66.99823394 0.04100692 76.44718117 0.05102879 C89.21065337 0.0642736 101.97412871 0.06968952 114.73760605 0.07553101 C134.85743273 0.08494678 154.97723512 0.10486544 175.0970602 0.12304783 C175.0970602 51.93304783 175.0970602 103.74304783 175.0970602 157.12304783 C170.4770602 159.43304783 165.8570602 161.74304783 161.0970602 164.12304783 C155.1298745 169.67870348 152.00676907 176.23789805 150.0970602 184.12304783 C130.16565065 184.27679833 110.23420655 184.42483557 90.30270386 184.56601143 C81.0488307 184.63169131 71.79497849 184.69926337 62.541152 184.77124119 C54.47852276 184.83394892 46.41587685 184.89315615 38.35319084 184.94810337 C34.08135797 184.97733967 29.80955457 185.00836709 25.53776646 185.04358196 C21.52172884 185.07663334 17.50568596 185.10502454 13.48958874 185.12975407 C12.01128079 185.13969442 10.53298342 185.15137568 9.05470371 185.16487789 C7.04510088 185.18297946 5.03544078 185.19436114 3.0257864 185.20533848 C1.33475717 185.21778268 1.33475717 185.21778268 -0.39043427 185.23047829 C-2.9029398 185.12304783 -2.9029398 185.12304783 -3.9029398 184.12304783 C-4.00279248 181.75987314 -4.03736623 179.42586988 -4.02992344 177.06213474 C-4.03148343 176.3146958 -4.03304342 175.56725686 -4.03465068 174.79716825 C-4.03866348 172.27361371 -4.03546997 169.75011853 -4.03233433 167.22656345 C-4.03368825 165.42510537 -4.03546812 163.62364756 -4.03764439 161.82219028 C-4.04221986 156.91530719 -4.0404287 152.00844502 -4.0372653 147.10156155 C-4.03474228 141.97839264 -4.03707907 136.85522559 -4.03865147 131.73205662 C-4.04047333 123.12686941 -4.03806641 114.52169077 -4.03331089 105.91650486 C-4.02786824 95.95255582 -4.02963088 85.98862725 -4.0351373 76.02467871 C-4.03966794 67.48628294 -4.04031921 58.94789336 -4.03769863 50.40949678 C-4.03613558 45.30268328 -4.03594283 40.1958794 -4.03923512 35.08906651 C-4.04211312 30.2891433 -4.04013944 25.48924661 -4.03434086 20.68932629 C-4.03301288 18.92238312 -4.03340801 17.15543775 -4.03560352 15.38849545 C-4.03831356 12.9869533 -4.03493572 10.58549748 -4.02992344 8.18396091 C-4.03215416 7.47551234 -4.03438488 6.76706376 -4.0366832 6.03714705 C-4.01273369 0.17008901 -4.01273369 0.17008901 0 0 Z " fill="#FEFEFE" transform="translate(1881.9029397964478,1278.8769521713257)"/>
<path d="M0 0 C1.11997848 0.00092179 2.23995695 0.00184359 3.39387417 0.00279331 C5.31436329 0.00073132 5.31436329 0.00073132 7.27365017 -0.00137234 C8.70568775 0.00216728 10.1377251 0.0058021 11.56976223 0.00952244 C13.06742762 0.0098043 14.56509314 0.00964659 16.06275845 0.00907993 C20.14109356 0.00879192 24.21939951 0.01468919 28.29772782 0.02165389 C32.55518812 0.02788687 36.81264902 0.02849118 41.07011318 0.0296793 C49.13784371 0.03279278 57.20556075 0.04100639 65.27328533 0.05102879 C74.45571963 0.06218941 83.63815456 0.06770025 92.82059395 0.07272422 C111.71477424 0.08318899 130.60894196 0.10078875 149.50311184 0.12304783 C149.83287014 0.93854099 150.16262844 1.75403416 150.50237942 2.59423923 C151.16209743 4.20564793 151.16209743 4.20564793 151.83514309 5.84961033 C152.26802639 6.91260349 152.70090969 7.97559666 153.14691067 9.07080173 C157.74904284 19.42829164 165.20589544 24.00416127 175.50311184 28.12304783 C175.50311184 79.60304783 175.50311184 131.08304783 175.50311184 184.12304783 C130.90556542 184.4141253 130.90556542 184.4141253 112.27850246 184.5273447 C99.39509969 184.60570032 86.5117095 184.68512151 73.62835598 184.77124119 C64.24728046 184.8339449 54.86619062 184.8931524 45.48506635 184.94810337 C40.51459505 184.9773421 35.54414905 185.00837095 30.57371616 185.04358196 C25.90105483 185.07662842 21.22838897 185.10502117 16.55567646 185.12975407 C14.83548674 185.13969605 13.11530612 185.15137793 11.39514065 185.16487789 C9.05707082 185.182974 6.71904961 185.19496361 4.38093472 185.20533848 C3.0692233 185.21363461 1.75751188 185.22193075 0.40605164 185.23047829 C-2.49688816 185.12304783 -2.49688816 185.12304783 -3.49688816 184.12304783 C-3.59674085 181.75987314 -3.6313146 179.42586988 -3.6238718 177.06213474 C-3.62543179 176.3146958 -3.62699178 175.56725686 -3.62859905 174.79716825 C-3.63261184 172.27361371 -3.62941834 169.75011853 -3.62628269 167.22656345 C-3.62763661 165.42510537 -3.62941649 163.62364756 -3.63159275 161.82219028 C-3.63616822 156.91530719 -3.63437706 152.00844502 -3.63121367 147.10156155 C-3.62869065 141.97839264 -3.63102744 136.85522559 -3.63259983 131.73205662 C-3.6344217 123.12686941 -3.63201477 114.52169077 -3.62725925 105.91650486 C-3.6218166 95.95255582 -3.62357925 85.98862725 -3.62908566 76.02467871 C-3.6336163 67.48628294 -3.63426758 58.94789336 -3.63164699 50.40949678 C-3.63008395 45.30268328 -3.62989119 40.1958794 -3.63318348 35.08906651 C-3.63606149 30.2891433 -3.6340878 25.48924661 -3.62828922 20.68932629 C-3.62696125 18.92238312 -3.62735637 17.15543775 -3.62955189 15.38849545 C-3.63226193 12.9869533 -3.62888409 10.58549748 -3.6238718 8.18396091 C-3.62610252 7.47551234 -3.62833325 6.76706376 -3.63063157 6.03714705 C-3.60671329 0.17774054 -3.60671329 0.17774054 0 0 Z " fill="#FEFEFE" transform="translate(1881.4968881607056,1471.8769521713257)"/>
<path d="M0 0 C2.72729618 -0.03213685 5.41302174 -0.00481537 8.13551331 0.07402039 C9.65823336 0.07739324 11.1809706 0.0759162 12.7036829 0.07000256 C16.76974942 0.06752616 20.83223082 0.13110467 24.89745331 0.20871735 C28.71662244 0.27152887 32.53493515 0.27431939 36.35462952 0.28215027 C47.51196197 0.33979151 58.66863202 0.49336603 69.82521057 0.63529968 C94.76083557 0.86217468 119.69646057 1.08904968 145.38771057 1.32279968 C145.38771057 62.04279968 145.38771057 122.76279968 145.38771057 185.32279968 C86.64771057 185.32279968 27.90771057 185.32279968 -32.61228943 185.32279968 C-32.61228943 131.53279968 -32.61228943 77.74279968 -32.61228943 22.32279968 C-28.98228943 21.00279968 -25.35228943 19.68279968 -21.61228943 18.32279968 C-15.92621538 14.89443151 -13.68226799 12.59489214 -10.7996521 6.68600464 C-7.72893422 1.80378772 -5.74773174 0.52022705 0 0 Z " fill="#FEFEFE" transform="translate(789.6122894287109,2049.677200317383)"/>
<path d="M0 0 C48.84 0 97.68 0 148 0 C148 61.05 148 122.1 148 185 C89.26 185 30.52 185 -30 185 C-30 133.19 -30 81.38 -30 28 C-26.04 26.68 -22.08 25.36 -18 24 C-7.19058369 18.04096281 -3.89122476 11.67367428 0 0 Z " fill="#FEFEFE" transform="translate(1348,1665)"/>
<path d="M0 0 C58.74 0 117.48 0 178 0 C178 51.48 178 102.96 178 156 C173.38 158.31 168.76 160.62 164 163 C158.92860262 167.72164584 156.48753158 172.60025966 154 179 C153.34 180.65 152.68 182.3 152 184 C101.84 184 51.68 184 0 184 C0 123.28 0 62.56 0 0 Z " fill="#FEFEFE" transform="translate(1131,1472)"/>
<path d="M0 0 C2.74463118 -0.0292414 5.45534145 -0.00419072 8.19607544 0.06729126 C9.72868661 0.0703566 11.2613119 0.06901626 12.7939167 0.06363869 C16.89085277 0.06138502 20.9848556 0.11923947 25.08110046 0.18974304 C28.92770397 0.24679008 32.77360219 0.24937855 36.62063599 0.25650024 C47.86247818 0.3089276 59.10377699 0.4485404 70.34500122 0.57754517 C95.46625122 0.78379517 120.58750122 0.99004517 146.47000122 1.20254517 C146.47000122 61.59254517 146.47000122 121.98254517 146.47000122 184.20254517 C87.73000122 184.20254517 28.99000122 184.20254517 -31.52999878 184.20254517 C-31.52999878 130.74254517 -31.52999878 77.28254517 -31.52999878 22.20254517 C-27.56999878 20.55254517 -23.60999878 18.90254517 -19.52999878 17.20254517 C-14.54598449 13.7458901 -12.66515059 11.53288688 -10.25506592 6.06646729 C-7.44515384 1.35367776 -5.43144107 0.44909861 0 0 Z " fill="#FEFEFE" transform="translate(415.5299987792969,1085.7974548339844)"/>
<path d="M0 0 C50.49 0 100.98 0 153 0 C154.98 3.63 156.96 7.26 159 11 C164.88771795 17.35873538 169.25398696 18.3558279 178 22 C178 75.46 178 128.92 178 184 C119.26 183.67 60.52 183.34 0 183 C0 122.61 0 62.22 0 0 Z " fill="#FEFEFE" transform="translate(2252,894)"/>
<path d="M0 0 C36.9084375 -0.3403125 36.9084375 -0.3403125 74.5625 -0.6875 C82.32982666 -0.78764404 90.09715332 -0.88778809 98.09985352 -0.9909668 C107.58972168 -1.04064941 107.58972168 -1.04064941 112.03330994 -1.04988098 C115.13555032 -1.06012576 118.23571764 -1.10131525 121.33738708 -1.16133118 C125.29745138 -1.23693859 129.25451365 -1.25938156 133.21523273 -1.24379504 C134.66639114 -1.2470523 136.11765709 -1.26879242 137.56819451 -1.31136644 C141.92648282 -1.43331442 145.84336898 -1.37489662 150 0 C152.51099255 2.61049351 154.03048999 5.06236728 155.62066555 8.30806255 C159.79329481 16.45145153 169.0204034 18.67516808 177 22 C177 75.46 177 128.92 177 184 C118.59 184 60.18 184 0 184 C0 123.28 0 62.56 0 0 Z " fill="#FEFEFE" transform="translate(571,2051)"/>
<path d="M0 0 C49.83 0 99.66 0 151 0 C152.98 5.94 152.98 5.94 155 12 C160.70151664 22.34228599 167.01659898 25.88122462 178 30 C178 80.82 178 131.64 178 184 C119.26 184 60.52 184 0 184 C0 123.28 0 62.56 0 0 Z " fill="#FEFEFE" transform="translate(1692,508)"/>
<path d="M0 0 C49.83 0 99.66 0 151 0 C151 60.72 151 121.44 151 184 C92.26 184 33.52 184 -27 184 C-27 133.18 -27 82.36 -27 30 C-23.04 28.35 -19.08 26.7 -15 25 C-6.04497584 19.07812918 -2.8725105 10.05378673 0 0 Z " fill="#FEFEFE" transform="translate(411,508)"/>
<path d="M0 0 C36.9084375 -0.3403125 36.9084375 -0.3403125 74.5625 -0.6875 C82.32982666 -0.78764404 90.09715332 -0.88778809 98.09985352 -0.9909668 C107.58972168 -1.04064941 107.58972168 -1.04064941 112.03330994 -1.04988098 C115.13555032 -1.06012576 118.23571764 -1.10131525 121.33738708 -1.16133118 C125.29745138 -1.23693859 129.25451365 -1.25938156 133.21523273 -1.24379504 C134.66639114 -1.2470523 136.11765709 -1.26879242 137.56819451 -1.31136644 C141.92651035 -1.43331519 145.84331912 -1.37480226 150 0 C152.51302091 2.61013249 154.03414379 5.06231681 155.62676907 8.30806255 C159.97576888 16.83338424 169.57148676 18.75826414 178 22 C178 75.13 178 128.26 178 183 C119.26 183 60.52 183 0 183 C0 122.61 0 62.22 0 0 Z " fill="#FEFEFE" transform="translate(197,1087)"/>
<path d="M0 0 C58.74 0 117.48 0 178 0 C178 60.72 178 121.44 178 184 C128.5 184 79 184 28 184 C26.02 178.06 26.02 178.06 24 172 C18.04096281 161.19058369 11.67367428 157.89122476 0 154 C0 103.18 0 52.36 0 0 Z " fill="#FEFEFE" transform="translate(1505,2051)"/>
<path d="M0 0 C58.74 0 117.48 0 178 0 C178 60.72 178 121.44 178 184 C129.49 184 80.98 184 31 184 C29.68 180.37 28.36 176.74 27 173 C20.31513001 162.01771359 12.30922445 159.35706121 0 156 C0 104.52 0 53.04 0 0 Z " fill="#FEFEFE" transform="translate(2065,1279)"/>
<path d="M0 0 C58.74 0 117.48 0 178 0 C178 50.49 178 100.98 178 153 C172.06 155.475 172.06 155.475 166 158 C155.46066531 164.47416274 152.52508923 172.24970256 149 184 C99.83 184 50.66 184 0 184 C0 123.28 0 62.56 0 0 Z " fill="#FEFEFE" transform="translate(1318,2051)"/>
<path d="M0 0 C58.74 0 117.48 0 178 0 C178 60.72 178 121.44 178 184 C129.49 184 80.98 184 31 184 C29.35 180.04 27.7 176.08 26 172 C19.52583726 161.46066531 11.75029744 158.52508923 0 155 C0 103.85 0 52.7 0 0 Z " fill="#FEFEFE" transform="translate(1318,1472)"/>
<path d="M0 0 C1.30341528 0.00184359 2.60683056 0.00368717 3.94974327 0.00558662 C4.6724894 0.00387459 5.39523552 0.00216255 6.13988304 0.00039864 C8.58159655 -0.00292507 11.02303876 0.00815666 13.4647274 0.01904488 C15.23714947 0.01965721 17.00957202 0.01939113 18.78199387 0.01831436 C23.54100025 0.01786168 28.29990665 0.02947779 33.05888939 0.04353523 C37.51977425 0.05490057 41.98063444 0.05546013 46.44153404 0.05688667 C59.49924592 0.0673935 72.55693909 0.09531564 85.61462975 0.12109566 C114.77837975 0.16234566 143.94212975 0.20359566 173.98962975 0.24609566 C173.98962975 60.96609566 173.98962975 121.68609566 173.98962975 184.24609566 C124.15962975 184.24609566 74.32962975 184.24609566 22.98962975 184.24609566 C21.99962975 179.95609566 21.00962975 175.66609566 19.98962975 171.24609566 C15.38078215 161.92121796 10.4271294 156.84479602 0.72400475 153.08203316 C-0.16577065 152.73446968 -1.05554604 152.3869062 -1.97228432 152.0288105 C-2.64485268 151.7705146 -3.31742104 151.5122187 -4.01037025 151.24609566 C-4.18750445 131.85354263 -4.35318758 112.46092425 -4.50514603 93.0681572 C-4.57596758 84.06426298 -4.65057116 75.06042946 -4.73400307 66.05664253 C-4.80669182 58.21120624 -4.87236117 50.3657484 -4.92951429 42.52018297 C-4.9600388 38.36397111 -4.9941371 34.20785639 -5.03663445 30.05174828 C-5.0764893 26.14323838 -5.10698804 22.23476928 -5.13018417 18.3261261 C-5.14038825 16.88853561 -5.1540665 15.45096513 -5.17140579 14.01344299 C-5.19449693 12.05678962 -5.20409319 10.09999063 -5.21291542 8.1432209 C-5.22213335 7.04628725 -5.23135128 5.9493536 -5.24084854 4.81917953 C-4.89222316 0.92708908 -3.82629133 0.31279663 0 0 Z " fill="#FEFEFE" transform="translate(388.0103702545166,892.7539043426514)"/>
<path d="M0 0 C58.41 0 116.82 0 177 0 C177 54.12 177 108.24 177 164 C171.06 166.475 171.06 166.475 165 169 C159.63972061 172.06057238 159.63972061 172.06057238 156.23936176 176.90537262 C155.10730006 179.48930205 154.09065389 181.08620271 152 183 C147.20117825 184.21606126 142.39533428 184.01119262 137.47924805 183.90820312 C135.95677002 183.90575151 134.43428289 183.90682199 132.91180897 183.91112518 C128.8380359 183.91292981 124.76614653 183.86660419 120.69281769 183.8102417 C116.8692488 183.76464431 113.04613555 183.76253519 109.22229004 183.75683594 C98.04377761 183.71487487 86.86561494 183.60318506 75.6875 183.5 C50.710625 183.335 25.73375 183.17 0 183 C0 122.61 0 62.22 0 0 Z " fill="#FEFEFE" transform="translate(571,1087)"/>
<path d="M0 0 C48.51 0 97.02 0 147 0 C147 60.72 147 121.44 147 184 C88.26 184 29.52 184 -31 184 C-31 133.18 -31 82.36 -31 30 C-27.04 28.515 -27.04 28.515 -23 27 C-12.26349092 22.43238978 -6.3616217 17.96345325 -1.76171875 7.2109375 C-0.79961536 4.5786891 -0.79961536 4.5786891 0 0 Z " fill="#FEFEFE" transform="translate(2096,1472)"/>
<path d="M0 0 C48.84 0 97.68 0 148 0 C149.98 5.94 149.98 5.94 152 12 C158.34499364 23.50952335 165.38053677 26.41110428 178 31 C178 81.49 178 131.98 178 184 C119.26 184 60.52 184 0 184 C0 123.28 0 62.56 0 0 Z " fill="#FEFEFE" transform="translate(197,508)"/>
<path d="M0 0 C1.06609002 -0.00128164 1.06609002 -0.00128164 2.15371722 -0.00258917 C4.52899224 -0.00423285 6.90419623 0.00125917 9.27946472 0.00672913 C10.98461404 0.00701126 12.68976347 0.00685274 14.39491272 0.00628662 C19.02051282 0.00599968 23.64608699 0.01187971 28.27168107 0.01886058 C33.10701252 0.02511132 37.94234457 0.02569928 42.77767944 0.02688599 C51.93254621 0.02999422 61.08740103 0.03820078 70.24226254 0.04823548 C82.61431102 0.06150222 94.98636276 0.06690062 107.35841656 0.07273769 C126.84927945 0.08214099 146.34011714 0.10206332 165.83097839 0.12025452 C165.83097839 49.62025452 165.83097839 99.12025452 165.83097839 150.12025452 C161.54097839 151.77025452 157.25097839 153.42025452 152.83097839 155.12025452 C145.70699023 159.43478256 142.53055622 163.63506216 138.83097839 171.12025452 C137.84097839 175.41025452 136.85097839 179.70025452 135.83097839 184.12025452 C86.99097839 184.12025452 38.15097839 184.12025452 -12.16902161 184.12025452 C-12.16902161 123.73025452 -12.16902161 63.34025452 -12.16902161 1.12025452 C-7.85040849 0.25653189 -4.36449375 -0.00316497 0 0 Z " fill="#FEFEFE" transform="translate(209.1690216064453,892.8797454833984)"/>
<path d="M0 0 C58.74 0 117.48 0 178 0 C178 49.83 178 99.66 178 151 C173.38 153.31 168.76 155.62 164 158 C156.35101685 165.12146707 154.24509131 172.89708909 152 183 C101.84 183 51.68 183 0 183 C0 122.61 0 62.22 0 0 Z " fill="#FEFEFE" transform="translate(1131,701)"/>
<path d="M0 0 C58.74 0 117.48 0 178 0 C178 49.83 178 99.66 178 151 C172.06 153.475 172.06 153.475 166 156 C156.31002334 162.40788779 153.44430457 172.00062942 151 183 C101.17 183 51.34 183 0 183 C0 122.61 0 62.22 0 0 Z " fill="#FEFEFE" transform="translate(2252,701)"/>
<path d="M0 0 C58.74 0 117.48 0 178 0 C178 60.39 178 120.78 178 183 C129.16 183 80.32 183 30 183 C29.01 179.04 28.02 175.08 27 171 C20.46855867 157.93711735 14.22729442 155.47203632 0 150 C0 100.5 0 51 0 0 Z " fill="#FEFEFE" transform="translate(2439,701)"/>
<path d="M0 0 C58.74 0 117.48 0 178 0 C178 60.39 178 120.78 178 183 C129.49 183 80.98 183 31 183 C30.01 179.04 29.02 175.08 28 171 C22.62670638 160.25341276 16.73163486 155.54357893 5.41796875 151.76171875 C4.62003906 151.51035156 3.82210938 151.25898437 3 151 C2.01 150.67 1.02 150.34 0 150 C0 100.5 0 51 0 0 Z " fill="#FEFEFE" transform="translate(1318,701)"/>
<path d="M0 0 C48.84 0 97.68 0 148 0 C148.99 6.93 148.99 6.93 150 14 C154.09015278 23.89246255 157.87822097 29.78878771 167.625 34.25 C169.07747556 34.84776972 170.5360283 35.43096506 172 36 C173.65 36.66 175.3 37.32 177 38 C177 86.18 177 134.36 177 184 C118.59 184 60.18 184 0 184 C0 123.28 0 62.56 0 0 Z " fill="#FEFEFE" transform="translate(571,1279)"/>
<path d="M0 0 C53.13 0 106.26 0 161 0 C157.535 6.93 157.535 6.93 154 14 C151.51278245 23.94887019 153.32122657 32.34371933 158.25 41.26171875 C163.06111521 48.43738775 170.15897878 51.86359151 178 55 C178 97.57 178 140.14 178 184 C119.26 184 60.52 184 0 184 C-1.47449012 181.05101976 -1.11358755 178.08071546 -1.08229065 174.85006714 C-1.07906152 174.10515176 -1.07583239 173.36023638 -1.07250541 172.59274781 C-1.06039181 170.08375349 -1.04102705 167.57486657 -1.02172852 165.06591797 C-1.0115898 163.27254472 -1.00189569 161.47916891 -0.99261475 159.68579102 C-0.96609293 154.80586465 -0.9333218 149.92599756 -0.89946485 145.04611731 C-0.86516215 139.95053521 -0.83655656 134.8549213 -0.80735779 129.75930786 C-0.75116523 120.104954 -0.68981707 110.45064 -0.62663645 100.79632962 C-0.54158014 87.75404985 -0.46444762 74.71172342 -0.38688183 61.66939735 C-0.26441761 41.11288724 -0.13133182 20.5564598 0 0 Z " fill="#FEFEFE" transform="translate(1879,2244)"/>
<path d="M0 0 C58.74 0 117.48 0 178 0 C178 58.41 178 116.82 178 177 C119.26 177 60.52 177 0 177 C0 118.59 0 60.18 0 0 Z " fill="#FEFEFE" transform="translate(2813,2823)"/>
<path d="M0 0 C58.74 0 117.48 0 178 0 C178 58.41 178 116.82 178 177 C119.26 177 60.52 177 0 177 C0 118.59 0 60.18 0 0 Z " fill="#FFFFFF" transform="translate(2626,2823)"/>
<path d="M0 0 C58.74 0 117.48 0 178 0 C178 58.41 178 116.82 178 177 C119.26 177 60.52 177 0 177 C0 118.59 0 60.18 0 0 Z " fill="#FEFEFE" transform="translate(2439,2823)"/>
<path d="M0 0 C58.74 0 117.48 0 178 0 C178 58.41 178 116.82 178 177 C119.26 177 60.52 177 0 177 C0 118.59 0 60.18 0 0 Z " fill="#FFFFFF" transform="translate(2252,2823)"/>
<path d="M0 0 C58.74 0 117.48 0 178 0 C178 58.41 178 116.82 178 177 C119.26 177 60.52 177 0 177 C0 118.59 0 60.18 0 0 Z " fill="#FEFEFE" transform="translate(1879,2823)"/>
<path d="M0 0 C58.74 0 117.48 0 178 0 C178 58.41 178 116.82 178 177 C119.26 177 60.52 177 0 177 C0 118.59 0 60.18 0 0 Z " fill="#FEFEFE" transform="translate(1692,2823)"/>
<path d="M0 0 C58.74 0 117.48 0 178 0 C178 58.41 178 116.82 178 177 C119.26 177 60.52 177 0 177 C0 118.59 0 60.18 0 0 Z " fill="#FFFFFF" transform="translate(1505,2823)"/>
<path d="M0 0 C58.74 0 117.48 0 178 0 C178 58.41 178 116.82 178 177 C119.26 177 60.52 177 0 177 C0 118.59 0 60.18 0 0 Z " fill="#FEFEFE" transform="translate(1318,2823)"/>
<path d="M0 0 C58.74 0 117.48 0 178 0 C178 58.41 178 116.82 178 177 C119.26 177 60.52 177 0 177 C0 118.59 0 60.18 0 0 Z " fill="#FFFFFF" transform="translate(1131,2823)"/>
<path d="M0 0 C58.74 0 117.48 0 178 0 C178 58.41 178 116.82 178 177 C119.26 177 60.52 177 0 177 C0 118.59 0 60.18 0 0 Z " fill="#FEFEFE" transform="translate(944,2823)"/>
<path d="M0 0 C58.74 0 117.48 0 178 0 C178 58.41 178 116.82 178 177 C119.26 177 60.52 177 0 177 C0 118.59 0 60.18 0 0 Z " fill="#FEFEFE" transform="translate(757,2823)"/>
<path d="M0 0 C58.74 0 117.48 0 178 0 C178 58.41 178 116.82 178 177 C119.26 177 60.52 177 0 177 C0 118.59 0 60.18 0 0 Z " fill="#FEFEFE" transform="translate(384,2823)"/>
<path d="M0 0 C58.74 0 117.48 0 178 0 C178 58.41 178 116.82 178 177 C119.26 177 60.52 177 0 177 C0 118.59 0 60.18 0 0 Z " fill="#FEFEFE" transform="translate(197,2823)"/>
<path d="M0 0 C58.74 0 117.48 0 178 0 C178 58.41 178 116.82 178 177 C119.26 177 60.52 177 0 177 C0 118.59 0 60.18 0 0 Z " fill="#FEFEFE" transform="translate(10,2823)"/>
<path d="M0 0 C58.74 0 117.48 0 178 0 C178 58.41 178 116.82 178 177 C119.26 177 60.52 177 0 177 C0 118.59 0 60.18 0 0 Z " fill="#FEFEFE" transform="translate(2065,2823)"/>
<path d="M0 0 C58.41 0 116.82 0 177 0 C177 58.41 177 116.82 177 177 C118.59 177 60.18 177 0 177 C0 118.59 0 60.18 0 0 Z " fill="#FEFEFE" transform="translate(571,2823)"/>
<path d="M0 0 C51.15 0 102.3 0 155 0 C155 60.72 155 121.44 155 184 C125.815625 184.020625 96.63125 184.04125 66.5625 184.0625 C57.33095947 184.071604 48.09941895 184.08070801 38.58813477 184.09008789 C27.3572998 184.09460449 27.3572998 184.09460449 22.10777283 184.09544373 C18.42364404 184.09637932 14.73952951 184.10014236 11.05540466 184.10557556 C6.36530452 184.11240141 1.6752253 184.11449736 -3.01487935 184.11307228 C-4.74191121 184.11337055 -6.46894376 184.11537303 -8.19597137 184.11921513 C-10.51738829 184.12414225 -12.83872243 184.12300726 -15.16014099 184.12025452 C-16.46447806 184.12117631 -17.76881514 184.1220981 -19.11267757 184.12304783 C-22 184 -22 184 -23 183 C-23.09605864 181.36776544 -23.12187821 179.7313561 -23.12025452 178.09629822 C-23.12162918 177.03474014 -23.12300385 175.97318207 -23.12442017 174.87945557 C-23.12082489 173.70485779 -23.11722961 172.53026001 -23.11352539 171.32006836 C-23.11367142 170.09097244 -23.11381744 168.86187653 -23.1139679 167.59553528 C-23.11338892 164.21551328 -23.10835964 160.83555171 -23.10139394 157.45554042 C-23.09515988 153.92678806 -23.09455656 150.39803497 -23.09336853 146.86927795 C-23.09025537 140.18276881 -23.08204218 133.49627594 -23.07201904 126.80977398 C-23.06085744 119.19925697 -23.05534733 111.5887392 -23.05032361 103.97821605 C-23.03985956 88.31880126 -23.02226041 72.65940273 -23 57 C-22.45957062 56.79920837 -21.91914124 56.59841675 -21.36233521 56.39154053 C-20.64866791 56.12536926 -19.93500061 55.859198 -19.19970703 55.58496094 C-18.49427765 55.32229431 -17.78884827 55.05962769 -17.06204224 54.78900146 C-6.58774744 50.78121065 0.53618703 46.6077329 5.3125 36.3125 C9.19678 27.08528634 8.8280314 19.05425673 5.265625 9.73828125 C3.71738126 6.38853167 1.83087241 3.20402671 0 0 Z " fill="#FEFEFE" transform="translate(2088,2244)"/>
<path d="M0 0 C58.74 0 117.48 0 178 0 C178 37.29 178 74.58 178 113 C118.93 113 59.86 113 -1 113 C-1 75.33185844 -0.64935421 37.6625441 0 0 Z " fill="#FEFEFE" transform="translate(1879,0)"/>
<path d="M0 0 C1.95650561 0.00138269 1.95650561 0.00138269 3.95253658 0.00279331 C5.03800137 0.00151167 5.03800137 0.00151167 6.14539474 0.00020415 C8.58837104 -0.00145279 11.03127979 0.00407418 13.47424984 0.00952244 C15.21821752 0.00980429 16.96218531 0.00964662 18.70615292 0.00907993 C23.45595252 0.00879188 28.2057271 0.01468986 32.95552087 0.02165389 C37.91366179 0.02788614 42.87180323 0.02849112 47.82994747 0.0296793 C57.22577585 0.032793 66.62159266 0.0410069 76.01741594 0.05102879 C86.71130907 0.06218873 97.40520274 0.06770008 108.09910023 0.07272422 C130.10363248 0.08318948 152.1081543 0.10078967 174.11267757 0.12304783 C174.13569404 2.12835705 174.15871041 4.13366627 174.18172646 6.1389755 C174.20231749 7.93293966 174.2229099 9.72690381 174.24350357 11.52086794 C174.30055081 16.49057328 174.35757316 21.4602789 174.41454983 26.42998505 C174.52146029 35.75309919 174.62865501 45.0762094 174.73738766 54.39930248 C174.78045863 58.11575604 174.82242549 61.8322214 174.86402035 65.54869175 C174.88437549 67.34601982 174.90522803 69.14334231 174.92652035 70.94065952 C174.93735653 71.85835621 174.94819271 72.77605289 174.95935726 73.72155857 C174.96896481 74.52363995 174.97857235 75.32572132 174.98847103 76.15210819 C175.11742698 88.47939214 175.11267757 100.79191051 175.11267757 113.12304783 C116.04267757 113.12304783 56.97267757 113.12304783 -3.88732243 113.12304783 C-3.90794743 94.66367283 -3.92857243 76.20429783 -3.94982243 57.18554783 C-3.95892643 51.34746433 -3.96803043 45.50938084 -3.97741032 39.49438572 C-3.98192692 32.38952732 -3.98192692 32.38952732 -3.98276615 29.06810093 C-3.98430618 26.73814294 -3.9878323 24.40818576 -3.99289799 22.07823277 C-4.00017166 18.55808207 -4.00122997 15.03798026 -4.00084782 11.51782322 C-4.00444592 10.47216474 -4.00804403 9.42650625 -4.01175117 8.34916115 C-4.01037368 7.40737227 -4.00899618 6.4655834 -4.00757694 5.49525547 C-4.00849874 4.67025075 -4.00942053 3.84524603 -4.01037025 2.99524117 C-3.8050999 -0.12798167 -3.16946796 0.13507191 0 0 Z " fill="#FEFEFE" transform="translate(2068.8873224258423,-0.1230478286743164)"/>
<path d="M0 0 C58.74 0 117.48 0 178 0 C178.33 37.29 178.66 74.58 179 113 C119.93 113 60.86 113 0 113 C0 75.71 0 38.42 0 0 Z " fill="#FEFEFE" transform="translate(2252,0)"/>
<path d="M0 0 C58.74 0 117.48 0 178 0 C178 37.29 178 74.58 178 113 C118.93 113 59.86 113 -1 113 C-0.67 75.71 -0.34 38.42 0 0 Z " fill="#FEFEFE" transform="translate(2626,0)"/>
<path d="M0 0 C58.74 0 117.48 0 178 0 C178 37.29 178 74.58 178 113 C119.26 113 60.52 113 0 113 C0 75.71 0 38.42 0 0 Z " fill="#FEFEFE" transform="translate(2813,0)"/>
<path d="M0 0 C58.74 0 117.48 0 178 0 C178 37.29 178 74.58 178 113 C119.26 113 60.52 113 0 113 C0 75.71 0 38.42 0 0 Z " fill="#FFFFFF" transform="translate(2439,0)"/>
<path d="M0 0 C0.33 0 0.66 0 1 0 C1 2.97 1 5.94 1 9 C3.1346875 8.87625 3.1346875 8.87625 5.3125 8.75 C14.6465953 8.7764048 23.35186466 12.43934013 30 19 C36.16762074 26.42917953 39.69513857 34.66112017 39.34765625 44.390625 C38.13231074 53.51254408 34.03401733 61.82081581 26.9296875 67.71875 C19.0171486 73.34299368 10.7565474 76.29989928 1 75 C-9.40826272 72.42700768 -17.11331251 67.5297728 -22.74609375 58.3515625 C-26.90495362 50.55208076 -28.45627528 42.89092148 -26.30859375 34.203125 C-22.90024066 23.8782395 -17.5595184 17.22032831 -8 12 C-5.02817877 10.66424928 -3.28284979 10 0 10 C0 6.7 0 3.4 0 0 Z " fill="#1C2D57" transform="translate(1870,464)"/>
<path d="M0 0 C7.78095152 5.32068876 12.90541672 13.48993054 14.73828125 22.71484375 C15.88330167 32.34149693 13.46614924 40.01526455 8.05078125 47.96484375 C2.12389834 55.33621822 -6.33805536 59.80294662 -15.6640625 61.03125 C-24.8201849 61.4796541 -33.40187925 58.23516912 -40.48046875 52.4765625 C-47.10279515 45.92684933 -51.28992874 37.71039075 -51.69921875 28.40234375 C-51.40210754 19.07563539 -47.83491987 10.37568755 -41.26171875 3.71484375 C-28.57022595 -6.8214899 -14.37601509 -8.16875469 0 0 Z " fill="#1C2D57" transform="translate(396.26171875,1048.28515625)"/>
<path d="M0 0 C7.65544161 6.23117341 12.84252191 14.41647195 13.92578125 24.37890625 C14.21875212 33.73855469 11.38570056 42.12255811 5.4453125 49.40625 C-1.22833923 56.16888375 -9.70088526 60.16041065 -19.1875 60.625 C-28.24907512 60.30137232 -36.86551456 56.54965668 -43.3125 50.1875 C-49.48012074 42.75832047 -53.00763857 34.52637983 -52.66015625 24.796875 C-51.33591059 14.85759293 -46.18753411 5.45715985 -38.1953125 -0.71484375 C-25.15213991 -8.318851 -12.81549042 -7.01224947 0 0 Z " fill="#1C2D57" transform="translate(2083.3125,2239.8125)"/>
<path d="M0 0 C7.79755677 5.32190662 12.88767861 13.48790198 14.7421875 22.71484375 C16.03343048 32.22700035 13.34634046 40.01146341 8.2734375 48.0390625 C3.14923186 54.63270946 -5.04462033 59.17904359 -13.2578125 60.71484375 C-22.57506027 61.72794912 -30.8516267 59.30545461 -38.5703125 54.02734375 C-45.47946259 48.40658026 -50.47760863 40.02389975 -51.57421875 31.15625 C-51.9942724 21.6034169 -49.06137553 12.9228444 -43.01953125 5.49609375 C-30.76578852 -6.89349979 -14.99611666 -8.53585187 0 0 Z " fill="#1C2D57" transform="translate(1334.2578125,856.28515625)"/>
<path d="M0 0 C6.79470996 4.64628738 12.4801923 12.30506125 14.36328125 20.40234375 C15.53315064 30.73619002 14.05884152 39.25791873 8.05078125 48.02734375 C2.08711848 55.33957348 -6.35721973 59.80547071 -15.6640625 61.03125 C-24.81676311 61.47948652 -33.40999978 58.23914528 -40.48046875 52.47265625 C-47.28452324 45.7581288 -51.28242983 37.26588258 -51.63671875 27.71484375 C-51.28242983 18.16380492 -47.28452324 9.6715587 -40.48046875 2.95703125 C-28.0455203 -7.18458655 -13.72221301 -7.79725057 0 0 Z " fill="#1C2D57" transform="translate(770.26171875,1256.28515625)"/>
<path d="M0 0 C7.8126041 5.33217656 12.8521089 13.48313752 14.7421875 22.71484375 C15.95840829 31.94911274 13.27666086 40.39075318 8.0546875 48.02734375 C2.09102473 55.33957348 -6.35331348 59.80547071 -15.66015625 61.03125 C-24.81285686 61.47948652 -33.40609353 58.23914528 -40.4765625 52.47265625 C-47.23919625 45.79900452 -51.23072315 37.32645849 -51.6953125 27.83984375 C-51.37193539 18.78528461 -47.62433617 10.15194972 -41.2578125 3.71484375 C-28.4153096 -6.76883209 -14.61022613 -8.31620138 0 0 Z " fill="#1C2D57" transform="translate(1334.2578125,1632.28515625)"/>
<path d="M0 0 C7.79302888 5.32894737 12.88342293 13.48616343 14.73828125 22.71484375 C16.02952423 32.22700035 13.34243421 40.01146341 8.26953125 48.0390625 C2.86587031 54.99230268 -5.59050223 59.41132754 -14.26171875 60.71484375 C-23.14353916 61.737091 -31.24769114 59.04685408 -38.57421875 54.02734375 C-45.48336884 48.40658026 -50.48151488 40.02389975 -51.578125 31.15625 C-51.99801045 21.6072422 -49.06963203 12.91430778 -43.01953125 5.49609375 C-30.83369956 -6.8522157 -14.85191804 -8.43917277 0 0 Z " fill="#1C2D57" transform="translate(2454.26171875,856.28515625)"/>
<path d="M0 0 C7.80806057 5.33922618 12.84784631 13.48139708 14.73828125 22.71484375 C15.95450204 31.94911274 13.27275461 40.39075318 8.05078125 48.02734375 C2.08711848 55.33957348 -6.35721973 59.80547071 -15.6640625 61.03125 C-24.81676311 61.47948652 -33.40999978 58.23914528 -40.48046875 52.47265625 C-47.2431025 45.79900452 -51.2346294 37.32645849 -51.69921875 27.83984375 C-51.37559107 18.77826863 -47.62387543 10.16182919 -41.26171875 3.71484375 C-28.57022595 -6.8214899 -14.37601509 -8.16875469 0 0 Z " fill="#1C2C57" transform="translate(1518.26171875,2209.28515625)"/>
<path d="M0 0 C7.80806057 5.33922618 12.84784631 13.48139708 14.73828125 22.71484375 C15.95450204 31.94911274 13.27275461 40.39075318 8.05078125 48.02734375 C2.08711848 55.33957348 -6.35721973 59.80547071 -15.6640625 61.03125 C-24.81676311 61.47948652 -33.40999978 58.23914528 -40.48046875 52.47265625 C-47.2431025 45.79900452 -51.2346294 37.32645849 -51.69921875 27.83984375 C-51.37559107 18.77826863 -47.62387543 10.16182919 -41.26171875 3.71484375 C-28.57022595 -6.8214899 -14.37601509 -8.16875469 0 0 Z " fill="#1C2D57" transform="translate(770.26171875,2012.28515625)"/>
<path d="M0 0 C7.80806057 5.33922618 12.84784631 13.48139708 14.73828125 22.71484375 C15.95450204 31.94911274 13.27275461 40.39075318 8.05078125 48.02734375 C2.08711848 55.33957348 -6.35721973 59.80547071 -15.6640625 61.03125 C-24.81676311 61.47948652 -33.40999978 58.23914528 -40.48046875 52.47265625 C-47.2431025 45.79900452 -51.2346294 37.32645849 -51.69921875 27.83984375 C-51.37559107 18.77826863 -47.62387543 10.16182919 -41.26171875 3.71484375 C-28.57022595 -6.8214899 -14.37601509 -8.16875469 0 0 Z " fill="#1C2D57" transform="translate(396.26171875,478.28515625)"/>
<path d="M0 0 C7.82433869 5.35035731 12.81025612 13.47639002 14.73828125 22.71484375 C15.94501169 32.217846 12.99032297 40.99003945 7.45703125 48.6796875 C1.47809632 55.75929 -6.67790618 59.72220739 -15.80078125 61.09765625 C-24.85527047 61.5288224 -33.50104814 58.16488863 -40.48046875 52.47265625 C-47.2431025 45.79900452 -51.2346294 37.32645849 -51.69921875 27.83984375 C-51.37559107 18.77826863 -47.62387543 10.16182919 -41.26171875 3.71484375 C-28.57022595 -6.8214899 -14.37601509 -8.16875469 0 0 Z " fill="#1C2C57" transform="translate(2082.26171875,1440.28515625)"/>
</svg>
