<?xml version="1.0" encoding="UTF-8"?>
<svg version="1.1" xmlns="http://www.w3.org/2000/svg" width="3000" height="3000">
<path d="M0 0 C1.55685754 -0.00489928 3.11371145 -0.01109385 4.67055929 -0.01845789 C8.91435654 -0.03474947 13.15796672 -0.03256164 17.40178418 -0.02708292 C21.99230515 -0.02439927 26.58277774 -0.03896956 31.17327881 -0.05117798 C40.15422905 -0.07217909 49.13511466 -0.07677585 58.11608656 -0.07499009 C65.42159022 -0.07367961 72.72707381 -0.0775012 80.0325737 -0.08491516 C82.14140713 -0.08701449 84.25024056 -0.08911209 86.359074 -0.09120798 C87.40889653 -0.09225151 88.45871907 -0.09329504 89.54035442 -0.09437019 C109.37307062 -0.11325162 129.2057498 -0.112229 149.03847127 -0.10540086 C167.15054093 -0.09982881 185.262469 -0.12064017 203.37450559 -0.15376133 C222.00327549 -0.18756107 240.63197768 -0.20265872 259.26077878 -0.1980443 C269.70677869 -0.19580572 280.15264778 -0.2009528 290.59862137 -0.22593689 C299.49365535 -0.2470315 308.38848682 -0.25046163 317.28352936 -0.2316373 C321.81460534 -0.22252896 326.34530459 -0.22118432 330.8763504 -0.24199295 C363.22745102 -0.38060109 389.51825611 3.72686355 413.76889038 26.82800293 C423.63024944 37.21825841 431.03250725 49.69370471 435.21420288 63.39440918 C435.46773167 64.21575659 435.72126046 65.03710399 435.98247194 65.88334072 C438.82943074 76.47142224 438.63919828 86.86930257 438.60861206 97.76089478 C438.61350638 99.92409674 438.61969868 102.08729608 438.62706995 104.25049102 C438.64342407 110.17030365 438.64116072 116.0899827 438.63569498 122.00980997 C438.63301918 128.4040225 438.64756699 134.79819986 438.65979004 141.19239807 C438.6808236 153.71067454 438.68540481 166.22890326 438.68360215 178.7471952 C438.68222696 188.92598072 438.68605709 199.10475222 438.69352722 209.283535 C438.69457758 210.74799717 438.69562519 212.21245934 438.69667009 213.67692151 C438.69718943 214.40392402 438.69770877 215.13092654 438.69824385 215.87995943 C438.698764 216.60832397 438.69928414 217.33668851 438.69982004 218.08712471 C438.70034403 218.8167476 438.70086803 219.54637049 438.7014079 220.29810317 C438.7159839 240.80946406 438.72427698 261.32081979 438.7196579 281.83218575 C438.71948594 282.60485002 438.71931399 283.3775143 438.71913682 284.17359265 C438.71824799 288.089389 438.71730318 292.00518533 438.71633881 295.92098166 C438.71614778 296.69861182 438.71595675 297.47624198 438.71575993 298.27743668 C438.71537283 299.84999325 438.7149825 301.42254982 438.71458895 302.99510639 C438.70862145 327.45376683 438.72404908 351.91233259 438.75619507 376.37097168 C438.79231776 403.87837295 438.81159842 431.3857142 438.80665636 458.89314067 C438.80618642 461.8295567 438.80577616 464.76597273 438.80540466 467.70238876 C438.80530228 468.42535722 438.80519989 469.14832568 438.8050944 469.89320228 C438.80390236 480.78050474 438.81583029 491.66774208 438.83454895 502.55502701 C438.85584486 514.94696738 438.85911806 527.33874548 438.84024936 539.73069496 C438.8311137 546.04801768 438.82988222 552.36506977 438.85060501 558.68237114 C438.86939929 564.47607364 438.86471674 570.26928547 438.8420592 576.06296979 C438.83789474 578.14837055 438.842 580.23380956 438.85565513 582.31916977 C439.0241484 609.95358002 430.94617491 632.82986711 411.78060913 652.94909668 C393.57814508 670.22499852 371.28100905 677.88674433 346.42840576 677.78881836 C344.87154822 677.79371764 343.31469431 677.79991221 341.75784647 677.80727625 C337.51404922 677.82356783 333.27043904 677.82138 329.02662158 677.81590128 C324.43610061 677.81321763 319.84562802 677.82778792 315.25512695 677.83999634 C306.27417671 677.86099745 297.2932911 677.86559421 288.3123192 677.86380845 C281.00681554 677.86249797 273.70133195 677.86631956 266.39583206 677.87373352 C264.28699863 677.87583285 262.1781652 677.87793045 260.06933177 677.88002634 C259.01950923 677.88106987 257.96968669 677.8821134 256.88805135 677.88318855 C237.05533514 677.90206998 217.22265596 677.90104736 197.3899345 677.89421922 C179.27786483 677.88864717 161.16593676 677.90945853 143.05390017 677.94257969 C124.42513027 677.97637943 105.79642808 677.99147708 87.16762698 677.98686266 C76.72162708 677.98462408 66.27575798 677.98977116 55.82978439 678.01475525 C46.93475041 678.03584986 38.03991894 678.03927999 29.14487641 678.02045566 C24.61380042 678.01134732 20.08310117 678.01000268 15.55205536 678.03081131 C-16.79904526 678.16941945 -43.08985034 674.06195481 -67.34048462 650.96081543 C-77.20184368 640.57055995 -84.60410149 628.09511365 -88.78579712 614.39440918 C-89.03932591 613.57306177 -89.2928547 612.75171437 -89.55406618 611.90547764 C-92.40102498 601.31739612 -92.21079252 590.91951579 -92.1802063 580.02792358 C-92.18510062 577.86472162 -92.19129292 575.70152228 -92.19866419 573.53832734 C-92.21501831 567.61851471 -92.21275496 561.69883566 -92.20728922 555.77900839 C-92.20461342 549.38479586 -92.21916123 542.99061849 -92.23138428 536.59642029 C-92.25241783 524.07814382 -92.25699905 511.55991509 -92.25519639 499.04162316 C-92.25382119 488.86283763 -92.25765133 478.68406614 -92.26512146 468.50528336 C-92.26617182 467.04082119 -92.26721943 465.57635902 -92.26826432 464.11189685 C-92.26878367 463.38489434 -92.26930301 462.65789182 -92.26983809 461.90885893 C-92.27035823 461.18049439 -92.27087838 460.45212985 -92.27141428 459.70169365 C-92.27193827 458.97207076 -92.27246226 458.24244786 -92.27300213 457.49071519 C-92.28757814 436.9793543 -92.29587122 416.46799857 -92.29125214 395.95663261 C-92.29108018 395.18396834 -92.29090823 394.41130406 -92.29073106 393.61522571 C-92.28984223 389.69942936 -92.28889741 385.78363303 -92.28793305 381.8678367 C-92.28774202 381.09020654 -92.28755099 380.31257638 -92.28735416 379.51138168 C-92.28696707 377.93882511 -92.28657674 376.36626854 -92.28618319 374.79371197 C-92.28021569 350.33505153 -92.29564332 325.87648577 -92.32778931 301.41784668 C-92.363912 273.91044541 -92.38319266 246.40310416 -92.3782506 218.89567769 C-92.37778066 215.95926166 -92.37737039 213.02284563 -92.3769989 210.0864296 C-92.37689652 209.36346114 -92.37679413 208.64049268 -92.37668864 207.89561608 C-92.3754966 197.00831362 -92.38742453 186.12107628 -92.40614319 175.23379135 C-92.4274391 162.84185097 -92.4307123 150.45007288 -92.4118436 138.05812339 C-92.40270794 131.74080068 -92.40147646 125.42374859 -92.42219925 119.10644722 C-92.44099353 113.31274472 -92.43631097 107.51953289 -92.41365343 101.72584857 C-92.40948898 99.64044781 -92.41359424 97.5550088 -92.42724937 95.46964858 C-92.59574264 67.83523834 -84.51776915 44.95895125 -65.35220337 24.83972168 C-47.14973932 7.56381984 -24.85260329 -0.09792597 0 0 Z " fill="#E3E3E6" transform="translate(2360.7857971191406,1563.6055908203125)"/>
<path d="M0 0 C1.55685754 -0.00489928 3.11371145 -0.01109385 4.67055929 -0.01845789 C8.91435654 -0.03474947 13.15796672 -0.03256164 17.40178418 -0.02708292 C21.99230515 -0.02439927 26.58277774 -0.03896956 31.17327881 -0.05117798 C40.15422905 -0.07217909 49.13511466 -0.07677585 58.11608656 -0.07499009 C65.42159022 -0.07367961 72.72707381 -0.0775012 80.0325737 -0.08491516 C82.14140713 -0.08701449 84.25024056 -0.08911209 86.359074 -0.09120798 C87.40889653 -0.09225151 88.45871907 -0.09329504 89.54035442 -0.09437019 C109.37307062 -0.11325162 129.2057498 -0.112229 149.03847127 -0.10540086 C167.15054093 -0.09982881 185.262469 -0.12064017 203.37450559 -0.15376133 C222.00327549 -0.18756107 240.63197768 -0.20265872 259.26077878 -0.1980443 C269.70677869 -0.19580572 280.15264778 -0.2009528 290.59862137 -0.22593689 C299.49365535 -0.2470315 308.38848682 -0.25046163 317.28352936 -0.2316373 C321.81460534 -0.22252896 326.34530459 -0.22118432 330.8763504 -0.24199295 C363.22745102 -0.38060109 389.51825611 3.72686355 413.76889038 26.82800293 C423.63024944 37.21825841 431.03250725 49.69370471 435.21420288 63.39440918 C435.46773167 64.21575659 435.72126046 65.03710399 435.98247194 65.88334072 C438.82943074 76.47142224 438.63919828 86.86930257 438.60861206 97.76089478 C438.61350638 99.92409674 438.61969868 102.08729608 438.62706995 104.25049102 C438.64342407 110.17030365 438.64116072 116.0899827 438.63569498 122.00980997 C438.63301918 128.4040225 438.64756699 134.79819986 438.65979004 141.19239807 C438.6808236 153.71067454 438.68540481 166.22890326 438.68360215 178.7471952 C438.68222696 188.92598072 438.68605709 199.10475222 438.69352722 209.283535 C438.69457758 210.74799717 438.69562519 212.21245934 438.69667009 213.67692151 C438.69718943 214.40392402 438.69770877 215.13092654 438.69824385 215.87995943 C438.698764 216.60832397 438.69928414 217.33668851 438.69982004 218.08712471 C438.70034403 218.8167476 438.70086803 219.54637049 438.7014079 220.29810317 C438.7159839 240.80946406 438.72427698 261.32081979 438.7196579 281.83218575 C438.71948594 282.60485002 438.71931399 283.3775143 438.71913682 284.17359265 C438.71824799 288.089389 438.71730318 292.00518533 438.71633881 295.92098166 C438.71614778 296.69861182 438.71595675 297.47624198 438.71575993 298.27743668 C438.71537283 299.84999325 438.7149825 301.42254982 438.71458895 302.99510639 C438.70862145 327.45376683 438.72404908 351.91233259 438.75619507 376.37097168 C438.79231776 403.87837295 438.81159842 431.3857142 438.80665636 458.89314067 C438.80618642 461.8295567 438.80577616 464.76597273 438.80540466 467.70238876 C438.80530228 468.42535722 438.80519989 469.14832568 438.8050944 469.89320228 C438.80390236 480.78050474 438.81583029 491.66774208 438.83454895 502.55502701 C438.85584486 514.94696738 438.85911806 527.33874548 438.84024936 539.73069496 C438.8311137 546.04801768 438.82988222 552.36506977 438.85060501 558.68237114 C438.86939929 564.47607364 438.86471674 570.26928547 438.8420592 576.06296979 C438.83789474 578.14837055 438.842 580.23380956 438.85565513 582.31916977 C439.0241484 609.95358002 430.94617491 632.82986711 411.78060913 652.94909668 C393.57814508 670.22499852 371.28100905 677.88674433 346.42840576 677.78881836 C344.87154822 677.79371764 343.31469431 677.79991221 341.75784647 677.80727625 C337.51404922 677.82356783 333.27043904 677.82138 329.02662158 677.81590128 C324.43610061 677.81321763 319.84562802 677.82778792 315.25512695 677.83999634 C306.27417671 677.86099745 297.2932911 677.86559421 288.3123192 677.86380845 C281.00681554 677.86249797 273.70133195 677.86631956 266.39583206 677.87373352 C264.28699863 677.87583285 262.1781652 677.87793045 260.06933177 677.88002634 C259.01950923 677.88106987 257.96968669 677.8821134 256.88805135 677.88318855 C237.05533514 677.90206998 217.22265596 677.90104736 197.3899345 677.89421922 C179.27786483 677.88864717 161.16593676 677.90945853 143.05390017 677.94257969 C124.42513027 677.97637943 105.79642808 677.99147708 87.16762698 677.98686266 C76.72162708 677.98462408 66.27575798 677.98977116 55.82978439 678.01475525 C46.93475041 678.03584986 38.03991894 678.03927999 29.14487641 678.02045566 C24.61380042 678.01134732 20.08310117 678.01000268 15.55205536 678.03081131 C-16.79904526 678.16941945 -43.08985034 674.06195481 -67.34048462 650.96081543 C-77.20184368 640.57055995 -84.60410149 628.09511365 -88.78579712 614.39440918 C-89.03932591 613.57306177 -89.2928547 612.75171437 -89.55406618 611.90547764 C-92.40102498 601.31739612 -92.21079252 590.91951579 -92.1802063 580.02792358 C-92.18510062 577.86472162 -92.19129292 575.70152228 -92.19866419 573.53832734 C-92.21501831 567.61851471 -92.21275496 561.69883566 -92.20728922 555.77900839 C-92.20461342 549.38479586 -92.21916123 542.99061849 -92.23138428 536.59642029 C-92.25241783 524.07814382 -92.25699905 511.55991509 -92.25519639 499.04162316 C-92.25382119 488.86283763 -92.25765133 478.68406614 -92.26512146 468.50528336 C-92.26617182 467.04082119 -92.26721943 465.57635902 -92.26826432 464.11189685 C-92.26878367 463.38489434 -92.26930301 462.65789182 -92.26983809 461.90885893 C-92.27035823 461.18049439 -92.27087838 460.45212985 -92.27141428 459.70169365 C-92.27193827 458.97207076 -92.27246226 458.24244786 -92.27300213 457.49071519 C-92.28757814 436.9793543 -92.29587122 416.46799857 -92.29125214 395.95663261 C-92.29108018 395.18396834 -92.29090823 394.41130406 -92.29073106 393.61522571 C-92.28984223 389.69942936 -92.28889741 385.78363303 -92.28793305 381.8678367 C-92.28774202 381.09020654 -92.28755099 380.31257638 -92.28735416 379.51138168 C-92.28696707 377.93882511 -92.28657674 376.36626854 -92.28618319 374.79371197 C-92.28021569 350.33505153 -92.29564332 325.87648577 -92.32778931 301.41784668 C-92.363912 273.91044541 -92.38319266 246.40310416 -92.3782506 218.89567769 C-92.37778066 215.95926166 -92.37737039 213.02284563 -92.3769989 210.0864296 C-92.37689652 209.36346114 -92.37679413 208.64049268 -92.37668864 207.89561608 C-92.3754966 197.00831362 -92.38742453 186.12107628 -92.40614319 175.23379135 C-92.4274391 162.84185097 -92.4307123 150.45007288 -92.4118436 138.05812339 C-92.40270794 131.74080068 -92.40147646 125.42374859 -92.42219925 119.10644722 C-92.44099353 113.31274472 -92.43631097 107.51953289 -92.41365343 101.72584857 C-92.40948898 99.64044781 -92.41359424 97.5550088 -92.42724937 95.46964858 C-92.59574264 67.83523834 -84.51776915 44.95895125 -65.35220337 24.83972168 C-47.14973932 7.56381984 -24.85260329 -0.09792597 0 0 Z " fill="#1A2B56" transform="translate(2360.7857971191406,843.6055908203125)"/>
<path d="M0 0 C1.85557743 -0.00457964 1.85557743 -0.00457964 3.74864128 -0.00925181 C7.18673607 -0.01570853 10.62461385 -0.01321108 14.06269508 -0.00696007 C17.81532581 -0.00235135 21.56793801 -0.00937093 25.32056502 -0.01489371 C31.92432529 -0.02300287 38.52805409 -0.02365224 45.13181754 -0.01948182 C55.01797916 -0.01327273 64.90411184 -0.01855356 74.79027135 -0.02607924 C91.63827677 -0.0385603 108.48627192 -0.04148946 125.33428127 -0.03924429 C142.41275485 -0.03699706 159.49121971 -0.03905771 176.56969196 -0.04638922 C177.64760059 -0.04684853 178.72550923 -0.04730783 179.83608177 -0.04778106 C184.22610379 -0.04966429 188.6161258 -0.05157566 193.00614779 -0.05352344 C238.8282243 -0.07382418 284.65029593 -0.07993585 330.47237643 -0.08110766 C335.40628314 -0.08123715 340.34018984 -0.08137303 345.27409655 -0.08151448 C346.49841908 -0.08154849 347.7227416 -0.0815825 348.98416481 -0.08161754 C376.10140989 -0.08243406 403.21865402 -0.08681262 430.3358986 -0.09182617 C441.4978598 -0.09388284 452.65982102 -0.09586289 463.82178223 -0.09785867 C465.67167011 -0.09819044 465.67167011 -0.09819044 467.55892946 -0.09852891 C538.24223955 -0.1111792 608.92554903 -0.1194269 679.60886031 -0.1185118 C682.25474297 -0.11848024 684.90062563 -0.11844877 687.54650829 -0.11841738 C699.49276685 -0.11827061 711.4390254 -0.11809427 723.38528396 -0.11790961 C728.71255477 -0.11782736 734.03982558 -0.11774707 739.36709639 -0.11766698 C742.03349306 -0.11762619 744.69988973 -0.11758443 747.3662864 -0.11754086 C810.314514 -0.11651801 873.26273647 -0.11935384 936.21096164 -0.13823569 C936.87368292 -0.13843441 937.53640419 -0.13863312 938.21920793 -0.13883786 C958.92576918 -0.14506056 979.63233027 -0.15179378 1000.33889133 -0.15862143 C1021.58539543 -0.16562329 1042.83189954 -0.17256213 1064.07840377 -0.17915022 C1065.38657886 -0.17955597 1066.69475395 -0.17996172 1068.04257071 -0.18037976 C1108.35159909 -0.19280667 1148.66062608 -0.20034029 1188.96965629 -0.2028662 C1190.23491001 -0.2029461 1191.50016373 -0.203026 1192.80375847 -0.20310832 C1220.57705207 -0.20481475 1248.35034559 -0.20533731 1276.12363924 -0.20476757 C1286.06105254 -0.2045746 1295.99846585 -0.20447051 1305.93587915 -0.20441011 C1308.40812098 -0.20439428 1310.88036281 -0.20437387 1313.35260464 -0.20434886 C1352.76981145 -0.203996 1392.18700389 -0.21540097 1431.60420658 -0.2326565 C1471.29735037 -0.24994451 1510.99047426 -0.25434906 1550.68362023 -0.24113385 C1556.16584166 -0.2393092 1561.64806312 -0.23762266 1567.13028461 -0.23601782 C1568.20497175 -0.23569765 1569.2796589 -0.23537747 1570.38691232 -0.2350476 C1587.41895124 -0.23033747 1604.4509558 -0.23906622 1621.48298827 -0.2533602 C1638.22169463 -0.26712779 1654.96035014 -0.26667003 1671.69905537 -0.25097592 C1681.51798231 -0.24219746 1691.33675962 -0.24439351 1701.15567424 -0.26270949 C1707.67428232 -0.27377871 1714.19277856 -0.27037726 1720.71137799 -0.25514393 C1724.40824691 -0.24691131 1728.10482107 -0.24486658 1731.80167214 -0.26064531 C1735.77800706 -0.27747802 1739.75389499 -0.26323015 1743.73023605 -0.24609566 C1745.42922391 -0.26079452 1745.42922391 -0.26079452 1747.16253474 -0.27579032 C1761.96263393 -0.14280858 1775.88212235 5.08167525 1786.49099094 15.50299966 C1798.07762837 27.74984436 1802.32782468 40.81806369 1802.14894992 57.50959146 C1801.61229641 73.36162077 1795.08478383 85.94883329 1783.69020969 96.88971841 C1771.87572013 106.16049167 1759.16434866 109.56479884 1744.35698187 109.50599933 C1743.11993025 109.50905242 1741.88287863 109.51210552 1740.60834059 109.51525113 C1737.1702458 109.52170786 1733.73236802 109.51921041 1730.29428679 109.5129594 C1726.54165607 109.50835067 1722.78904386 109.51537025 1719.03641686 109.52089304 C1712.43265658 109.5290022 1705.82892779 109.52965157 1699.22516433 109.52548115 C1689.33900271 109.51927205 1679.45287004 109.52455289 1669.56671052 109.53207856 C1652.7187051 109.54455962 1635.87070996 109.54748879 1619.02270061 109.54524362 C1601.94422703 109.54299639 1584.86576217 109.54505704 1567.78728992 109.55238855 C1566.70938128 109.55284785 1565.63147264 109.55330716 1564.52090011 109.55378039 C1560.13087808 109.55566362 1555.74085608 109.55757499 1551.35083408 109.55952277 C1505.52875757 109.57982351 1459.70668594 109.58593517 1413.88460544 109.58710699 C1408.95069874 109.58723648 1404.01679203 109.58737236 1399.08288532 109.5875138 C1397.8585628 109.58754781 1396.63424027 109.58758182 1395.37281706 109.58761686 C1368.25557199 109.58843338 1341.13832785 109.59281195 1314.02108327 109.59782549 C1302.85912207 109.59988217 1291.69716085 109.60186222 1280.53519964 109.60385799 C1278.68531176 109.60418976 1278.68531176 109.60418976 1276.79805241 109.60452823 C1206.11474232 109.61717853 1135.43143284 109.62542623 1064.74812156 109.62451112 C1062.1022389 109.62447957 1059.45635624 109.62444809 1056.81047359 109.62441671 C1044.86421503 109.62426994 1032.91795647 109.6240936 1020.97169791 109.62390894 C1015.6444271 109.62382669 1010.31715629 109.6237464 1004.98988548 109.62366631 C1002.32348881 109.62362552 999.65709214 109.62358376 996.99069548 109.62354019 C934.04246787 109.62251733 871.0942454 109.62535316 808.14602023 109.64423501 C807.48329896 109.64443373 806.82057768 109.64463245 806.13777394 109.64483719 C785.43121269 109.65105989 764.72465161 109.6577931 744.01809055 109.66462076 C722.77158645 109.67162261 701.52508233 109.67856145 680.2785781 109.68514955 C678.97040301 109.6855553 677.66222792 109.68596105 676.31441116 109.68637909 C636.00538279 109.698806 595.69635579 109.70633961 555.38732558 109.70886552 C554.12207187 109.70894542 552.85681815 109.70902533 551.55322341 109.70910765 C523.7799298 109.71081407 496.00663628 109.71133663 468.23334263 109.7107669 C458.29592933 109.71057392 448.35851603 109.71046984 438.42110273 109.71040944 C435.9488609 109.71039361 433.47661906 109.7103732 431.00437723 109.71034819 C391.58717043 109.70999533 352.16997798 109.72140029 312.75277529 109.73865582 C273.0596315 109.75594384 233.36650761 109.76034839 193.67336164 109.74713318 C188.19114022 109.74530852 182.70891876 109.74362198 177.22669727 109.74201715 C176.15201012 109.74169698 175.07732298 109.7413768 173.97006955 109.74104692 C156.93803063 109.7363368 139.90602607 109.74506555 122.87399361 109.75935952 C106.13528724 109.77312711 89.39663174 109.77266936 72.65792651 109.75697525 C62.83899957 109.74819679 53.02022225 109.75039283 43.20130763 109.76870882 C36.68269955 109.77977804 30.16420331 109.77637658 23.64560388 109.76114325 C19.94873496 109.75291063 16.25216081 109.75086591 12.55530973 109.76664463 C8.57897481 109.78347735 4.60308688 109.76922948 0.62674582 109.75209498 C-1.07224203 109.76679384 -1.07224203 109.76679384 -2.80555287 109.78178965 C-17.60565205 109.64880791 -31.52514048 104.42432408 -42.13400906 94.00299966 C-53.7206465 81.75615497 -57.9708428 68.68793564 -57.79196805 51.99640787 C-57.25531453 36.14437855 -50.72780195 23.55716604 -39.33322781 12.61628091 C-27.51873826 3.34550766 -14.80736678 -0.05879952 0 0 Z " fill="#E3E3E6" transform="translate(329.32150906324387,2131.747000336647)"/>
<path d="M0 0 C1.85557743 -0.00457964 1.85557743 -0.00457964 3.74864128 -0.00925181 C7.18673607 -0.01570853 10.62461385 -0.01321108 14.06269508 -0.00696007 C17.81532581 -0.00235135 21.56793801 -0.00937093 25.32056502 -0.01489371 C31.92432529 -0.02300287 38.52805409 -0.02365224 45.13181754 -0.01948182 C55.01797916 -0.01327273 64.90411184 -0.01855356 74.79027135 -0.02607924 C91.63827677 -0.0385603 108.48627192 -0.04148946 125.33428127 -0.03924429 C142.41275485 -0.03699706 159.49121971 -0.03905771 176.56969196 -0.04638922 C177.64760059 -0.04684853 178.72550923 -0.04730783 179.83608177 -0.04778106 C184.22610379 -0.04966429 188.6161258 -0.05157566 193.00614779 -0.05352344 C238.8282243 -0.07382418 284.65029593 -0.07993585 330.47237643 -0.08110766 C335.40628314 -0.08123715 340.34018984 -0.08137303 345.27409655 -0.08151448 C346.49841908 -0.08154849 347.7227416 -0.0815825 348.98416481 -0.08161754 C376.10140989 -0.08243406 403.21865402 -0.08681262 430.3358986 -0.09182617 C441.4978598 -0.09388284 452.65982102 -0.09586289 463.82178223 -0.09785867 C465.67167011 -0.09819044 465.67167011 -0.09819044 467.55892946 -0.09852891 C538.24223955 -0.1111792 608.92554903 -0.1194269 679.60886031 -0.1185118 C682.25474297 -0.11848024 684.90062563 -0.11844877 687.54650829 -0.11841738 C699.49276685 -0.11827061 711.4390254 -0.11809427 723.38528396 -0.11790961 C728.71255477 -0.11782736 734.03982558 -0.11774707 739.36709639 -0.11766698 C742.03349306 -0.11762619 744.69988973 -0.11758443 747.3662864 -0.11754086 C810.314514 -0.11651801 873.26273647 -0.11935384 936.21096164 -0.13823569 C936.87368292 -0.13843441 937.53640419 -0.13863312 938.21920793 -0.13883786 C958.92576918 -0.14506056 979.63233027 -0.15179378 1000.33889133 -0.15862143 C1021.58539543 -0.16562329 1042.83189954 -0.17256213 1064.07840377 -0.17915022 C1065.38657886 -0.17955597 1066.69475395 -0.17996172 1068.04257071 -0.18037976 C1108.35159909 -0.19280667 1148.66062608 -0.20034029 1188.96965629 -0.2028662 C1190.23491001 -0.2029461 1191.50016373 -0.203026 1192.80375847 -0.20310832 C1220.57705207 -0.20481475 1248.35034559 -0.20533731 1276.12363924 -0.20476757 C1286.06105254 -0.2045746 1295.99846585 -0.20447051 1305.93587915 -0.20441011 C1308.40812098 -0.20439428 1310.88036281 -0.20437387 1313.35260464 -0.20434886 C1352.76981145 -0.203996 1392.18700389 -0.21540097 1431.60420658 -0.2326565 C1471.29735037 -0.24994451 1510.99047426 -0.25434906 1550.68362023 -0.24113385 C1556.16584166 -0.2393092 1561.64806312 -0.23762266 1567.13028461 -0.23601782 C1568.20497175 -0.23569765 1569.2796589 -0.23537747 1570.38691232 -0.2350476 C1587.41895124 -0.23033747 1604.4509558 -0.23906622 1621.48298827 -0.2533602 C1638.22169463 -0.26712779 1654.96035014 -0.26667003 1671.69905537 -0.25097592 C1681.51798231 -0.24219746 1691.33675962 -0.24439351 1701.15567424 -0.26270949 C1707.67428232 -0.27377871 1714.19277856 -0.27037726 1720.71137799 -0.25514393 C1724.40824691 -0.24691131 1728.10482107 -0.24486658 1731.80167214 -0.26064531 C1735.77800706 -0.27747802 1739.75389499 -0.26323015 1743.73023605 -0.24609566 C1745.42922391 -0.26079452 1745.42922391 -0.26079452 1747.16253474 -0.27579032 C1761.96263393 -0.14280858 1775.88212235 5.08167525 1786.49099094 15.50299966 C1798.07762837 27.74984436 1802.32782468 40.81806369 1802.14894992 57.50959146 C1801.61229641 73.36162077 1795.08478383 85.94883329 1783.69020969 96.88971841 C1771.87572013 106.16049167 1759.16434866 109.56479884 1744.35698187 109.50599933 C1743.11993025 109.50905242 1741.88287863 109.51210552 1740.60834059 109.51525113 C1737.1702458 109.52170786 1733.73236802 109.51921041 1730.29428679 109.5129594 C1726.54165607 109.50835067 1722.78904386 109.51537025 1719.03641686 109.52089304 C1712.43265658 109.5290022 1705.82892779 109.52965157 1699.22516433 109.52548115 C1689.33900271 109.51927205 1679.45287004 109.52455289 1669.56671052 109.53207856 C1652.7187051 109.54455962 1635.87070996 109.54748879 1619.02270061 109.54524362 C1601.94422703 109.54299639 1584.86576217 109.54505704 1567.78728992 109.55238855 C1566.70938128 109.55284785 1565.63147264 109.55330716 1564.52090011 109.55378039 C1560.13087808 109.55566362 1555.74085608 109.55757499 1551.35083408 109.55952277 C1505.52875757 109.57982351 1459.70668594 109.58593517 1413.88460544 109.58710699 C1408.95069874 109.58723648 1404.01679203 109.58737236 1399.08288532 109.5875138 C1397.8585628 109.58754781 1396.63424027 109.58758182 1395.37281706 109.58761686 C1368.25557199 109.58843338 1341.13832785 109.59281195 1314.02108327 109.59782549 C1302.85912207 109.59988217 1291.69716085 109.60186222 1280.53519964 109.60385799 C1278.68531176 109.60418976 1278.68531176 109.60418976 1276.79805241 109.60452823 C1206.11474232 109.61717853 1135.43143284 109.62542623 1064.74812156 109.62451112 C1062.1022389 109.62447957 1059.45635624 109.62444809 1056.81047359 109.62441671 C1044.86421503 109.62426994 1032.91795647 109.6240936 1020.97169791 109.62390894 C1015.6444271 109.62382669 1010.31715629 109.6237464 1004.98988548 109.62366631 C1002.32348881 109.62362552 999.65709214 109.62358376 996.99069548 109.62354019 C934.04246787 109.62251733 871.0942454 109.62535316 808.14602023 109.64423501 C807.48329896 109.64443373 806.82057768 109.64463245 806.13777394 109.64483719 C785.43121269 109.65105989 764.72465161 109.6577931 744.01809055 109.66462076 C722.77158645 109.67162261 701.52508233 109.67856145 680.2785781 109.68514955 C678.97040301 109.6855553 677.66222792 109.68596105 676.31441116 109.68637909 C636.00538279 109.698806 595.69635579 109.70633961 555.38732558 109.70886552 C554.12207187 109.70894542 552.85681815 109.70902533 551.55322341 109.70910765 C523.7799298 109.71081407 496.00663628 109.71133663 468.23334263 109.7107669 C458.29592933 109.71057392 448.35851603 109.71046984 438.42110273 109.71040944 C435.9488609 109.71039361 433.47661906 109.7103732 431.00437723 109.71034819 C391.58717043 109.70999533 352.16997798 109.72140029 312.75277529 109.73865582 C273.0596315 109.75594384 233.36650761 109.76034839 193.67336164 109.74713318 C188.19114022 109.74530852 182.70891876 109.74362198 177.22669727 109.74201715 C176.15201012 109.74169698 175.07732298 109.7413768 173.97006955 109.74104692 C156.93803063 109.7363368 139.90602607 109.74506555 122.87399361 109.75935952 C106.13528724 109.77312711 89.39663174 109.77266936 72.65792651 109.75697525 C62.83899957 109.74819679 53.02022225 109.75039283 43.20130763 109.76870882 C36.68269955 109.77977804 30.16420331 109.77637658 23.64560388 109.76114325 C19.94873496 109.75291063 16.25216081 109.75086591 12.55530973 109.76664463 C8.57897481 109.78347735 4.60308688 109.76922948 0.62674582 109.75209498 C-1.07224203 109.76679384 -1.07224203 109.76679384 -2.80555287 109.78178965 C-17.60565205 109.64880791 -31.52514048 104.42432408 -42.13400906 94.00299966 C-53.7206465 81.75615497 -57.9708428 68.68793564 -57.79196805 51.99640787 C-57.25531453 36.14437855 -50.72780195 23.55716604 -39.33322781 12.61628091 C-27.51873826 3.34550766 -14.80736678 -0.05879952 0 0 Z " fill="#E3E3E6" transform="translate(331.32150906324387,1589.747000336647)"/>
<path d="M0 0 C1.85557743 -0.00457964 1.85557743 -0.00457964 3.74864128 -0.00925181 C7.18673607 -0.01570853 10.62461385 -0.01321108 14.06269508 -0.00696007 C17.81532581 -0.00235135 21.56793801 -0.00937093 25.32056502 -0.01489371 C31.92432529 -0.02300287 38.52805409 -0.02365224 45.13181754 -0.01948182 C55.01797916 -0.01327273 64.90411184 -0.01855356 74.79027135 -0.02607924 C91.63827677 -0.0385603 108.48627192 -0.04148946 125.33428127 -0.03924429 C142.41275485 -0.03699706 159.49121971 -0.03905771 176.56969196 -0.04638922 C177.64760059 -0.04684853 178.72550923 -0.04730783 179.83608177 -0.04778106 C184.22610379 -0.04966429 188.6161258 -0.05157566 193.00614779 -0.05352344 C238.8282243 -0.07382418 284.65029593 -0.07993585 330.47237643 -0.08110766 C335.40628314 -0.08123715 340.34018984 -0.08137303 345.27409655 -0.08151448 C346.49841908 -0.08154849 347.7227416 -0.0815825 348.98416481 -0.08161754 C376.10140989 -0.08243406 403.21865402 -0.08681262 430.3358986 -0.09182617 C441.4978598 -0.09388284 452.65982102 -0.09586289 463.82178223 -0.09785867 C465.67167011 -0.09819044 465.67167011 -0.09819044 467.55892946 -0.09852891 C538.24223955 -0.1111792 608.92554903 -0.1194269 679.60886031 -0.1185118 C682.25474297 -0.11848024 684.90062563 -0.11844877 687.54650829 -0.11841738 C699.49276685 -0.11827061 711.4390254 -0.11809427 723.38528396 -0.11790961 C728.71255477 -0.11782736 734.03982558 -0.11774707 739.36709639 -0.11766698 C742.03349306 -0.11762619 744.69988973 -0.11758443 747.3662864 -0.11754086 C810.314514 -0.11651801 873.26273647 -0.11935384 936.21096164 -0.13823569 C936.87368292 -0.13843441 937.53640419 -0.13863312 938.21920793 -0.13883786 C958.92576918 -0.14506056 979.63233027 -0.15179378 1000.33889133 -0.15862143 C1021.58539543 -0.16562329 1042.83189954 -0.17256213 1064.07840377 -0.17915022 C1065.38657886 -0.17955597 1066.69475395 -0.17996172 1068.04257071 -0.18037976 C1108.35159909 -0.19280667 1148.66062608 -0.20034029 1188.96965629 -0.2028662 C1190.23491001 -0.2029461 1191.50016373 -0.203026 1192.80375847 -0.20310832 C1220.57705207 -0.20481475 1248.35034559 -0.20533731 1276.12363924 -0.20476757 C1286.06105254 -0.2045746 1295.99846585 -0.20447051 1305.93587915 -0.20441011 C1308.40812098 -0.20439428 1310.88036281 -0.20437387 1313.35260464 -0.20434886 C1352.76981145 -0.203996 1392.18700389 -0.21540097 1431.60420658 -0.2326565 C1471.29735037 -0.24994451 1510.99047426 -0.25434906 1550.68362023 -0.24113385 C1556.16584166 -0.2393092 1561.64806312 -0.23762266 1567.13028461 -0.23601782 C1568.20497175 -0.23569765 1569.2796589 -0.23537747 1570.38691232 -0.2350476 C1587.41895124 -0.23033747 1604.4509558 -0.23906622 1621.48298827 -0.2533602 C1638.22169463 -0.26712779 1654.96035014 -0.26667003 1671.69905537 -0.25097592 C1681.51798231 -0.24219746 1691.33675962 -0.24439351 1701.15567424 -0.26270949 C1707.67428232 -0.27377871 1714.19277856 -0.27037726 1720.71137799 -0.25514393 C1724.40824691 -0.24691131 1728.10482107 -0.24486658 1731.80167214 -0.26064531 C1735.77800706 -0.27747802 1739.75389499 -0.26323015 1743.73023605 -0.24609566 C1745.42922391 -0.26079452 1745.42922391 -0.26079452 1747.16253474 -0.27579032 C1761.96263393 -0.14280858 1775.88212235 5.08167525 1786.49099094 15.50299966 C1798.07762837 27.74984436 1802.32782468 40.81806369 1802.14894992 57.50959146 C1801.61229641 73.36162077 1795.08478383 85.94883329 1783.69020969 96.88971841 C1771.87572013 106.16049167 1759.16434866 109.56479884 1744.35698187 109.50599933 C1743.11993025 109.50905242 1741.88287863 109.51210552 1740.60834059 109.51525113 C1737.1702458 109.52170786 1733.73236802 109.51921041 1730.29428679 109.5129594 C1726.54165607 109.50835067 1722.78904386 109.51537025 1719.03641686 109.52089304 C1712.43265658 109.5290022 1705.82892779 109.52965157 1699.22516433 109.52548115 C1689.33900271 109.51927205 1679.45287004 109.52455289 1669.56671052 109.53207856 C1652.7187051 109.54455962 1635.87070996 109.54748879 1619.02270061 109.54524362 C1601.94422703 109.54299639 1584.86576217 109.54505704 1567.78728992 109.55238855 C1566.70938128 109.55284785 1565.63147264 109.55330716 1564.52090011 109.55378039 C1560.13087808 109.55566362 1555.74085608 109.55757499 1551.35083408 109.55952277 C1505.52875757 109.57982351 1459.70668594 109.58593517 1413.88460544 109.58710699 C1408.95069874 109.58723648 1404.01679203 109.58737236 1399.08288532 109.5875138 C1397.8585628 109.58754781 1396.63424027 109.58758182 1395.37281706 109.58761686 C1368.25557199 109.58843338 1341.13832785 109.59281195 1314.02108327 109.59782549 C1302.85912207 109.59988217 1291.69716085 109.60186222 1280.53519964 109.60385799 C1278.68531176 109.60418976 1278.68531176 109.60418976 1276.79805241 109.60452823 C1206.11474232 109.61717853 1135.43143284 109.62542623 1064.74812156 109.62451112 C1062.1022389 109.62447957 1059.45635624 109.62444809 1056.81047359 109.62441671 C1044.86421503 109.62426994 1032.91795647 109.6240936 1020.97169791 109.62390894 C1015.6444271 109.62382669 1010.31715629 109.6237464 1004.98988548 109.62366631 C1002.32348881 109.62362552 999.65709214 109.62358376 996.99069548 109.62354019 C934.04246787 109.62251733 871.0942454 109.62535316 808.14602023 109.64423501 C807.48329896 109.64443373 806.82057768 109.64463245 806.13777394 109.64483719 C785.43121269 109.65105989 764.72465161 109.6577931 744.01809055 109.66462076 C722.77158645 109.67162261 701.52508233 109.67856145 680.2785781 109.68514955 C678.97040301 109.6855553 677.66222792 109.68596105 676.31441116 109.68637909 C636.00538279 109.698806 595.69635579 109.70633961 555.38732558 109.70886552 C554.12207187 109.70894542 552.85681815 109.70902533 551.55322341 109.70910765 C523.7799298 109.71081407 496.00663628 109.71133663 468.23334263 109.7107669 C458.29592933 109.71057392 448.35851603 109.71046984 438.42110273 109.71040944 C435.9488609 109.71039361 433.47661906 109.7103732 431.00437723 109.71034819 C391.58717043 109.70999533 352.16997798 109.72140029 312.75277529 109.73865582 C273.0596315 109.75594384 233.36650761 109.76034839 193.67336164 109.74713318 C188.19114022 109.74530852 182.70891876 109.74362198 177.22669727 109.74201715 C176.15201012 109.74169698 175.07732298 109.7413768 173.97006955 109.74104692 C156.93803063 109.7363368 139.90602607 109.74506555 122.87399361 109.75935952 C106.13528724 109.77312711 89.39663174 109.77266936 72.65792651 109.75697525 C62.83899957 109.74819679 53.02022225 109.75039283 43.20130763 109.76870882 C36.68269955 109.77977804 30.16420331 109.77637658 23.64560388 109.76114325 C19.94873496 109.75291063 16.25216081 109.75086591 12.55530973 109.76664463 C8.57897481 109.78347735 4.60308688 109.76922948 0.62674582 109.75209498 C-1.07224203 109.76679384 -1.07224203 109.76679384 -2.80555287 109.78178965 C-17.60565205 109.64880791 -31.52514048 104.42432408 -42.13400906 94.00299966 C-53.7206465 81.75615497 -57.9708428 68.68793564 -57.79196805 51.99640787 C-57.25531453 36.14437855 -50.72780195 23.55716604 -39.33322781 12.61628091 C-27.51873826 3.34550766 -14.80736678 -0.05879952 0 0 Z " fill="#E3E3E6" transform="translate(323.32150906324387,1432.747000336647)"/>
<path d="M0 0 C1.85557743 -0.00457964 1.85557743 -0.00457964 3.74864128 -0.00925181 C7.18673607 -0.01570853 10.62461385 -0.01321108 14.06269508 -0.00696007 C17.81532581 -0.00235135 21.56793801 -0.00937093 25.32056502 -0.01489371 C31.92432529 -0.02300287 38.52805409 -0.02365224 45.13181754 -0.01948182 C55.01797916 -0.01327273 64.90411184 -0.01855356 74.79027135 -0.02607924 C91.63827677 -0.0385603 108.48627192 -0.04148946 125.33428127 -0.03924429 C142.41275485 -0.03699706 159.49121971 -0.03905771 176.56969196 -0.04638922 C177.64760059 -0.04684853 178.72550923 -0.04730783 179.83608177 -0.04778106 C184.22610379 -0.04966429 188.6161258 -0.05157566 193.00614779 -0.05352344 C238.8282243 -0.07382418 284.65029593 -0.07993585 330.47237643 -0.08110766 C335.40628314 -0.08123715 340.34018984 -0.08137303 345.27409655 -0.08151448 C346.49841908 -0.08154849 347.7227416 -0.0815825 348.98416481 -0.08161754 C376.10140989 -0.08243406 403.21865402 -0.08681262 430.3358986 -0.09182617 C441.4978598 -0.09388284 452.65982102 -0.09586289 463.82178223 -0.09785867 C465.67167011 -0.09819044 465.67167011 -0.09819044 467.55892946 -0.09852891 C538.24223955 -0.1111792 608.92554903 -0.1194269 679.60886031 -0.1185118 C682.25474297 -0.11848024 684.90062563 -0.11844877 687.54650829 -0.11841738 C699.49276685 -0.11827061 711.4390254 -0.11809427 723.38528396 -0.11790961 C728.71255477 -0.11782736 734.03982558 -0.11774707 739.36709639 -0.11766698 C742.03349306 -0.11762619 744.69988973 -0.11758443 747.3662864 -0.11754086 C810.314514 -0.11651801 873.26273647 -0.11935384 936.21096164 -0.13823569 C936.87368292 -0.13843441 937.53640419 -0.13863312 938.21920793 -0.13883786 C958.92576918 -0.14506056 979.63233027 -0.15179378 1000.33889133 -0.15862143 C1021.58539543 -0.16562329 1042.83189954 -0.17256213 1064.07840377 -0.17915022 C1065.38657886 -0.17955597 1066.69475395 -0.17996172 1068.04257071 -0.18037976 C1108.35159909 -0.19280667 1148.66062608 -0.20034029 1188.96965629 -0.2028662 C1190.23491001 -0.2029461 1191.50016373 -0.203026 1192.80375847 -0.20310832 C1220.57705207 -0.20481475 1248.35034559 -0.20533731 1276.12363924 -0.20476757 C1286.06105254 -0.2045746 1295.99846585 -0.20447051 1305.93587915 -0.20441011 C1308.40812098 -0.20439428 1310.88036281 -0.20437387 1313.35260464 -0.20434886 C1352.76981145 -0.203996 1392.18700389 -0.21540097 1431.60420658 -0.2326565 C1471.29735037 -0.24994451 1510.99047426 -0.25434906 1550.68362023 -0.24113385 C1556.16584166 -0.2393092 1561.64806312 -0.23762266 1567.13028461 -0.23601782 C1568.20497175 -0.23569765 1569.2796589 -0.23537747 1570.38691232 -0.2350476 C1587.41895124 -0.23033747 1604.4509558 -0.23906622 1621.48298827 -0.2533602 C1638.22169463 -0.26712779 1654.96035014 -0.26667003 1671.69905537 -0.25097592 C1681.51798231 -0.24219746 1691.33675962 -0.24439351 1701.15567424 -0.26270949 C1707.67428232 -0.27377871 1714.19277856 -0.27037726 1720.71137799 -0.25514393 C1724.40824691 -0.24691131 1728.10482107 -0.24486658 1731.80167214 -0.26064531 C1735.77800706 -0.27747802 1739.75389499 -0.26323015 1743.73023605 -0.24609566 C1745.42922391 -0.26079452 1745.42922391 -0.26079452 1747.16253474 -0.27579032 C1761.96263393 -0.14280858 1775.88212235 5.08167525 1786.49099094 15.50299966 C1798.07762837 27.74984436 1802.32782468 40.81806369 1802.14894992 57.50959146 C1801.61229641 73.36162077 1795.08478383 85.94883329 1783.69020969 96.88971841 C1771.87572013 106.16049167 1759.16434866 109.56479884 1744.35698187 109.50599933 C1743.11993025 109.50905242 1741.88287863 109.51210552 1740.60834059 109.51525113 C1737.1702458 109.52170786 1733.73236802 109.51921041 1730.29428679 109.5129594 C1726.54165607 109.50835067 1722.78904386 109.51537025 1719.03641686 109.52089304 C1712.43265658 109.5290022 1705.82892779 109.52965157 1699.22516433 109.52548115 C1689.33900271 109.51927205 1679.45287004 109.52455289 1669.56671052 109.53207856 C1652.7187051 109.54455962 1635.87070996 109.54748879 1619.02270061 109.54524362 C1601.94422703 109.54299639 1584.86576217 109.54505704 1567.78728992 109.55238855 C1566.70938128 109.55284785 1565.63147264 109.55330716 1564.52090011 109.55378039 C1560.13087808 109.55566362 1555.74085608 109.55757499 1551.35083408 109.55952277 C1505.52875757 109.57982351 1459.70668594 109.58593517 1413.88460544 109.58710699 C1408.95069874 109.58723648 1404.01679203 109.58737236 1399.08288532 109.5875138 C1397.8585628 109.58754781 1396.63424027 109.58758182 1395.37281706 109.58761686 C1368.25557199 109.58843338 1341.13832785 109.59281195 1314.02108327 109.59782549 C1302.85912207 109.59988217 1291.69716085 109.60186222 1280.53519964 109.60385799 C1278.68531176 109.60418976 1278.68531176 109.60418976 1276.79805241 109.60452823 C1206.11474232 109.61717853 1135.43143284 109.62542623 1064.74812156 109.62451112 C1062.1022389 109.62447957 1059.45635624 109.62444809 1056.81047359 109.62441671 C1044.86421503 109.62426994 1032.91795647 109.6240936 1020.97169791 109.62390894 C1015.6444271 109.62382669 1010.31715629 109.6237464 1004.98988548 109.62366631 C1002.32348881 109.62362552 999.65709214 109.62358376 996.99069548 109.62354019 C934.04246787 109.62251733 871.0942454 109.62535316 808.14602023 109.64423501 C807.48329896 109.64443373 806.82057768 109.64463245 806.13777394 109.64483719 C785.43121269 109.65105989 764.72465161 109.6577931 744.01809055 109.66462076 C722.77158645 109.67162261 701.52508233 109.67856145 680.2785781 109.68514955 C678.97040301 109.6855553 677.66222792 109.68596105 676.31441116 109.68637909 C636.00538279 109.698806 595.69635579 109.70633961 555.38732558 109.70886552 C554.12207187 109.70894542 552.85681815 109.70902533 551.55322341 109.70910765 C523.7799298 109.71081407 496.00663628 109.71133663 468.23334263 109.7107669 C458.29592933 109.71057392 448.35851603 109.71046984 438.42110273 109.71040944 C435.9488609 109.71039361 433.47661906 109.7103732 431.00437723 109.71034819 C391.58717043 109.70999533 352.16997798 109.72140029 312.75277529 109.73865582 C273.0596315 109.75594384 233.36650761 109.76034839 193.67336164 109.74713318 C188.19114022 109.74530852 182.70891876 109.74362198 177.22669727 109.74201715 C176.15201012 109.74169698 175.07732298 109.7413768 173.97006955 109.74104692 C156.93803063 109.7363368 139.90602607 109.74506555 122.87399361 109.75935952 C106.13528724 109.77312711 89.39663174 109.77266936 72.65792651 109.75697525 C62.83899957 109.74819679 53.02022225 109.75039283 43.20130763 109.76870882 C36.68269955 109.77977804 30.16420331 109.77637658 23.64560388 109.76114325 C19.94873496 109.75291063 16.25216081 109.75086591 12.55530973 109.76664463 C8.57897481 109.78347735 4.60308688 109.76922948 0.62674582 109.75209498 C-1.07224203 109.76679384 -1.07224203 109.76679384 -2.80555287 109.78178965 C-17.60565205 109.64880791 -31.52514048 104.42432408 -42.13400906 94.00299966 C-53.7206465 81.75615497 -57.9708428 68.68793564 -57.79196805 51.99640787 C-57.25531453 36.14437855 -50.72780195 23.55716604 -39.33322781 12.61628091 C-27.51873826 3.34550766 -14.80736678 -0.05879952 0 0 Z " fill="#E3E3E6" transform="translate(325.32150906324387,890.747000336647)"/>
<path d="M0 0 C1.35069731 -0.00310373 2.70139211 -0.00752156 4.05208136 -0.01312479 C7.76682656 -0.02472686 11.48133756 -0.01767757 15.19607855 -0.00759903 C19.25129332 0.00007733 23.3064728 -0.00970569 27.36168265 -0.01723954 C34.49735506 -0.02808297 41.63295982 -0.0277406 48.76863544 -0.02016651 C59.45103682 -0.00888197 70.13338091 -0.0148658 80.81578166 -0.0242305 C99.02076224 -0.03967798 117.22571894 -0.04083205 135.43070376 -0.03425127 C153.88426942 -0.02762863 172.337818 -0.02749212 190.79138339 -0.03529841 C191.95613328 -0.03578641 193.12088317 -0.0362744 194.32092851 -0.03677719 C199.06463333 -0.03878533 203.80833812 -0.04083842 208.5520429 -0.04294893 C256.73390151 -0.06436281 304.91574749 -0.06640107 353.09760967 -0.06089189 C359.75783203 -0.0601362 366.41805439 -0.05940722 373.07827675 -0.05870992 C373.73954229 -0.05864004 374.40080782 -0.05857017 375.08211171 -0.05849817 C405.71626659 -0.05529314 436.35041997 -0.0584353 466.98457466 -0.06289771 C470.32583825 -0.06338155 473.66710183 -0.06385156 477.00836542 -0.06432184 C482.37121582 -0.06507778 487.73406622 -0.06583602 493.09691662 -0.06659876 C493.76192638 -0.06669331 494.42693613 -0.06678786 495.11209769 -0.06688528 C498.4749411 -0.06736399 501.83778451 -0.06784543 505.20062792 -0.06833139 C536.58500435 -0.0728659 567.96938084 -0.07636424 599.3537575 -0.07883459 C600.37949849 -0.07891575 600.37949849 -0.07891575 601.42596152 -0.07899855 C645.71767853 -0.08248137 690.009394 -0.08112452 734.30111086 -0.07644469 C735.72994327 -0.0762948 737.15877568 -0.07614499 738.58760808 -0.07599527 C754.36181634 -0.07433868 770.13602459 -0.07258702 785.91023283 -0.07080226 C786.97828264 -0.07068151 786.97828264 -0.07068151 788.06790922 -0.07055832 C790.22648524 -0.07031426 792.38506126 -0.07007007 794.54363729 -0.06982581 C795.25624796 -0.06974518 795.96885863 -0.06966455 796.70306356 -0.06958147 C800.30373087 -0.06917379 803.90439819 -0.06876469 807.5050655 -0.06835312 C879.13383618 -0.06017384 950.76259829 -0.05830279 1078.67832305 -0.08879443 C1102.3568713 -0.09493365 1126.03541957 -0.10101605 1149.71396792 -0.1067639 C1150.77430959 -0.10702192 1150.77430959 -0.10702192 1151.8560723 -0.10728516 C1196.12258904 -0.11804404 1240.38910407 -0.12393082 1284.65562212 -0.12432104 C1285.33923684 -0.12432756 1286.02285155 -0.12433407 1286.72718186 -0.12434079 C1317.42231222 -0.12462228 1348.11744243 -0.12363122 1378.81257271 -0.12145072 C1389.54825319 -0.12069123 1400.28393368 -0.12001726 1411.01961417 -0.11937057 C1413.69046203 -0.11920934 1416.36130989 -0.11904123 1419.03215774 -0.11886756 C1449.66678624 -0.11690874 1480.30141108 -0.11770882 1510.93603814 -0.12717229 C1511.59680682 -0.12737591 1512.25757551 -0.12757952 1512.9383675 -0.12778931 C1524.22802915 -0.13128111 1535.51769073 -0.13500762 1546.80735231 -0.13872166 C1590.8845951 -0.15311576 1634.96181558 -0.15269658 1679.0390576 -0.13534694 C1683.76896517 -0.13354269 1688.49887277 -0.13180251 1693.22878039 -0.13011271 C1694.38960727 -0.12969221 1695.55043415 -0.12927171 1696.7464376 -0.12883846 C1715.15217621 -0.1225324 1733.55788426 -0.12965739 1751.96361857 -0.14232191 C1770.04723352 -0.15448275 1788.13080007 -0.15243221 1806.21441133 -0.13510159 C1816.82560956 -0.12535904 1827.43667056 -0.12661492 1838.04785991 -0.14393157 C1845.08855858 -0.15433341 1852.12915227 -0.15031906 1859.16984046 -0.13441508 C1863.16527383 -0.12579747 1867.16043486 -0.12343885 1871.15585415 -0.13879881 C1874.78343382 -0.15262778 1878.41050825 -0.14794467 1882.03805904 -0.1287157 C1883.94641205 -0.12329184 1885.85479055 -0.13737891 1887.76309228 -0.15238451 C1899.61931885 -0.05206348 1908.99210839 3.11636972 1917.64148295 11.37719816 C1919.97665257 13.88437804 1921.86924509 16.44681093 1923.64148295 19.37719816 C1924.26216654 20.39813566 1924.26216654 20.39813566 1924.8953892 21.43969816 C1929.40820519 30.49677834 1929.08560508 42.28127247 1926.7938267 51.95532316 C1922.70641236 62.76272379 1915.1030859 70.56454522 1904.64148295 75.37719816 C1897.99743066 77.85169998 1891.56073166 77.65594377 1884.53136289 77.63019782 C1883.18324942 77.63243343 1881.83513717 77.63554497 1880.4870275 77.63944963 C1876.77017174 77.64766384 1873.05341801 77.64340126 1869.33656225 77.63715789 C1865.28249189 77.63255596 1861.22843881 77.63956551 1857.1743719 77.64509153 C1850.03760482 77.65320684 1842.90086686 77.65384733 1835.76409683 77.64967965 C1825.08001621 77.64347461 1814.39596241 77.64874826 1803.71188375 77.65627706 C1785.50481158 77.66876261 1767.2977489 77.67168662 1749.09067309 77.66944212 C1730.63304492 77.66719536 1712.17542481 77.66925388 1693.71779788 77.67658705 C1691.97075912 77.677276 1691.97075912 77.677276 1690.18842665 77.67797888 C1685.44500808 77.6798621 1680.70158952 77.68177347 1675.95817097 77.68372126 C1626.4402536 77.70402512 1576.92234075 77.71013378 1527.40441969 77.71130548 C1522.73980247 77.71141876 1518.07518525 77.71153534 1513.41056803 77.71165924 C1512.07475075 77.71169462 1510.73893348 77.71172937 1509.40311621 77.71176348 C1479.43191247 77.71253883 1449.46070958 77.71689562 1419.48950627 77.72202399 C1412.80183233 77.72316711 1406.11415837 77.72427505 1399.42648442 77.72538526 C1398.43073122 77.72555062 1398.43073122 77.72555062 1397.4148618 77.72571933 C1393.38527822 77.72638833 1389.35569464 77.72705586 1385.32611106 77.72772245 C1383.30752069 77.72805661 1381.28893032 77.72839163 1379.27033994 77.72872673 C1347.88405606 77.73393063 1316.49777209 77.73839118 1285.11148798 77.74209112 C1284.0856671 77.74221223 1284.0856671 77.74221223 1283.03912255 77.74233579 C1239.45569412 77.74746251 1195.87226622 77.74926074 1152.2888375 77.74873512 C1150.14549714 77.74870961 1148.00215677 77.74868569 1145.8588164 77.7486623 C1130.80076025 77.74849762 1115.74270409 77.7482922 1100.68464793 77.74807654 C1096.36712132 77.748015 1092.04959471 77.74795487 1087.7320681 77.74789491 C1084.13068603 77.74784472 1080.52930397 77.74779314 1076.9279219 77.74773869 C1008.9038714 77.74671579 940.87982563 77.74955243 872.85577738 77.76843351 C872.1395887 77.76863223 871.42340002 77.76883095 870.68550865 77.76903568 C848.30836586 77.77525839 825.93122322 77.78199137 803.55408061 77.78881925 C780.59359456 77.79582203 757.6331085 77.80276292 734.67262232 77.80934805 C733.9656658 77.8095511 733.25870928 77.80975415 732.53032984 77.80996336 C688.25977018 77.82266046 643.98921187 77.83050516 599.71865046 77.83306402 C598.69312777 77.8331241 598.69312777 77.8331241 597.64688745 77.8331854 C567.62215956 77.834936 537.59743174 77.83557561 507.5727038 77.83500363 C495.49394775 77.83477506 483.41519169 77.83466293 471.33643563 77.83459699 C469.3337046 77.83458419 467.33097356 77.83456603 465.32824253 77.83454669 C434.68975656 77.83427366 404.05127461 77.83696807 373.41279089 77.84863704 C372.42149468 77.84901406 372.42149468 77.84901406 371.41017228 77.84939869 C360.11882842 77.85370887 348.82748467 77.85828115 337.53614091 77.86285432 C294.64361048 77.88013816 251.75109845 77.88455048 208.858566 77.87133168 C202.93596813 77.86950699 197.01337021 77.86782046 191.09077227 77.86621565 C189.92974474 77.86589547 188.76871721 77.8655753 187.57250702 77.86524542 C169.16354801 77.86053317 150.75462078 77.86926892 132.34566774 77.88355802 C114.25883008 77.89731721 96.1720395 77.89687766 78.0852029 77.88117375 C67.47206773 77.87238727 56.85907095 77.87461031 46.24594713 77.89290732 C39.2039491 77.90396028 32.16205473 77.90059603 25.12006474 77.88534175 C21.12388529 77.87709333 17.12797887 77.8751063 13.13181574 77.89084313 C9.50356047 77.90501455 5.87580887 77.90066972 2.2475794 77.88177575 C0.33886274 77.87652948 -1.56987758 77.89079948 -3.47854101 77.90598814 C-15.19080957 77.807979 -24.91766354 74.73842098 -33.35851705 66.37719816 C-40.45231375 57.91708653 -43.93721524 50.03789318 -43.79601705 39.00219816 C-43.78356954 37.74657072 -43.78356954 37.74657072 -43.77087057 36.46557707 C-43.48085198 25.85358032 -39.77645463 18.00748128 -32.35851705 10.37719816 C-22.23856075 1.74842747 -13.06000981 -0.0745388 0 0 Z " fill="#E3E3E6" transform="translate(315.3585170507431,1961.6228018403053)"/>
<path d="M0 0 C1.35069731 -0.00310373 2.70139211 -0.00752156 4.05208136 -0.01312479 C7.76682656 -0.02472686 11.48133756 -0.01767757 15.19607855 -0.00759903 C19.25129332 0.00007733 23.3064728 -0.00970569 27.36168265 -0.01723954 C34.49735506 -0.02808297 41.63295982 -0.0277406 48.76863544 -0.02016651 C59.45103682 -0.00888197 70.13338091 -0.0148658 80.81578166 -0.0242305 C99.02076224 -0.03967798 117.22571894 -0.04083205 135.43070376 -0.03425127 C153.88426942 -0.02762863 172.337818 -0.02749212 190.79138339 -0.03529841 C191.95613328 -0.03578641 193.12088317 -0.0362744 194.32092851 -0.03677719 C199.06463333 -0.03878533 203.80833812 -0.04083842 208.5520429 -0.04294893 C256.73390151 -0.06436281 304.91574749 -0.06640107 353.09760967 -0.06089189 C359.75783203 -0.0601362 366.41805439 -0.05940722 373.07827675 -0.05870992 C373.73954229 -0.05864004 374.40080782 -0.05857017 375.08211171 -0.05849817 C405.71626659 -0.05529314 436.35041997 -0.0584353 466.98457466 -0.06289771 C470.32583825 -0.06338155 473.66710183 -0.06385156 477.00836542 -0.06432184 C482.37121582 -0.06507778 487.73406622 -0.06583602 493.09691662 -0.06659876 C493.76192638 -0.06669331 494.42693613 -0.06678786 495.11209769 -0.06688528 C498.4749411 -0.06736399 501.83778451 -0.06784543 505.20062792 -0.06833139 C536.58500435 -0.0728659 567.96938084 -0.07636424 599.3537575 -0.07883459 C600.37949849 -0.07891575 600.37949849 -0.07891575 601.42596152 -0.07899855 C645.71767853 -0.08248137 690.009394 -0.08112452 734.30111086 -0.07644469 C735.72994327 -0.0762948 737.15877568 -0.07614499 738.58760808 -0.07599527 C754.36181634 -0.07433868 770.13602459 -0.07258702 785.91023283 -0.07080226 C786.97828264 -0.07068151 786.97828264 -0.07068151 788.06790922 -0.07055832 C790.22648524 -0.07031426 792.38506126 -0.07007007 794.54363729 -0.06982581 C795.25624796 -0.06974518 795.96885863 -0.06966455 796.70306356 -0.06958147 C800.30373087 -0.06917379 803.90439819 -0.06876469 807.5050655 -0.06835312 C879.13383618 -0.06017384 950.76259829 -0.05830279 1078.67832305 -0.08879443 C1102.3568713 -0.09493365 1126.03541957 -0.10101605 1149.71396792 -0.1067639 C1150.77430959 -0.10702192 1150.77430959 -0.10702192 1151.8560723 -0.10728516 C1196.12258904 -0.11804404 1240.38910407 -0.12393082 1284.65562212 -0.12432104 C1285.33923684 -0.12432756 1286.02285155 -0.12433407 1286.72718186 -0.12434079 C1317.42231222 -0.12462228 1348.11744243 -0.12363122 1378.81257271 -0.12145072 C1389.54825319 -0.12069123 1400.28393368 -0.12001726 1411.01961417 -0.11937057 C1413.69046203 -0.11920934 1416.36130989 -0.11904123 1419.03215774 -0.11886756 C1449.66678624 -0.11690874 1480.30141108 -0.11770882 1510.93603814 -0.12717229 C1511.59680682 -0.12737591 1512.25757551 -0.12757952 1512.9383675 -0.12778931 C1524.22802915 -0.13128111 1535.51769073 -0.13500762 1546.80735231 -0.13872166 C1590.8845951 -0.15311576 1634.96181558 -0.15269658 1679.0390576 -0.13534694 C1683.76896517 -0.13354269 1688.49887277 -0.13180251 1693.22878039 -0.13011271 C1694.38960727 -0.12969221 1695.55043415 -0.12927171 1696.7464376 -0.12883846 C1715.15217621 -0.1225324 1733.55788426 -0.12965739 1751.96361857 -0.14232191 C1770.04723352 -0.15448275 1788.13080007 -0.15243221 1806.21441133 -0.13510159 C1816.82560956 -0.12535904 1827.43667056 -0.12661492 1838.04785991 -0.14393157 C1845.08855858 -0.15433341 1852.12915227 -0.15031906 1859.16984046 -0.13441508 C1863.16527383 -0.12579747 1867.16043486 -0.12343885 1871.15585415 -0.13879881 C1874.78343382 -0.15262778 1878.41050825 -0.14794467 1882.03805904 -0.1287157 C1883.94641205 -0.12329184 1885.85479055 -0.13737891 1887.76309228 -0.15238451 C1899.61931885 -0.05206348 1908.99210839 3.11636972 1917.64148295 11.37719816 C1919.97665257 13.88437804 1921.86924509 16.44681093 1923.64148295 19.37719816 C1924.26216654 20.39813566 1924.26216654 20.39813566 1924.8953892 21.43969816 C1929.40820519 30.49677834 1929.08560508 42.28127247 1926.7938267 51.95532316 C1922.70641236 62.76272379 1915.1030859 70.56454522 1904.64148295 75.37719816 C1897.99743066 77.85169998 1891.56073166 77.65594377 1884.53136289 77.63019782 C1883.18324942 77.63243343 1881.83513717 77.63554497 1880.4870275 77.63944963 C1876.77017174 77.64766384 1873.05341801 77.64340126 1869.33656225 77.63715789 C1865.28249189 77.63255596 1861.22843881 77.63956551 1857.1743719 77.64509153 C1850.03760482 77.65320684 1842.90086686 77.65384733 1835.76409683 77.64967965 C1825.08001621 77.64347461 1814.39596241 77.64874826 1803.71188375 77.65627706 C1785.50481158 77.66876261 1767.2977489 77.67168662 1749.09067309 77.66944212 C1730.63304492 77.66719536 1712.17542481 77.66925388 1693.71779788 77.67658705 C1691.97075912 77.677276 1691.97075912 77.677276 1690.18842665 77.67797888 C1685.44500808 77.6798621 1680.70158952 77.68177347 1675.95817097 77.68372126 C1626.4402536 77.70402512 1576.92234075 77.71013378 1527.40441969 77.71130548 C1522.73980247 77.71141876 1518.07518525 77.71153534 1513.41056803 77.71165924 C1512.07475075 77.71169462 1510.73893348 77.71172937 1509.40311621 77.71176348 C1479.43191247 77.71253883 1449.46070958 77.71689562 1419.48950627 77.72202399 C1412.80183233 77.72316711 1406.11415837 77.72427505 1399.42648442 77.72538526 C1398.43073122 77.72555062 1398.43073122 77.72555062 1397.4148618 77.72571933 C1393.38527822 77.72638833 1389.35569464 77.72705586 1385.32611106 77.72772245 C1383.30752069 77.72805661 1381.28893032 77.72839163 1379.27033994 77.72872673 C1347.88405606 77.73393063 1316.49777209 77.73839118 1285.11148798 77.74209112 C1284.0856671 77.74221223 1284.0856671 77.74221223 1283.03912255 77.74233579 C1239.45569412 77.74746251 1195.87226622 77.74926074 1152.2888375 77.74873512 C1150.14549714 77.74870961 1148.00215677 77.74868569 1145.8588164 77.7486623 C1130.80076025 77.74849762 1115.74270409 77.7482922 1100.68464793 77.74807654 C1096.36712132 77.748015 1092.04959471 77.74795487 1087.7320681 77.74789491 C1084.13068603 77.74784472 1080.52930397 77.74779314 1076.9279219 77.74773869 C1008.9038714 77.74671579 940.87982563 77.74955243 872.85577738 77.76843351 C872.1395887 77.76863223 871.42340002 77.76883095 870.68550865 77.76903568 C848.30836586 77.77525839 825.93122322 77.78199137 803.55408061 77.78881925 C780.59359456 77.79582203 757.6331085 77.80276292 734.67262232 77.80934805 C733.9656658 77.8095511 733.25870928 77.80975415 732.53032984 77.80996336 C688.25977018 77.82266046 643.98921187 77.83050516 599.71865046 77.83306402 C598.69312777 77.8331241 598.69312777 77.8331241 597.64688745 77.8331854 C567.62215956 77.834936 537.59743174 77.83557561 507.5727038 77.83500363 C495.49394775 77.83477506 483.41519169 77.83466293 471.33643563 77.83459699 C469.3337046 77.83458419 467.33097356 77.83456603 465.32824253 77.83454669 C434.68975656 77.83427366 404.05127461 77.83696807 373.41279089 77.84863704 C372.42149468 77.84901406 372.42149468 77.84901406 371.41017228 77.84939869 C360.11882842 77.85370887 348.82748467 77.85828115 337.53614091 77.86285432 C294.64361048 77.88013816 251.75109845 77.88455048 208.858566 77.87133168 C202.93596813 77.86950699 197.01337021 77.86782046 191.09077227 77.86621565 C189.92974474 77.86589547 188.76871721 77.8655753 187.57250702 77.86524542 C169.16354801 77.86053317 150.75462078 77.86926892 132.34566774 77.88355802 C114.25883008 77.89731721 96.1720395 77.89687766 78.0852029 77.88117375 C67.47206773 77.87238727 56.85907095 77.87461031 46.24594713 77.89290732 C39.2039491 77.90396028 32.16205473 77.90059603 25.12006474 77.88534175 C21.12388529 77.87709333 17.12797887 77.8751063 13.13181574 77.89084313 C9.50356047 77.90501455 5.87580887 77.90066972 2.2475794 77.88177575 C0.33886274 77.87652948 -1.56987758 77.89079948 -3.47854101 77.90598814 C-15.19080957 77.807979 -24.91766354 74.73842098 -33.35851705 66.37719816 C-40.45231375 57.91708653 -43.93721524 50.03789318 -43.79601705 39.00219816 C-43.78356954 37.74657072 -43.78356954 37.74657072 -43.77087057 36.46557707 C-43.48085198 25.85358032 -39.77645463 18.00748128 -32.35851705 10.37719816 C-22.23856075 1.74842747 -13.06000981 -0.0745388 0 0 Z " fill="#E3E3E6" transform="translate(309.3585170507431,1262.6228018403053)"/>
<path d="M0 0 C1.77826381 -0.00525911 1.77826381 -0.00525911 3.59245214 -0.01062447 C6.88015114 -0.01831963 10.16770633 -0.01709012 13.45540601 -0.01206893 C17.03338559 -0.00879718 20.61134167 -0.01708909 24.18931371 -0.02388728 C30.45937952 -0.03418907 36.72941444 -0.03703076 42.99948788 -0.03497505 C52.32353666 -0.03192554 61.64755127 -0.04024796 70.97159341 -0.0507243 C88.59362028 -0.07007081 106.21563553 -0.07569277 123.83767178 -0.07683842 C137.44625931 -0.07775736 151.05484226 -0.0818733 164.66342831 -0.08823967 C168.58009141 -0.09003475 172.49675452 -0.09181438 176.41341764 -0.09358943 C177.38710256 -0.09403152 178.36078748 -0.09447362 179.363978 -0.09492911 C206.75389475 -0.10723838 234.14380992 -0.11513015 261.53372955 -0.11424255 C263.08287458 -0.11419582 263.08287458 -0.11419582 264.66331547 -0.11414814 C269.8978333 -0.11398192 275.13235112 -0.11378384 280.36686894 -0.11357872 C281.92626975 -0.11351889 281.92626975 -0.11351889 283.51717361 -0.11345784 C285.61949969 -0.11337697 287.72182577 -0.11329337 289.82415185 -0.11320706 C322.5324887 -0.11198157 355.24078409 -0.12699407 387.94910908 -0.15435219 C424.69393224 -0.18507385 461.43872815 -0.20228463 498.18356496 -0.20042574 C502.10179985 -0.20027648 506.02003473 -0.20017907 509.93826962 -0.20011711 C510.9030433 -0.2000938 511.86781698 -0.20007049 512.86182623 -0.20004648 C528.387048 -0.19998493 543.91223376 -0.21275629 559.43744482 -0.22998164 C575.04119943 -0.24693605 590.64490138 -0.24891346 606.24866011 -0.235763 C615.51753522 -0.22837255 624.78625034 -0.23203464 634.0551085 -0.25164768 C640.24979068 -0.2636477 646.444357 -0.26105637 652.63903387 -0.24670668 C656.16643793 -0.23894384 659.6935324 -0.23739105 663.22091462 -0.25362138 C667.02808334 -0.2677442 670.83443005 -0.25715306 674.64157104 -0.24050903 C675.72657055 -0.25044539 676.81157006 -0.26038175 677.92944834 -0.27061921 C691.91611355 -0.14148407 703.07213103 4.55988204 713.32288837 13.88226891 C722.2320557 23.14709161 725.55283293 35.15084621 725.50111103 47.69476891 C725.18331152 61.19979048 719.0992278 72.16122762 709.47132587 81.40180016 C699.16511435 89.58817218 688.01266815 91.56229658 675.27077675 91.51453781 C673.49251294 91.51979692 673.49251294 91.51979692 671.67832461 91.52516228 C668.39062561 91.53285745 665.10307042 91.53162793 661.81537074 91.52660674 C658.23739116 91.52333499 654.65943508 91.5316269 651.08146304 91.53842509 C644.81139723 91.54872689 638.5413623 91.55156857 632.27128887 91.54951286 C622.94724009 91.54646335 613.62322548 91.55478577 604.29918334 91.56526211 C586.67715646 91.58460862 569.05514122 91.59023058 551.43310497 91.59137623 C537.82451744 91.59229517 524.21593448 91.59641111 510.60734844 91.60277748 C506.69068534 91.60457256 502.77402223 91.60635219 498.85735911 91.60812724 C497.88367419 91.60856933 496.90998927 91.60901143 495.90679874 91.60946692 C468.516882 91.62177619 441.12696683 91.62966796 413.7370472 91.62878036 C412.18790216 91.62873363 412.18790216 91.62873363 410.60746128 91.62868595 C405.37294345 91.62851973 400.13842563 91.62832165 394.90390781 91.62811653 C393.344507 91.6280567 393.344507 91.6280567 391.75360314 91.62799565 C389.65127706 91.62791478 387.54895098 91.62783118 385.4466249 91.62774487 C352.73828804 91.62651938 320.02999266 91.64153189 287.32166767 91.66889 C250.57684451 91.69961166 213.8320486 91.71682244 177.08721179 91.71496356 C173.1689769 91.71481429 169.25074202 91.71471688 165.33250713 91.71465492 C164.36773345 91.71463161 163.40295977 91.71460831 162.40895052 91.71458429 C146.88372875 91.71452275 131.35854299 91.7272941 115.83333193 91.74451945 C100.22957732 91.76147386 84.62587537 91.76345127 69.02211664 91.75030081 C59.75324153 91.74291036 50.48452641 91.74657245 41.21566825 91.76618549 C35.02098607 91.77818551 28.82641975 91.77559418 22.63174288 91.76124449 C19.10433882 91.75348165 15.57724435 91.75192886 12.04986212 91.7681592 C8.2426934 91.78228201 4.4363467 91.77169087 0.6292057 91.75504684 C-0.4557938 91.7649832 -1.54079331 91.77491956 -2.65867159 91.78515702 C-16.6453368 91.65602188 -27.80135428 86.95465577 -38.05211163 77.63226891 C-46.96127895 68.3674462 -50.28205619 56.36369161 -50.23033428 43.81976891 C-49.91253477 30.31474733 -43.82845105 19.3533102 -34.20054913 10.11273766 C-23.89433761 1.92636563 -12.7418914 -0.04775877 0 0 Z " fill="#E3E3E6" transform="translate(321.8646116256714,1774.7427310943604)"/>
<path d="M0 0 C1.77826381 -0.00525911 1.77826381 -0.00525911 3.59245214 -0.01062447 C6.88015114 -0.01831963 10.16770633 -0.01709012 13.45540601 -0.01206893 C17.03338559 -0.00879718 20.61134167 -0.01708909 24.18931371 -0.02388728 C30.45937952 -0.03418907 36.72941444 -0.03703076 42.99948788 -0.03497505 C52.32353666 -0.03192554 61.64755127 -0.04024796 70.97159341 -0.0507243 C88.59362028 -0.07007081 106.21563553 -0.07569277 123.83767178 -0.07683842 C137.44625931 -0.07775736 151.05484226 -0.0818733 164.66342831 -0.08823967 C168.58009141 -0.09003475 172.49675452 -0.09181438 176.41341764 -0.09358943 C177.38710256 -0.09403152 178.36078748 -0.09447362 179.363978 -0.09492911 C206.75389475 -0.10723838 234.14380992 -0.11513015 261.53372955 -0.11424255 C263.08287458 -0.11419582 263.08287458 -0.11419582 264.66331547 -0.11414814 C269.8978333 -0.11398192 275.13235112 -0.11378384 280.36686894 -0.11357872 C281.92626975 -0.11351889 281.92626975 -0.11351889 283.51717361 -0.11345784 C285.61949969 -0.11337697 287.72182577 -0.11329337 289.82415185 -0.11320706 C322.5324887 -0.11198157 355.24078409 -0.12699407 387.94910908 -0.15435219 C424.69393224 -0.18507385 461.43872815 -0.20228463 498.18356496 -0.20042574 C502.10179985 -0.20027648 506.02003473 -0.20017907 509.93826962 -0.20011711 C510.9030433 -0.2000938 511.86781698 -0.20007049 512.86182623 -0.20004648 C528.387048 -0.19998493 543.91223376 -0.21275629 559.43744482 -0.22998164 C575.04119943 -0.24693605 590.64490138 -0.24891346 606.24866011 -0.235763 C615.51753522 -0.22837255 624.78625034 -0.23203464 634.0551085 -0.25164768 C640.24979068 -0.2636477 646.444357 -0.26105637 652.63903387 -0.24670668 C656.16643793 -0.23894384 659.6935324 -0.23739105 663.22091462 -0.25362138 C667.02808334 -0.2677442 670.83443005 -0.25715306 674.64157104 -0.24050903 C675.72657055 -0.25044539 676.81157006 -0.26038175 677.92944834 -0.27061921 C691.91611355 -0.14148407 703.07213103 4.55988204 713.32288837 13.88226891 C722.2320557 23.14709161 725.55283293 35.15084621 725.50111103 47.69476891 C725.18331152 61.19979048 719.0992278 72.16122762 709.47132587 81.40180016 C699.16511435 89.58817218 688.01266815 91.56229658 675.27077675 91.51453781 C673.49251294 91.51979692 673.49251294 91.51979692 671.67832461 91.52516228 C668.39062561 91.53285745 665.10307042 91.53162793 661.81537074 91.52660674 C658.23739116 91.52333499 654.65943508 91.5316269 651.08146304 91.53842509 C644.81139723 91.54872689 638.5413623 91.55156857 632.27128887 91.54951286 C622.94724009 91.54646335 613.62322548 91.55478577 604.29918334 91.56526211 C586.67715646 91.58460862 569.05514122 91.59023058 551.43310497 91.59137623 C537.82451744 91.59229517 524.21593448 91.59641111 510.60734844 91.60277748 C506.69068534 91.60457256 502.77402223 91.60635219 498.85735911 91.60812724 C497.88367419 91.60856933 496.90998927 91.60901143 495.90679874 91.60946692 C468.516882 91.62177619 441.12696683 91.62966796 413.7370472 91.62878036 C412.18790216 91.62873363 412.18790216 91.62873363 410.60746128 91.62868595 C405.37294345 91.62851973 400.13842563 91.62832165 394.90390781 91.62811653 C393.344507 91.6280567 393.344507 91.6280567 391.75360314 91.62799565 C389.65127706 91.62791478 387.54895098 91.62783118 385.4466249 91.62774487 C352.73828804 91.62651938 320.02999266 91.64153189 287.32166767 91.66889 C250.57684451 91.69961166 213.8320486 91.71682244 177.08721179 91.71496356 C173.1689769 91.71481429 169.25074202 91.71471688 165.33250713 91.71465492 C164.36773345 91.71463161 163.40295977 91.71460831 162.40895052 91.71458429 C146.88372875 91.71452275 131.35854299 91.7272941 115.83333193 91.74451945 C100.22957732 91.76147386 84.62587537 91.76345127 69.02211664 91.75030081 C59.75324153 91.74291036 50.48452641 91.74657245 41.21566825 91.76618549 C35.02098607 91.77818551 28.82641975 91.77559418 22.63174288 91.76124449 C19.10433882 91.75348165 15.57724435 91.75192886 12.04986212 91.7681592 C8.2426934 91.78228201 4.4363467 91.77169087 0.6292057 91.75504684 C-0.4557938 91.7649832 -1.54079331 91.77491956 -2.65867159 91.78515702 C-16.6453368 91.65602188 -27.80135428 86.95465577 -38.05211163 77.63226891 C-46.96127895 68.3674462 -50.28205619 56.36369161 -50.23033428 43.81976891 C-49.91253477 30.31474733 -43.82845105 19.3533102 -34.20054913 10.11273766 C-23.89433761 1.92636563 -12.7418914 -0.04775877 0 0 Z " fill="#E3E3E6" transform="translate(315.8646116256714,1075.7427310943604)"/>
<path d="M0 0 C1.11912021 -0.00222413 1.11912021 -0.00222413 2.26084891 -0.0044932 C4.76354287 -0.00824634 7.26617598 -0.00488268 9.76886982 -0.00156133 C11.59065463 -0.00280423 13.41243918 -0.00448503 15.23422322 -0.00656369 C20.26847649 -0.01102628 25.30271142 -0.00923058 30.33696519 -0.00646191 C35.8236708 -0.00454393 41.31037279 -0.00841873 46.79707742 -0.0115587 C56.4597041 -0.0162801 66.12232565 -0.01725491 75.7849533 -0.01583035 C90.25041067 -0.01371339 104.71586366 -0.01731662 119.18132004 -0.02204513 C143.8314054 -0.03002409 168.48148947 -0.03301561 193.131576 -0.03349106 C218.12328738 -0.03398537 243.11499715 -0.03662847 268.10670799 -0.04189865 C269.69924394 -0.04223219 271.29177989 -0.04256566 272.88431584 -0.04289906 C279.30527969 -0.04424715 285.72624354 -0.04561045 292.14720739 -0.04699116 C362.79616709 -0.06216147 433.44512638 -0.06893453 504.09408746 -0.07341313 C505.43469219 -0.07349816 505.43469219 -0.07349816 506.80237985 -0.07358491 C511.3230603 -0.07387144 515.84374075 -0.07415647 520.3644212 -0.07443903 C558.23253524 -0.07681374 596.10064909 -0.08052332 633.96876299 -0.08447613 C652.10105536 -0.08636869 670.23334773 -0.08819719 688.3656401 -0.09001033 C689.26742558 -0.09010052 690.16921105 -0.09019071 691.09832336 -0.09028363 C734.50069693 -0.09461993 777.90307053 -0.09854824 821.30544418 -0.10201065 C822.69423394 -0.10212146 822.69423394 -0.10212146 824.11108006 -0.10223451 C883.11876231 -0.10692973 942.1264445 -0.1097526 1001.1341269 -0.11139743 C1005.97231587 -0.11153301 1010.81050483 -0.11167204 1015.6486938 -0.11181097 C1023.40553795 -0.11203345 1031.16238211 -0.11225482 1038.91922626 -0.11247485 C1040.36104032 -0.11251576 1040.36104032 -0.11251576 1041.83198195 -0.11255749 C1043.77466618 -0.1126126 1045.71735041 -0.11266771 1047.66003464 -0.11272282 C1061.28751039 -0.11310944 1074.91498614 -0.11349738 1088.54246189 -0.11389195 C1093.41866913 -0.11403306 1098.29487638 -0.11417313 1103.17108363 -0.11431085 C1195.27137275 -0.1169152 1287.37166019 -0.12224632 1379.47194809 -0.13819306 C1380.44156786 -0.13836085 1381.41118763 -0.13852864 1382.41018982 -0.13870152 C1412.70549519 -0.14395224 1443.0008005 -0.14952659 1473.2961058 -0.15516083 C1504.3810006 -0.16094175 1535.4658954 -0.16667227 1566.55079025 -0.17211716 C1567.98644927 -0.17236887 1567.98644927 -0.17236887 1569.45111151 -0.17262567 C1629.38669155 -0.18311765 1689.32227113 -0.18998011 1749.25785202 -0.19298355 C1750.18346057 -0.19303036 1751.10906912 -0.19307718 1752.06272641 -0.19312541 C1792.7121149 -0.195176 1833.36150339 -0.19642014 1874.01089193 -0.19677146 C1890.36397345 -0.19691473 1906.71705496 -0.19715339 1923.07013647 -0.19743552 C1925.78158478 -0.19748105 1928.49303308 -0.1975227 1931.20448139 -0.19756363 C1972.68561209 -0.19820984 2014.16674085 -0.20116975 2055.64787048 -0.21102421 C2056.54261844 -0.21123658 2057.4373664 -0.21144895 2058.35922794 -0.21166776 C2072.75266294 -0.2150966 2087.1460979 -0.21870955 2101.53953285 -0.22234416 C2142.3955198 -0.23265602 2183.25150439 -0.2414394 2224.10749286 -0.23949949 C2225.35076977 -0.23944139 2225.35076977 -0.23944139 2226.61916338 -0.2393821 C2244.70124003 -0.23850558 2262.78331651 -0.23679357 2280.865393 -0.23426248 C2288.07683693 -0.23326571 2295.28828086 -0.23237907 2302.49972481 -0.23152725 C2303.67970037 -0.23138342 2303.67970037 -0.23138342 2304.88351383 -0.23123669 C2329.84028402 -0.22824694 2354.79704049 -0.23448259 2379.75380787 -0.24604612 C2404.32587781 -0.25739299 2428.89792935 -0.25964725 2453.47000005 -0.24864061 C2468.51755856 -0.24190641 2483.56506909 -0.24309859 2498.61262381 -0.25798241 C2508.147277 -0.266598 2517.68188749 -0.26439912 2527.21653801 -0.2532837 C2532.62709408 -0.24728238 2538.0375365 -0.24597684 2543.44808517 -0.25796856 C2548.36054105 -0.26876901 2553.27278811 -0.26567723 2558.18523414 -0.25167589 C2559.94367463 -0.2490592 2561.7021318 -0.25140784 2563.46055567 -0.25948914 C2596.05244113 -0.39919526 2623.94080528 11.43276733 2647.32882065 34.12608917 C2666.36466061 53.09740086 2679.38070099 80.42203824 2679.46299985 107.51698775 C2679.46084538 108.4654374 2679.4586909 109.41388705 2679.45647115 110.39107759 C2679.45894731 111.93083127 2679.45894731 111.93083127 2679.46147351 113.50169108 C2679.46580437 116.95841596 2679.46299532 120.41509836 2679.46024841 123.87182434 C2679.46189776 126.37901206 2679.46398391 128.88619953 2679.46646851 131.39338656 C2679.47087951 136.87051908 2679.47216697 142.34763886 2679.47074017 147.82477273 C2679.46861988 156.02437379 2679.47223119 164.2239655 2679.47695494 172.42356511 C2679.48483112 186.39762975 2679.48791713 200.37169183 2679.48840088 214.34575851 C2679.48890305 228.5107607 2679.49154777 242.67576002 2679.49680847 256.84076126 C2679.4971386 257.73484805 2679.49746874 258.62893484 2679.49780887 259.55011517 C2679.49915885 263.19150094 2679.50052152 266.83288671 2679.50190098 270.47427246 C2679.5182092 313.59990384 2679.52459026 356.72553467 2679.52934885 399.85116861 C2679.53173143 421.32228039 2679.53543477 442.79339186 2679.53938595 464.26450341 C2679.55205074 533.12450844 2679.56283475 601.98451346 2679.5662264 670.84451964 C2679.56638865 674.13610303 2679.5665542 677.42768642 2679.56672079 680.71926981 C2679.56705459 687.32067448 2679.56738507 693.92207915 2679.56771535 700.52348383 C2679.56810225 708.25224776 2679.56849185 715.98101168 2679.56888641 723.70977561 C2679.56899883 725.92181678 2679.56911025 728.13385795 2679.56922067 730.34589912 C2679.57277048 801.39646929 2679.58785025 872.44702936 2679.61115841 943.49759567 C2679.62789853 994.54740236 2679.64337444 1045.59720714 2679.64789337 1096.6470166 C2679.6480336 1098.22159321 2679.6480336 1098.22159321 2679.64817666 1099.82797944 C2679.65019565 1122.87123473 2679.65135174 1145.91448998 2679.65170525 1168.95774534 C2679.65184142 1177.20299037 2679.65205041 1185.44823539 2679.6522985 1193.69348041 C2679.65236006 1195.74472198 2679.65241838 1197.79596355 2679.65247345 1199.84720512 C2679.65339348 1232.54058198 2679.6633643 1265.23394829 2679.67793093 1297.92732168 C2679.69254327 1330.85500579 2679.69759102 1363.78267694 2679.68951139 1396.71036372 C2679.68839601 1401.26031199 2679.68738535 1405.81026028 2679.68643707 1410.36020859 C2679.6862471 1411.2521245 2679.68605713 1412.14404042 2679.68586141 1413.0629841 C2679.68312758 1427.18657603 2679.69047031 1441.31014403 2679.70201044 1455.43373076 C2679.71314805 1469.32115866 2679.71358566 1483.20855271 2679.70264025 1497.09598113 C2679.69654405 1505.23767791 2679.69863793 1513.37927254 2679.71289223 1521.52095969 C2679.72255875 1527.56669381 2679.71655839 1533.61230602 2679.7044819 1539.65804023 C2679.70204642 1542.08771495 2679.70463708 1544.51740127 2679.71287838 1546.94706324 C2679.75227047 1559.37774131 2679.54320395 1571.0599014 2676.32882065 1583.12608917 C2676.04086787 1584.25312031 2676.04086787 1584.25312031 2675.74709786 1585.40291975 C2667.20159087 1616.51391429 2645.42245581 1640.04987938 2618.0592894 1656.03624542 C2604.03707175 1663.60458353 2587.61821518 1668.30634557 2571.65764129 1668.25217834 C2570.91156115 1668.2536611 2570.16548101 1668.25514385 2569.39679238 1668.25667154 C2566.89409842 1668.26042468 2564.39146531 1668.25706102 2561.88877147 1668.25373967 C2560.06698667 1668.25498257 2558.24520211 1668.25666337 2556.42341807 1668.25874203 C2551.38916481 1668.26320462 2546.35492987 1668.26140892 2541.3206761 1668.25864025 C2535.83397049 1668.25672227 2530.3472685 1668.26059707 2524.86056387 1668.26373704 C2515.1979372 1668.26845844 2505.53531564 1668.26943325 2495.872688 1668.26800869 C2481.40723062 1668.26589173 2466.94177763 1668.26949496 2452.47632125 1668.27422347 C2427.8262359 1668.28220243 2403.17615183 1668.28519395 2378.52606529 1668.2856694 C2353.53435391 1668.28616371 2328.54264415 1668.28880681 2303.5509333 1668.29407699 C2301.95839735 1668.29441053 2300.3658614 1668.294744 2298.77332545 1668.2950774 C2292.3523616 1668.29642549 2285.93139775 1668.29778879 2279.5104339 1668.2991695 C2208.8614742 1668.31433981 2138.21251491 1668.32111288 2067.56355384 1668.32559147 C2066.66981735 1668.32564816 2065.77608085 1668.32570485 2064.85526144 1668.32576326 C2060.33458099 1668.32604978 2055.81390054 1668.32633481 2051.29322009 1668.32661737 C2013.42510606 1668.32899208 1975.5569922 1668.33270166 1937.6888783 1668.33665447 C1919.55658593 1668.33854703 1901.42429356 1668.34037553 1883.29200119 1668.34218867 C1882.39021571 1668.34227886 1881.48843024 1668.34236905 1880.55931793 1668.34246197 C1837.15694436 1668.34679827 1793.75457076 1668.35072658 1750.35219711 1668.35418899 C1748.96340735 1668.3542998 1748.96340735 1668.3542998 1747.54656123 1668.35441285 C1688.53887899 1668.35910807 1629.5311968 1668.36193094 1570.52351439 1668.36357577 C1565.68532542 1668.36371135 1560.84713646 1668.36385038 1556.00894749 1668.36398931 C1548.25210334 1668.36421179 1540.49525919 1668.36443316 1532.73841503 1668.36465319 C1531.29660097 1668.3646941 1531.29660097 1668.3646941 1529.82565935 1668.36473583 C1527.88297511 1668.36479094 1525.94029088 1668.36484606 1523.99760665 1668.36490116 C1510.3701309 1668.36528778 1496.74265515 1668.36567572 1483.1151794 1668.36607029 C1478.23897216 1668.3662114 1473.36276491 1668.36635148 1468.48655766 1668.36648919 C1376.38626854 1668.36909355 1284.2859811 1668.37442466 1192.1856932 1668.3903714 C1191.21607343 1668.39053919 1190.24645366 1668.39070698 1189.24745147 1668.39087986 C1158.9521461 1668.39613058 1128.65684079 1668.40170493 1098.36153549 1668.40733917 C1067.2766407 1668.41312009 1036.1917459 1668.41885061 1005.10685104 1668.4242955 C1003.67119202 1668.42454721 1003.67119202 1668.42454721 1002.20652978 1668.42480401 C942.27094974 1668.43529599 882.33537016 1668.44215846 822.39978927 1668.44516189 C821.01137645 1668.44523211 821.01137645 1668.44523211 819.59491488 1668.44530375 C778.94552639 1668.44735434 738.2961379 1668.44859848 697.64674936 1668.4489498 C681.29366785 1668.44909307 664.94058634 1668.44933174 648.58750482 1668.44961386 C645.87605652 1668.44965939 643.16460821 1668.44970104 640.4531599 1668.44974197 C598.97202921 1668.45038818 557.49090044 1668.45334809 516.00977081 1668.46320255 C515.11502285 1668.46341492 514.22027489 1668.46362729 513.29841335 1668.4638461 C498.90497835 1668.46727495 484.5115434 1668.47088789 470.11810845 1668.4745225 C429.26212149 1668.48483436 388.40613691 1668.49361774 347.55014843 1668.49167784 C346.72129716 1668.4916391 345.89244589 1668.49160036 345.03847791 1668.49156045 C326.95640126 1668.49068392 308.87432478 1668.48897191 290.79224829 1668.48644082 C283.58080436 1668.48544405 276.36936043 1668.48455741 269.15791649 1668.4837056 C267.97794092 1668.48356176 267.97794092 1668.48356176 266.77412747 1668.48341503 C241.81735727 1668.48042529 216.86060081 1668.48666093 191.90383342 1668.49822446 C167.33176349 1668.50957133 142.75971194 1668.51182559 118.18764124 1668.50081896 C103.14008273 1668.49408475 88.0925722 1668.49527693 73.04501748 1668.51016075 C63.51036429 1668.51877634 53.9757538 1668.51657746 44.44110328 1668.50546204 C39.03054721 1668.49946072 33.62010479 1668.49815518 28.20955613 1668.5101469 C23.29710024 1668.52094735 18.38485318 1668.51785557 13.47240716 1668.50385423 C11.71396666 1668.50123754 9.95550949 1668.50358618 8.19708562 1668.51166748 C-24.39479984 1668.6513736 -52.28316399 1656.81941101 -75.67117935 1634.12608917 C-94.70701932 1615.15477748 -107.72305969 1587.83014011 -107.80535856 1560.73519059 C-107.80320408 1559.78674094 -107.80104961 1558.83829129 -107.79882985 1557.86110075 C-107.80048063 1556.8345983 -107.80213141 1555.80809585 -107.80383221 1554.75048726 C-107.80816307 1551.29376238 -107.80535402 1547.83707999 -107.80260712 1544.380354 C-107.80425647 1541.87316628 -107.80634261 1539.36597882 -107.80882722 1536.85879178 C-107.81323822 1531.38165926 -107.81452567 1525.90453948 -107.81309888 1520.42740561 C-107.81097859 1512.22780455 -107.8145899 1504.02821285 -107.81931365 1495.82861323 C-107.82718982 1481.85454859 -107.83027584 1467.88048651 -107.83075958 1453.90641983 C-107.83126176 1439.74141765 -107.83390648 1425.57641832 -107.83916718 1411.41141708 C-107.83966238 1410.07028689 -107.83966238 1410.07028689 -107.84016758 1408.70206317 C-107.84151756 1405.0606774 -107.84288023 1401.41929163 -107.84425969 1397.77790588 C-107.86056791 1354.6522745 -107.86694897 1311.52664367 -107.87170756 1268.40100973 C-107.87409014 1246.92989795 -107.87779348 1225.45878648 -107.88174465 1203.98767493 C-107.89440945 1135.1276699 -107.90519346 1066.26766488 -107.90858511 997.4076587 C-107.90874735 994.11607531 -107.90891291 990.82449192 -107.9090795 987.53290853 C-107.9094133 980.93150386 -107.90974378 974.33009919 -107.91007406 967.72869451 C-107.91046096 959.99993058 -107.91085056 952.27116666 -107.91124512 944.54240273 C-107.91135754 942.33036156 -107.91146896 940.11832039 -107.91157937 937.90627922 C-107.91512918 866.85570905 -107.93020896 795.80514898 -107.95351712 724.75458267 C-107.97025723 673.70477598 -107.98573315 622.6549712 -107.99025208 571.60516174 C-107.99034556 570.555444 -107.99043905 569.50572626 -107.99053537 568.4241989 C-107.99255436 545.38094362 -107.99371045 522.33768837 -107.99406395 499.294433 C-107.99420013 491.04918798 -107.99440912 482.80394295 -107.99465721 474.55869793 C-107.99471877 472.50745636 -107.99477709 470.45621479 -107.99483216 468.40497322 C-107.99575219 435.71159636 -108.00572301 403.01823005 -108.02028964 370.32485666 C-108.03490197 337.39717255 -108.03994973 304.4695014 -108.0318701 271.54181462 C-108.03075472 266.99186635 -108.02974406 262.44191806 -108.02879578 257.89196976 C-108.02860581 257.00005384 -108.02841584 256.10813792 -108.02822012 255.18919424 C-108.02548629 241.06560231 -108.03282901 226.94203431 -108.04436915 212.81844758 C-108.05550676 198.93101968 -108.05594437 185.04362563 -108.04499896 171.15619721 C-108.03890276 163.01450043 -108.04099664 154.8729058 -108.05525093 146.73121865 C-108.06491746 140.68548453 -108.05891709 134.63987232 -108.04684061 128.59413812 C-108.04440513 126.16446339 -108.04699579 123.73477708 -108.05523708 121.3051151 C-108.09462918 108.87443703 -107.88556266 97.19227694 -104.67117935 85.12608917 C-104.38322658 83.99905803 -104.38322658 83.99905803 -104.08945657 82.84925859 C-95.54394958 51.73826405 -73.76481452 28.20229896 -46.4016481 12.21593292 C-32.37943046 4.64759481 -15.96057389 -0.05416722 0 0 Z M-62.67117935 32.12608917 C-63.45364029 32.74097198 -64.23610123 33.3558548 -65.0422731 33.98937042 C-82.54015091 48.55534001 -93.96167128 70.32755483 -98.98367935 92.25108917 C-99.14320084 92.94234894 -99.30272232 93.6336087 -99.46707779 94.34581573 C-102.49009043 108.70012079 -101.81355322 123.58110987 -101.79981381 138.16165169 C-101.80116127 140.62686988 -101.80294563 143.09208787 -101.80512604 145.55730547 C-101.80886527 150.92374851 -101.80951251 156.29017863 -101.8074201 161.65662161 C-101.80430487 169.69048085 -101.80696415 177.72433125 -101.8107188 185.75818986 C-101.81694754 199.45234283 -101.81842566 213.14649264 -101.81730133 226.84064682 C-101.81617648 240.71609671 -101.81721237 254.59154392 -101.8208738 268.46699341 C-101.82110345 269.34377209 -101.8213331 270.22055077 -101.82156972 271.1238985 C-101.82251137 274.69496355 -101.82346706 278.26602859 -101.82444091 281.83709364 C-101.83458287 319.08180469 -101.8376468 356.32651423 -101.83823302 393.57122651 C-101.83829776 397.5796189 -101.8383657 401.58801128 -101.83843642 405.59640367 C-101.83845343 406.59110257 -101.83847043 407.58580146 -101.83848795 408.61064274 C-101.83889647 430.65643576 -101.84108658 452.7022285 -101.84359227 474.74802136 C-101.84462063 483.82666713 -101.84561066 492.90531291 -101.84660852 501.98395868 C-101.84671911 502.9870805 -101.8468297 503.99020233 -101.84694364 505.02372178 C-101.85326743 562.50495532 -101.85739278 619.98618866 -101.85693508 677.46742256 C-101.85691931 679.61841389 -101.85690357 681.76940522 -101.85688788 683.92039655 C-101.85681449 693.63187966 -101.85672632 703.34336278 -101.85663399 713.05484589 C-101.85659287 717.38541731 -101.85655272 721.71598873 -101.85651268 726.04656015 C-101.85649228 728.2140886 -101.85647126 730.38161706 -101.85644962 732.54914552 C-101.85576936 801.09025785 -101.86308707 869.63136501 -101.8769899 938.17247589 C-101.88049094 955.44201539 -101.88396041 972.71155489 -101.8872543 989.98109443 C-101.88745717 991.04445727 -101.88766005 992.10782011 -101.88786907 993.20340606 C-101.89408431 1025.9786661 -101.89784967 1058.75392572 -101.89911228 1091.52918632 C-101.89915223 1092.55824106 -101.89919219 1093.5872958 -101.89923335 1094.64753402 C-101.90008663 1117.23807627 -101.90034781 1139.82861849 -101.90006297 1162.41916075 C-101.89996649 1170.50251454 -101.89991444 1178.58586832 -101.89988424 1186.66922211 C-101.89987633 1188.68014228 -101.89986612 1190.69106245 -101.89985362 1192.70198262 C-101.89967733 1224.73834455 -101.90537401 1256.77470206 -101.91400743 1288.81106273 C-101.92265902 1321.078853 -101.92484719 1353.34663714 -101.91824611 1385.61442809 C-101.91733384 1390.07521157 -101.91649056 1394.53599506 -101.9156881 1398.99677856 C-101.91552801 1399.87119518 -101.91536792 1400.7456118 -101.91520298 1401.64652588 C-101.91285182 1415.48086142 -101.9172033 1429.31518636 -101.92435928 1443.14951991 C-101.93125854 1456.75956908 -101.93099624 1470.36960263 -101.92316715 1483.97965147 C-101.91879266 1491.9538356 -101.91984085 1499.92797363 -101.92903393 1507.90215391 C-101.93525345 1513.83105929 -101.93097432 1519.75992762 -101.92270063 1525.68883147 C-101.92098474 1528.06592283 -101.92258988 1530.44301961 -101.92800184 1532.82010543 C-102.00760188 1570.30479405 -95.60676047 1603.38999095 -68.67117935 1631.12608917 C-42.60760488 1656.41714948 -10.45640776 1662.30220641 24.32992131 1662.252589 C26.13930975 1662.25370776 27.94869797 1662.25526418 29.75808571 1662.2572149 C34.72985366 1662.26130855 39.70160245 1662.25919696 44.67337038 1662.25606904 C50.1025803 1662.25376248 55.53178705 1662.25727552 60.96099633 1662.26003586 C70.51293324 1662.26408844 80.06486471 1662.26441601 89.61680217 1662.26232991 C103.91651812 1662.25922406 118.21622921 1662.26186641 132.51594478 1662.26562862 C156.88611827 1662.27196294 181.25629013 1662.27334133 205.62646431 1662.27221115 C230.32862349 1662.27107918 255.03078118 1662.27211099 279.73294014 1662.27578361 C281.30799315 1662.27601561 282.88304616 1662.27624758 284.45809917 1662.27647953 C290.8087423 1662.27741907 297.15938543 1662.27837537 303.51002856 1662.27935072 C321.41191466 1662.2820961 339.3138008 1662.28447551 357.21568698 1662.28660269 C358.03604193 1662.28670024 358.85639688 1662.28679779 359.70161108 1662.2868983 C406.36079991 1662.292404 453.01998882 1662.29270791 499.67917791 1662.29311916 C506.8117992 1662.2931824 513.94442048 1662.29324893 521.07704177 1662.29331971 C522.86477403 1662.2933374 524.65250629 1662.29335478 526.44023856 1662.29337183 C566.55889514 1662.29375958 606.67755155 1662.29593805 646.79620804 1662.29850209 C655.74942281 1662.29907364 664.70263757 1662.29962762 673.65585234 1662.30018272 C674.9889384 1662.3002654 674.9889384 1662.3002654 676.3489555 1662.30034975 C681.74367067 1662.30068426 687.13838585 1662.30101802 692.53310103 1662.30135132 C695.23556181 1662.3015184 697.9380226 1662.30168591 700.64048338 1662.30185346 C742.65927581 1662.30445536 784.67806826 1662.30668565 826.69686073 1662.30853565 C827.6123984 1662.30857602 828.52793607 1662.30861639 829.47121731 1662.30865798 C887.81429115 1662.31122118 946.15736489 1662.31212048 1004.50043877 1662.31185765 C1007.3694313 1662.3118449 1010.23842382 1662.31183293 1013.10741634 1662.31182124 C1033.26333008 1662.3117389 1053.41924382 1662.31163619 1073.57515756 1662.31152836 C1079.35431226 1662.31149759 1085.13346696 1662.31146753 1090.91262166 1662.31143755 C1095.73319112 1662.31141245 1100.55376057 1662.31138666 1105.37433003 1662.31135943 C1196.42513967 1662.310848 1287.47594843 1662.31226618 1378.52675766 1662.32170685 C1379.96467639 1662.32185588 1379.96467639 1662.32185588 1381.43164398 1662.32200793 C1411.38337216 1662.3251193 1441.33510031 1662.32848578 1471.28682846 1662.33189972 C1502.01967821 1662.33540114 1532.75252796 1662.3388716 1563.48537773 1662.34216411 C1564.4316602 1662.34226564 1565.37794266 1662.34236717 1566.35290036 1662.34247177 C1625.61527413 1662.34882084 1684.87764764 1662.35274277 1744.14002174 1662.3540221 C1745.5129344 1662.35405214 1745.5129344 1662.35405214 1746.91358266 1662.35408279 C1787.10996651 1662.35495811 1827.30635035 1662.35527789 1867.50273421 1662.3549919 C1883.67369212 1662.35487762 1899.84465002 1662.35482155 1916.01560793 1662.35478858 C1918.69682491 1662.35478218 1921.3780419 1662.35477311 1924.05925889 1662.35476343 C1965.07080589 1662.35462694 2006.08235208 1662.35597284 2047.09389871 1662.36180861 C2047.97831165 1662.36193428 2048.86272459 1662.36205996 2049.77393792 1662.36218944 C2064.00074823 1662.36421845 2078.22755852 1662.36636247 2092.45436882 1662.36851624 C2132.84225122 1662.37462548 2173.23013254 1662.37966892 2213.61801547 1662.37754507 C2214.43757144 1662.37750236 2215.25712741 1662.37745965 2216.1015184 1662.37741564 C2233.98186825 1662.37646226 2251.86221801 1662.37494642 2269.74256776 1662.37287892 C2276.8738101 1662.37206261 2284.00505244 1662.37131898 2291.13629478 1662.37059791 C2291.9141895 1662.37051726 2292.69208422 1662.37043661 2293.49355151 1662.37035351 C2318.16133241 1662.3678303 2342.82910728 1662.37144605 2367.49688713 1662.37861573 C2391.78973707 1662.38565042 2416.08257861 1662.38660511 2440.37542857 1662.3787288 C2455.24823379 1662.37391049 2470.12101466 1662.37435283 2484.99381803 1662.38394375 C2494.42258603 1662.38947872 2503.85133469 1662.3877771 2513.28010119 1662.38016097 C2518.62712792 1662.37604514 2523.97410371 1662.37502144 2529.32112736 1662.38291166 C2534.18075814 1662.39002397 2539.04029518 1662.38779175 2543.89992124 1662.37837797 C2545.63480016 1662.37660066 2547.36968673 1662.37809452 2549.10455825 1662.38346409 C2584.60419946 1662.48584384 2616.29200975 1654.41142767 2642.32882065 1629.12608917 C2669.55652501 1601.06671595 2673.66049945 1566.5303889 2673.58050293 1529.35223968 C2673.58259274 1526.8800279 2673.58555787 1524.40781673 2673.58931166 1521.93560691 C2673.59545611 1516.57247163 2673.595469 1511.20938973 2673.58994457 1505.84625764 C2673.58171188 1497.81745778 2673.58513054 1489.78869059 2673.59070985 1481.75988993 C2673.59988454 1468.07202166 2673.59962222 1454.38416828 2673.5941481 1440.69629867 C2673.58863768 1426.83304233 2673.58749125 1412.96979578 2673.59162277 1399.10653885 C2673.59201029 1397.7911126 2673.59201029 1397.7911126 2673.59240563 1396.44911208 C2673.59347222 1392.8771883 2673.59456965 1389.30526454 2673.59570619 1385.73334078 C2673.60627496 1352.49416837 2673.60700663 1319.25500252 2673.60141128 1286.01582916 C2673.6011629 1284.53957738 2673.6011629 1284.53957738 2673.60090949 1283.03350234 C2673.60074363 1282.04775357 2673.60057777 1281.0620048 2673.60040689 1280.04638486 C2673.59535883 1250.00464366 2673.59405853 1219.96290517 2673.59645218 1189.92116363 C2673.59660714 1187.90876369 2673.59676145 1185.89636376 2673.59691512 1183.88396382 C2673.59753606 1175.79678824 2673.59817339 1167.70961267 2673.59883464 1159.62243709 C2673.60066858 1137.01599355 2673.60180984 1114.40954999 2673.60240692 1091.80310638 C2673.60244786 1090.25899181 2673.60244786 1090.25899181 2673.60248962 1088.68368301 C2673.60330807 1055.88644408 2673.60105494 1023.0892061 2673.59670776 990.29196747 C2673.59656726 989.22835303 2673.59642677 988.16473859 2673.59628201 987.06889341 C2673.59399216 969.79691836 2673.59155321 952.52494333 2673.58910166 935.25296831 C2673.57938913 866.75201379 2673.57983993 798.25106709 2673.58956283 729.75011261 C2673.59200525 712.48681204 2673.59442737 695.22351147 2673.59670776 677.96021087 C2673.59684866 676.8972199 2673.59698955 675.83422893 2673.59713472 674.73902611 C2673.60144764 641.97570794 2673.60327554 609.21239041 2673.60240692 576.44907196 C2673.60237975 575.42041993 2673.60235258 574.39176791 2673.60232459 573.33194461 C2673.60169961 550.75053892 2673.60043229 528.1691333 2673.59858591 505.58772768 C2673.59792764 497.50781929 2673.59730148 489.42791089 2673.59668449 481.34800248 C2673.59652971 479.33796585 2673.59637225 477.32792922 2673.5962121 475.31789259 C2673.59382573 445.28481925 2673.59585622 415.25174896 2673.60090949 385.218676 C2673.60107508 384.23450815 2673.60124067 383.2503403 2673.60141128 382.23634918 C2673.60165933 380.76282549 2673.60165933 380.76282549 2673.60191239 379.25953364 C2673.60743071 346.11547451 2673.60539579 312.97142324 2673.5948498 279.82736523 C2673.59374511 276.26679 2673.5926717 272.70621475 2673.59162277 269.14563949 C2673.59123215 267.83491751 2673.59123215 267.83491751 2673.59083364 266.49771629 C2673.58689203 252.6730397 2673.58963195 238.84837291 2673.59516078 225.0236972 C2673.60045713 211.42331923 2673.59858368 197.82295776 2673.58913261 184.22258187 C2673.58380617 176.25420575 2673.58388778 168.28587491 2673.5920958 160.31750098 C2673.59758256 154.39295309 2673.59257905 148.46844349 2673.58358325 142.54389891 C2673.58157534 140.16858665 2673.58288416 137.79326855 2673.58799513 135.41796094 C2673.66259647 98.08666385 2667.33116877 65.6771279 2640.96309799 37.76036651 C2626.33787414 23.13514266 2607.19173033 13.37935631 2587.14132065 8.81358917 C2586.44168197 8.65406769 2585.7420433 8.4945462 2585.02120346 8.33019073 C2572.9699404 5.80394262 2560.6888129 5.98215786 2548.43794376 5.99958934 C2546.62831794 5.99847085 2544.81869235 5.99691461 2543.00906723 5.99496344 C2538.03197144 5.99086606 2533.05489475 5.99298313 2528.07779896 5.9961093 C2522.6445383 5.99841431 2517.21128082 5.99490357 2511.7780208 5.99214248 C2502.21739019 5.98808849 2492.65676503 5.98776296 2483.09613387 5.98984843 C2468.78340254 5.99295335 2454.47067556 5.99031265 2440.15794468 5.98654972 C2415.7660206 5.98021433 2391.37409815 5.97883717 2366.98217338 5.97996719 C2342.2570192 5.98109905 2317.53186652 5.98006773 2292.80671257 5.97639473 C2291.23035484 5.97616274 2289.65399711 5.97593076 2288.07763939 5.97569881 C2281.72176444 5.97475928 2275.36588948 5.97380298 2269.01001454 5.97282762 C2251.09316788 5.9700822 2233.17632119 5.9677028 2215.25947446 5.96557565 C2214.02789752 5.96542933 2214.02789752 5.96542933 2212.77144024 5.96528004 C2166.06951287 5.95977397 2119.36758542 5.95947042 2072.66565779 5.95905918 C2065.5263422 5.95899594 2058.38702662 5.95892941 2051.24771104 5.95885863 C2049.45830684 5.95884094 2047.66890264 5.95882356 2045.87949844 5.95880651 C2005.72550687 5.95841878 1965.57151547 5.95624039 1925.41752399 5.95367626 C1916.45676859 5.9531047 1907.49601319 5.95255072 1898.53525779 5.95199562 C1897.6457866 5.9519405 1896.75631541 5.95188538 1895.83989055 5.95182859 C1890.44064613 5.95149409 1885.04140172 5.95116032 1879.6421573 5.95082702 C1876.93743229 5.95065994 1874.23270729 5.95049243 1871.52798228 5.95032489 C1829.47377224 5.94772297 1787.41956218 5.94549268 1745.36535209 5.94364269 C1744.44903798 5.94360232 1743.53272386 5.94356195 1742.58864264 5.94352036 C1684.19501469 5.94095711 1625.80138685 5.94005787 1567.40775884 5.94032069 C1564.5362252 5.94033344 1561.66469155 5.94034541 1558.7931579 5.9403571 C1538.61933357 5.94043944 1518.44550925 5.94054215 1498.27168492 5.94064998 C1492.48737971 5.94068075 1486.70307451 5.94071081 1480.9187693 5.94074079 C1476.09390316 5.94076589 1471.26903703 5.94079168 1466.4441709 5.94081891 C1375.31199072 5.94133034 1284.17981143 5.93991216 1193.04763168 5.93047149 C1192.08816264 5.93037214 1191.12869361 5.93027278 1190.14014975 5.93017041 C1160.16169888 5.92705905 1130.18324804 5.92369256 1100.20479721 5.92027862 C1069.44461388 5.91677721 1038.68443055 5.91330675 1007.92424721 5.91001423 C1006.97712655 5.9099127 1006.03000589 5.90981117 1005.05418461 5.90970657 C945.74047244 5.90335762 886.42676052 5.89943559 827.11304802 5.89815624 C826.19699651 5.89813621 825.28094501 5.89811619 824.33713437 5.89809555 C784.10687191 5.89722024 743.87660946 5.89690045 703.64634699 5.89718644 C687.46180458 5.89730072 671.27726218 5.89735679 655.09271977 5.89738976 C652.40924373 5.89739616 649.7257677 5.89740524 647.04229166 5.89741491 C605.99457351 5.89755141 564.94685617 5.89620519 523.89913839 5.89036973 C523.01389804 5.89024406 522.12865768 5.89011839 521.21659186 5.88998891 C506.97639229 5.88795988 492.73619273 5.88581586 478.49599318 5.8836621 C438.07136383 5.87755307 397.64673556 5.87250929 357.22210568 5.87463327 C356.40185397 5.87467598 355.58160227 5.87471869 354.73649445 5.8747627 C336.84123226 5.87571606 318.94597016 5.87723189 301.05070806 5.87929942 C293.91358375 5.88011574 286.77645942 5.88085937 279.6393351 5.88158043 C278.86079718 5.88166108 278.08225926 5.88174173 277.28012929 5.88182483 C252.58922724 5.88434832 227.89833122 5.88073164 203.20743022 5.87356261 C178.89312162 5.86652894 154.57882143 5.86557194 130.26451282 5.87344954 C115.37766446 5.87826893 100.49084042 5.87782293 85.60399389 5.86823459 C76.16750973 5.86270165 66.73104489 5.86439864 57.29456222 5.87201737 C51.94232588 5.87613517 46.59014046 5.87715167 41.2379072 5.86926669 C36.37473139 5.86216078 31.51164931 5.86437881 26.64847824 5.87380037 C24.91119692 5.87557949 23.17390798 5.87407805 21.43663403 5.86871425 C-10.05841719 5.77809695 -37.53863111 12.04079271 -62.67117935 32.12608917 Z " fill="#E3E3E6" transform="translate(214.67117935419083,665.8739108294249)"/>
<path d="M0 0 C5.20808445 3.12485067 9.13857442 7.39977264 11.4453125 13.0546875 C12.31709863 20.50616472 12.53517125 27.34690813 7.875 33.5078125 C3.95378635 37.7504371 0.06726681 40.74793176 -5.7265625 41.42578125 C-13.34468182 41.56716556 -18.81080553 41.36342689 -24.5546875 36.0546875 C-30.33988468 29.81276423 -31.05969522 24.94343259 -30.9375 16.546875 C-30.25092521 10.2836315 -27.49454318 6.85260252 -22.9921875 2.6796875 C-16.15517964 -1.87831774 -7.88185497 -2.91652737 0 0 Z " fill="#1A2B56" transform="translate(461.5546875,745.9453125)"/>
<path d="M0 0 C5.20808445 3.12485067 9.13857442 7.39977264 11.4453125 13.0546875 C12.31709863 20.50616472 12.53517125 27.34690813 7.875 33.5078125 C3.95378635 37.7504371 0.06726681 40.74793176 -5.7265625 41.42578125 C-13.34468182 41.56716556 -18.81080553 41.36342689 -24.5546875 36.0546875 C-30.33988468 29.81276423 -31.05969522 24.94343259 -30.9375 16.546875 C-30.25092521 10.2836315 -27.49454318 6.85260252 -22.9921875 2.6796875 C-16.15517964 -1.87831774 -7.88185497 -2.91652737 0 0 Z " fill="#1A2B56" transform="translate(380.5546875,745.9453125)"/>
<path d="M0 0 C5.20808445 3.12485067 9.13857442 7.39977264 11.4453125 13.0546875 C12.31709863 20.50616472 12.53517125 27.34690813 7.875 33.5078125 C3.95378635 37.7504371 0.06726681 40.74793176 -5.7265625 41.42578125 C-13.34468182 41.56716556 -18.81080553 41.36342689 -24.5546875 36.0546875 C-30.33988468 29.81276423 -31.05969522 24.94343259 -30.9375 16.546875 C-30.25092521 10.2836315 -27.49454318 6.85260252 -22.9921875 2.6796875 C-16.15517964 -1.87831774 -7.88185497 -2.91652737 0 0 Z " fill="#1A2B56" transform="translate(299.5546875,745.9453125)"/>
</svg>
